<svg width="1670" height="828" viewBox="0 0 1670 828" fill="none" xmlns="http://www.w3.org/2000/svg">
<path d="M827.4 778.4C845.933 731.067 860.867 685.333 872.2 641.2L930 631.6C923.467 670 920.533 715.333 921.2 767.6L880.6 777L883.4 753.2L871 755.6L866.8 772.4L827.4 778.4ZM886.8 727.8L895.4 656H895.2L877.2 729.6L886.8 727.8ZM952.489 641.8C972.222 635.933 988.422 633 1001.09 633C1018.16 633 1026.62 638.933 1026.49 650.8C1026.36 667.867 1015.62 685 994.289 702.2C996.156 707 1003.49 722.133 1016.29 747.6C1009.76 753.6 999.889 762.467 986.689 774.2L966.289 722C963.089 738.533 960.689 753.8 959.089 767.8L929.489 776.2C929.756 773.4 931.089 765 933.489 751L952.489 641.8ZM976.289 671.8C975.089 676.067 974.022 680.4 973.089 684.8L970.689 697.6C975.089 695.333 979.422 692.4 983.689 688.8C988.756 684.4 992.022 680.267 993.489 676.4C994.022 675.2 994.356 674.133 994.489 673.2C994.356 670.4 992.489 669 988.889 669C985.956 669 981.756 669.933 976.289 671.8ZM1113.6 634L1112.6 669.4C1103.94 669.933 1095.6 670.533 1087.6 671.2C1079.2 706.267 1073.6 738.467 1070.8 767.8L1038.6 776.2L1056 675.2C1052.4 675.733 1049 676.333 1045.8 677L1035.8 678.8L1033.6 643.4L1113.6 634ZM1152.73 670.4C1151.79 674 1150.93 677.6 1150.13 681.2L1148.13 691.6L1178.53 685.2L1176.73 711.4C1162.19 713.8 1150.86 716 1142.73 718C1142.19 720.533 1141.73 723.067 1141.33 725.6L1139.93 733L1175.33 727.8L1172.93 763C1154.66 764.6 1131.59 769 1103.73 776.2L1126.33 640.2L1189.13 631L1186.73 666.2C1174.46 667.267 1163.13 668.667 1152.73 670.4ZM1277.6 675.6C1273.6 677.2 1268.8 679.067 1263.2 681.2L1249 686.6C1249 680.733 1247.33 677.8 1244 677.8C1239.33 677.8 1234.73 680.4 1230.2 685.6C1226.73 689.6 1225.27 693.4 1225.8 697C1226.2 699.4 1228.6 700.6 1233 700.6C1235.4 700.6 1238.6 700.267 1242.6 699.6C1247.93 698.4 1252.73 697.8 1257 697.8C1267.53 697.8 1273.67 701.467 1275.4 708.8C1276.07 711.067 1276.4 713.467 1276.4 716C1276.27 724.133 1273.2 732.867 1267.2 742.2C1259.33 754.467 1248.27 764.8 1234 773.2C1226.53 777.6 1219.2 779.8 1212 779.8C1205.47 779.8 1199 777.933 1192.6 774.2C1195.93 766.733 1201.07 755.6 1208 740.8C1212 743.467 1216.27 744.8 1220.8 744.8C1222.8 744.8 1224.93 744.533 1227.2 744C1231.07 742.933 1234.8 741.467 1238.4 739.6C1243.47 736.8 1245.93 733.933 1245.8 731C1245.93 727.8 1243.4 726.2 1238.2 726.2C1234.73 726.2 1229.6 726.933 1222.8 728.4C1216 729.867 1210.87 730.6 1207.4 730.6C1202.73 730.6 1199.13 729.733 1196.6 728C1191.8 724.667 1189.8 719.533 1190.6 712.6C1192.07 698.6 1201.07 682.333 1217.6 663.8C1234.4 644.867 1248.87 634.933 1261 634C1272.73 633.333 1278.67 642.2 1278.8 660.6C1278.67 665 1278.27 670 1277.6 675.6ZM1267.05 778.4C1285.58 731.067 1300.52 685.333 1311.85 641.2L1369.65 631.6C1363.12 670 1360.18 715.333 1360.85 767.6L1320.25 777L1323.05 753.2L1310.65 755.6L1306.45 772.4L1267.05 778.4ZM1326.45 727.8L1335.05 656H1334.85L1316.85 729.6L1326.45 727.8ZM1393.74 642.6L1426.34 636C1426.07 639.867 1425.94 645.4 1425.94 652.6C1425.94 669.8 1426.47 684.933 1427.54 698C1428.34 705.467 1429.34 711.467 1430.54 716L1443.34 642L1476.14 636C1462.94 686.667 1454.34 730.6 1450.34 767.8L1420.14 776.2C1420.14 775.933 1419.34 773.733 1417.74 769.6L1407.94 741.4L1405.14 732.8C1402.34 747.733 1400.2 762.2 1398.74 776.2L1368.74 785.2L1393.74 642.6ZM1455.33 778.4C1473.86 731.067 1488.8 685.333 1500.13 641.2L1557.93 631.6C1551.4 670 1548.46 715.333 1549.13 767.6L1508.53 777L1511.33 753.2L1498.93 755.6L1494.73 772.4L1455.33 778.4ZM1514.73 727.8L1523.33 656H1523.13L1505.13 729.6L1514.73 727.8ZM1580.62 642L1613.22 636C1604.15 671.067 1597.15 703.4 1592.22 733L1625.42 727.8L1622.62 763C1605.42 764.6 1583.69 769 1557.42 776.2L1580.62 642Z" fill="url(#paint0_linear_51_115)"/>
<path d="M827.4 778.4L823.675 776.942L821.147 783.398L828.002 782.354L827.4 778.4ZM872.2 641.2L871.545 637.254L868.974 637.681L868.326 640.205L872.2 641.2ZM930 631.6L933.943 632.271L934.885 626.734L929.345 627.654L930 631.6ZM921.2 767.6L922.102 771.497L925.241 770.77L925.2 767.549L921.2 767.6ZM880.6 777L876.627 776.533L875.963 782.179L881.502 780.897L880.6 777ZM883.4 753.2L887.373 753.667L888.012 748.233L882.64 749.273L883.4 753.2ZM871 755.6L870.24 751.673L867.738 752.157L867.119 754.63L871 755.6ZM866.8 772.4L867.402 776.354L870.035 775.954L870.681 773.37L866.8 772.4ZM886.8 727.8L887.537 731.731L890.422 731.19L890.772 728.276L886.8 727.8ZM895.4 656L899.372 656.476L899.908 652H895.4V656ZM895.2 656V652H892.06L891.315 655.05L895.2 656ZM877.2 729.6L873.315 728.65L871.841 734.675L877.937 733.531L877.2 729.6ZM831.125 779.858C849.711 732.391 864.696 686.502 876.074 642.195L868.326 640.205C857.037 684.164 842.156 729.743 823.675 776.942L831.125 779.858ZM872.855 645.146L930.655 635.546L929.345 627.654L871.545 637.254L872.855 645.146ZM926.057 630.929C919.472 669.632 916.532 715.219 917.2 767.651L925.2 767.549C924.535 715.448 927.462 670.368 933.943 632.271L926.057 630.929ZM920.298 763.703L879.698 773.103L881.502 780.897L922.102 771.497L920.298 763.703ZM884.573 777.467L887.373 753.667L879.427 752.733L876.627 776.533L884.573 777.467ZM882.64 749.273L870.24 751.673L871.76 759.527L884.16 757.127L882.64 749.273ZM867.119 754.63L862.919 771.43L870.681 773.37L874.881 756.57L867.119 754.63ZM866.198 768.446L826.798 774.446L828.002 782.354L867.402 776.354L866.198 768.446ZM890.772 728.276L899.372 656.476L891.428 655.524L882.828 727.324L890.772 728.276ZM895.4 652H895.2V660H895.4V652ZM891.315 655.05L873.315 728.65L881.085 730.55L899.085 656.95L891.315 655.05ZM877.937 733.531L887.537 731.731L886.063 723.869L876.463 725.669L877.937 733.531ZM952.489 641.8L951.349 637.966L948.973 638.672L948.548 641.114L952.489 641.8ZM1026.49 650.8L1022.49 650.755L1022.49 650.769L1026.49 650.8ZM994.289 702.2L991.778 699.086L989.5 700.923L990.561 703.65L994.289 702.2ZM1016.29 747.6L1018.99 750.546L1021.22 748.503L1019.86 745.804L1016.29 747.6ZM986.689 774.2L982.963 775.656L985.054 781.005L989.347 777.19L986.689 774.2ZM966.289 722L970.015 720.544L964.987 707.678L962.362 721.24L966.289 722ZM959.089 767.8L960.181 771.648L962.759 770.916L963.063 768.254L959.089 767.8ZM929.489 776.2L925.507 775.821L924.952 781.645L930.581 780.048L929.489 776.2ZM933.489 751L929.548 750.314L929.547 750.324L933.489 751ZM976.289 671.8L974.996 668.015L973.007 668.694L972.438 670.717L976.289 671.8ZM973.089 684.8L969.176 683.97L969.166 684.016L969.158 684.063L973.089 684.8ZM970.689 697.6L966.758 696.863L965.25 704.901L972.521 701.156L970.689 697.6ZM983.689 688.8L986.269 691.857L986.29 691.839L986.312 691.82L983.689 688.8ZM993.489 676.4L989.834 674.775L989.789 674.877L989.749 674.981L993.489 676.4ZM994.489 673.2L998.449 673.766L998.503 673.389L998.485 673.01L994.489 673.2ZM953.629 645.634C973.193 639.818 988.973 637 1001.09 637V629C987.872 629 971.252 632.049 951.349 637.966L953.629 645.634ZM1001.09 637C1009.29 637 1014.69 638.448 1017.94 640.726C1020.92 642.813 1022.54 645.916 1022.49 650.755L1030.49 650.845C1030.57 643.818 1028.02 638.02 1022.53 634.174C1017.32 630.519 1009.96 629 1001.09 629V637ZM1022.49 650.769C1022.37 666.066 1012.74 682.186 991.778 699.086L996.8 705.314C1018.51 687.814 1030.34 669.667 1030.49 650.831L1022.49 650.769ZM990.561 703.65C992.515 708.675 999.965 724.028 1012.72 749.396L1019.86 745.804C1007.01 720.239 999.796 705.325 998.017 700.75L990.561 703.65ZM1013.58 744.654C1007.07 750.631 997.228 759.48 984.032 771.21L989.347 777.19C1002.55 765.453 1012.44 756.569 1018.99 750.546L1013.58 744.654ZM990.415 772.744L970.015 720.544L962.563 723.456L982.963 775.656L990.415 772.744ZM962.362 721.24C959.146 737.856 956.729 753.226 955.115 767.346L963.063 768.254C964.649 754.374 967.032 739.211 970.216 722.76L962.362 721.24ZM957.997 763.952L928.397 772.352L930.581 780.048L960.181 771.648L957.997 763.952ZM933.471 776.579C933.72 773.967 935.018 765.753 937.432 751.676L929.547 750.324C927.16 764.247 925.792 772.833 925.507 775.821L933.471 776.579ZM937.43 751.686L956.43 642.486L948.548 641.114L929.548 750.314L937.43 751.686ZM972.438 670.717C971.215 675.069 970.127 679.486 969.176 683.97L977.002 685.63C977.918 681.314 978.964 677.065 980.14 672.883L972.438 670.717ZM969.158 684.063L966.758 696.863L974.621 698.337L977.021 685.537L969.158 684.063ZM972.521 701.156C977.219 698.735 981.801 695.627 986.269 691.857L981.11 685.743C977.044 689.173 972.959 691.931 968.857 694.044L972.521 701.156ZM986.312 691.82C991.6 687.227 995.425 682.574 997.229 677.819L989.749 674.981C988.619 677.96 985.911 681.573 981.066 685.78L986.312 691.82ZM997.144 678.025C997.774 676.609 998.247 675.176 998.449 673.766L990.529 672.634C990.464 673.091 990.271 673.791 989.834 674.775L997.144 678.025ZM998.485 673.01C998.374 670.684 997.47 668.41 995.389 666.85C993.478 665.417 991.113 665 988.889 665V673C989.541 673 989.987 673.065 990.272 673.137C990.55 673.209 990.621 673.274 990.589 673.25C990.54 673.213 990.482 673.143 990.453 673.082C990.433 673.04 990.48 673.114 990.494 673.39L998.485 673.01ZM988.889 665C985.271 665 980.557 666.116 974.996 668.015L977.582 675.585C982.954 673.751 986.64 673 988.889 673V665ZM1113.6 634L1117.6 634.113L1117.73 629.487L1113.14 630.027L1113.6 634ZM1112.6 669.4L1112.85 673.392L1116.5 673.168L1116.6 669.513L1112.6 669.4ZM1087.6 671.2L1087.27 667.214L1084.39 667.454L1083.71 670.268L1087.6 671.2ZM1070.8 767.8L1071.81 771.67L1074.52 770.964L1074.79 768.18L1070.8 767.8ZM1038.6 776.2L1034.66 775.521L1033.61 781.637L1039.61 780.07L1038.6 776.2ZM1056 675.2L1059.95 675.879L1060.88 670.433L1055.42 671.243L1056 675.2ZM1045.8 677L1046.51 680.937L1046.57 680.927L1046.62 680.916L1045.8 677ZM1035.8 678.8L1031.81 679.048L1032.09 683.533L1036.51 682.737L1035.8 678.8ZM1033.6 643.4L1033.14 639.427L1029.38 639.869L1029.61 643.648L1033.6 643.4ZM1109.6 633.887L1108.6 669.287L1116.6 669.513L1117.6 634.113L1109.6 633.887ZM1112.36 665.408C1103.66 665.943 1095.3 666.545 1087.27 667.214L1087.94 675.186C1095.9 674.522 1104.21 673.924 1112.85 673.392L1112.36 665.408ZM1083.71 670.268C1075.28 705.478 1069.64 737.865 1066.82 767.42L1074.79 768.18C1077.56 739.068 1083.13 707.055 1091.49 672.132L1083.71 670.268ZM1069.79 763.93L1037.59 772.33L1039.61 780.07L1071.81 771.67L1069.79 763.93ZM1042.55 776.879L1059.95 675.879L1052.06 674.521L1034.66 775.521L1042.55 776.879ZM1055.42 671.243C1051.75 671.787 1048.27 672.4 1044.99 673.084L1046.62 680.916C1049.73 680.267 1053.06 679.68 1056.59 679.157L1055.42 671.243ZM1045.09 673.063L1035.09 674.863L1036.51 682.737L1046.51 680.937L1045.09 673.063ZM1039.8 678.552L1037.6 643.152L1029.61 643.648L1031.81 679.048L1039.8 678.552ZM1034.07 647.373L1114.07 637.973L1113.14 630.027L1033.14 639.427L1034.07 647.373ZM1152.73 670.4L1152.07 666.454L1149.51 666.881L1148.85 669.396L1152.73 670.4ZM1150.13 681.2L1146.22 680.332L1146.21 680.388L1146.2 680.445L1150.13 681.2ZM1148.13 691.6L1144.2 690.845L1143.06 696.754L1148.95 695.514L1148.13 691.6ZM1178.53 685.2L1182.52 685.474L1182.88 680.196L1177.7 681.286L1178.53 685.2ZM1176.73 711.4L1177.38 715.347L1180.5 714.831L1180.72 711.674L1176.73 711.4ZM1142.73 718L1141.77 714.116L1139.33 714.716L1138.81 717.176L1142.73 718ZM1141.33 725.6L1145.26 726.344L1145.27 726.284L1145.28 726.224L1141.33 725.6ZM1139.93 733L1136 732.256L1134.95 737.774L1140.51 736.958L1139.93 733ZM1175.33 727.8L1179.32 728.072L1179.65 723.121L1174.75 723.842L1175.33 727.8ZM1172.93 763L1173.28 766.985L1176.68 766.686L1176.92 763.272L1172.93 763ZM1103.73 776.2L1099.78 775.544L1098.77 781.611L1104.73 780.073L1103.73 776.2ZM1126.33 640.2L1125.75 636.242L1122.86 636.665L1122.38 639.544L1126.33 640.2ZM1189.13 631L1193.12 631.272L1193.45 626.323L1188.55 627.042L1189.13 631ZM1186.73 666.2L1187.07 670.185L1190.48 669.888L1190.72 666.472L1186.73 666.2ZM1148.85 669.396C1147.91 673.041 1147.03 676.686 1146.22 680.332L1154.03 682.068C1154.82 678.514 1155.68 674.959 1156.6 671.404L1148.85 669.396ZM1146.2 680.445L1144.2 690.845L1152.05 692.355L1154.05 681.955L1146.2 680.445ZM1148.95 695.514L1179.35 689.114L1177.7 681.286L1147.3 687.686L1148.95 695.514ZM1174.54 684.926L1172.74 711.126L1180.72 711.674L1182.52 685.474L1174.54 684.926ZM1176.07 707.453C1161.5 709.86 1150.05 712.079 1141.77 714.116L1143.68 721.884C1151.67 719.921 1162.88 717.74 1177.38 715.347L1176.07 707.453ZM1138.81 717.176C1138.27 719.775 1137.79 722.375 1137.38 724.976L1145.28 726.224C1145.67 723.758 1146.12 721.292 1146.64 718.824L1138.81 717.176ZM1137.4 724.856L1136 732.256L1143.86 733.744L1145.26 726.344L1137.4 724.856ZM1140.51 736.958L1175.91 731.758L1174.75 723.842L1139.35 729.042L1140.51 736.958ZM1171.34 727.528L1168.94 762.728L1176.92 763.272L1179.32 728.072L1171.34 727.528ZM1172.58 759.015C1154 760.642 1130.7 765.099 1102.73 772.327L1104.73 780.073C1132.49 772.901 1155.32 768.558 1173.28 766.985L1172.58 759.015ZM1107.67 776.856L1130.27 640.856L1122.38 639.544L1099.78 775.544L1107.67 776.856ZM1126.91 644.158L1189.71 634.958L1188.55 627.042L1125.75 636.242L1126.91 644.158ZM1185.14 630.728L1182.74 665.928L1190.72 666.472L1193.12 631.272L1185.14 630.728ZM1186.38 662.215C1174.03 663.289 1162.59 664.701 1152.07 666.454L1153.38 674.346C1163.67 672.632 1174.89 671.244 1187.07 670.185L1186.38 662.215ZM1277.6 675.6L1279.09 679.314L1281.29 678.432L1281.57 676.073L1277.6 675.6ZM1263.2 681.2L1264.62 684.939L1264.62 684.938L1263.2 681.2ZM1249 686.6H1245V692.401L1250.42 690.339L1249 686.6ZM1230.2 685.6L1227.18 682.971L1227.18 682.98L1230.2 685.6ZM1225.8 697L1221.84 697.586L1221.85 697.622L1221.85 697.658L1225.8 697ZM1242.6 699.6L1243.26 703.546L1243.37 703.527L1243.48 703.502L1242.6 699.6ZM1275.4 708.8L1271.51 709.72L1271.53 709.825L1271.56 709.929L1275.4 708.8ZM1276.4 716L1280.4 716.066L1280.4 716.033V716H1276.4ZM1267.2 742.2L1263.84 740.037L1263.83 740.041L1267.2 742.2ZM1234 773.2L1231.97 769.753L1231.97 769.754L1234 773.2ZM1192.6 774.2L1188.95 772.569L1187.48 775.847L1190.58 777.655L1192.6 774.2ZM1208 740.8L1210.22 737.472L1206.35 734.893L1204.38 739.103L1208 740.8ZM1227.2 744L1228.12 747.894L1228.19 747.876L1228.26 747.856L1227.2 744ZM1238.4 739.6L1240.24 743.151L1240.29 743.127L1240.33 743.101L1238.4 739.6ZM1245.8 731L1241.8 730.833L1241.8 731.008L1241.8 731.182L1245.8 731ZM1222.8 728.4L1223.64 732.31L1223.64 732.31L1222.8 728.4ZM1196.6 728L1194.32 731.285L1194.33 731.293L1194.34 731.301L1196.6 728ZM1190.6 712.6L1194.57 713.058L1194.58 713.038L1194.58 713.017L1190.6 712.6ZM1217.6 663.8L1220.58 666.463L1220.59 666.455L1217.6 663.8ZM1261 634L1260.77 630.006L1260.73 630.009L1260.69 630.012L1261 634ZM1278.8 660.6L1282.8 660.721L1282.8 660.646L1282.8 660.571L1278.8 660.6ZM1276.11 671.886C1272.14 673.475 1267.36 675.334 1261.78 677.462L1264.62 684.938C1270.24 682.8 1275.06 680.925 1279.09 679.314L1276.11 671.886ZM1261.78 677.461L1247.58 682.861L1250.42 690.339L1264.62 684.939L1261.78 677.461ZM1253 686.6C1253 683.419 1252.57 680.388 1251.23 678.024C1249.69 675.325 1247.13 673.8 1244 673.8V681.8C1244.23 681.8 1244.24 681.845 1244.16 681.8C1244.09 681.757 1244.14 681.752 1244.27 681.976C1244.6 682.545 1245 683.914 1245 686.6H1253ZM1244 673.8C1237.71 673.8 1232.11 677.324 1227.18 682.971L1233.22 688.229C1237.36 683.476 1240.95 681.8 1244 681.8V673.8ZM1227.18 682.98C1223.3 687.451 1221.07 692.386 1221.84 697.586L1229.76 696.414C1229.46 694.414 1230.16 691.749 1233.22 688.22L1227.18 682.98ZM1221.85 697.658C1222.29 700.263 1223.9 702.174 1226.11 703.278C1228.11 704.278 1230.53 704.6 1233 704.6V696.6C1231.07 696.6 1230.09 696.322 1229.69 696.122C1229.53 696.043 1229.56 696.022 1229.63 696.119C1229.67 696.165 1229.7 696.217 1229.72 696.268C1229.74 696.318 1229.75 696.347 1229.75 696.342L1221.85 697.658ZM1233 704.6C1235.72 704.6 1239.17 704.227 1243.26 703.546L1241.94 695.654C1238.03 696.306 1235.08 696.6 1233 696.6V704.6ZM1243.48 703.502C1248.6 702.35 1253.1 701.8 1257 701.8V693.8C1252.37 693.8 1247.27 694.45 1241.72 695.698L1243.48 703.502ZM1257 701.8C1261.86 701.8 1265.23 702.656 1267.45 703.983C1269.53 705.229 1270.87 707.041 1271.51 709.72L1279.29 707.88C1278.19 703.225 1275.6 699.538 1271.55 697.117C1267.64 694.777 1262.67 693.8 1257 693.8V701.8ZM1271.56 709.929C1272.11 711.803 1272.4 713.821 1272.4 716H1280.4C1280.4 713.112 1280.02 710.33 1279.24 707.671L1271.56 709.929ZM1272.4 715.934C1272.28 723.099 1269.57 731.11 1263.84 740.037L1270.56 744.363C1276.83 734.623 1280.25 725.168 1280.4 716.066L1272.4 715.934ZM1263.83 740.041C1256.35 751.711 1245.77 761.628 1231.97 769.753L1236.03 776.647C1250.76 767.972 1262.32 757.222 1270.57 744.359L1263.83 740.041ZM1231.97 769.754C1224.99 773.865 1218.35 775.8 1212 775.8V783.8C1220.05 783.8 1228.07 781.335 1236.03 776.646L1231.97 769.754ZM1212 775.8C1206.27 775.8 1200.49 774.17 1194.62 770.745L1190.58 777.655C1197.51 781.697 1204.67 783.8 1212 783.8V775.8ZM1196.25 775.831C1199.57 768.398 1204.69 757.292 1211.62 742.497L1204.38 739.103C1197.44 753.908 1192.3 765.068 1188.95 772.569L1196.25 775.831ZM1205.78 744.128C1210.4 747.205 1215.43 748.8 1220.8 748.8V740.8C1217.11 740.8 1213.6 739.728 1210.22 737.472L1205.78 744.128ZM1220.8 748.8C1223.15 748.8 1225.6 748.486 1228.12 747.894L1226.28 740.106C1224.27 740.58 1222.45 740.8 1220.8 740.8V748.8ZM1228.26 747.856C1232.4 746.714 1236.4 745.145 1240.24 743.151L1236.56 736.049C1233.2 737.789 1229.73 739.152 1226.14 740.144L1228.26 747.856ZM1240.33 743.101C1243.09 741.58 1245.42 739.891 1247.08 737.959C1248.78 735.983 1249.92 733.572 1249.8 730.818L1241.8 731.182C1241.81 731.361 1241.78 731.85 1241.02 732.741C1240.21 733.676 1238.78 734.82 1236.47 736.099L1240.33 743.101ZM1249.8 731.167C1249.92 728.257 1248.71 725.645 1246.14 724.018C1243.91 722.615 1241.07 722.2 1238.2 722.2V730.2C1240.53 730.2 1241.55 730.585 1241.86 730.782C1241.95 730.839 1241.89 730.815 1241.82 730.689C1241.77 730.576 1241.81 730.579 1241.8 730.833L1249.8 731.167ZM1238.2 722.2C1234.29 722.2 1228.82 723.011 1221.96 724.49L1223.64 732.31C1230.38 730.856 1235.18 730.2 1238.2 730.2V722.2ZM1221.96 724.49C1215.22 725.944 1210.42 726.6 1207.4 726.6V734.6C1211.31 734.6 1216.78 733.789 1223.64 732.31L1221.96 724.49ZM1207.4 726.6C1203.15 726.6 1200.46 725.797 1198.86 724.699L1194.34 731.301C1197.8 733.67 1202.32 734.6 1207.4 734.6V726.6ZM1198.88 724.715C1195.55 722.401 1193.9 718.869 1194.57 713.058L1186.63 712.142C1185.7 720.198 1188.05 726.932 1194.32 731.285L1198.88 724.715ZM1194.58 713.017C1195.91 700.278 1204.23 684.793 1220.58 666.463L1214.62 661.137C1197.9 679.874 1188.22 696.922 1186.62 712.183L1194.58 713.017ZM1220.59 666.455C1228.86 657.134 1236.44 650.169 1243.31 645.447C1250.21 640.714 1256.19 638.382 1261.31 637.988L1260.69 630.012C1253.68 630.551 1246.36 633.653 1238.79 638.852C1231.2 644.064 1223.14 651.533 1214.61 661.145L1220.59 666.455ZM1261.23 637.994C1265.85 637.731 1268.84 639.255 1270.93 642.375C1273.24 645.839 1274.74 651.71 1274.8 660.629L1282.8 660.571C1282.73 651.09 1281.19 643.328 1277.57 637.925C1273.73 632.178 1267.88 629.603 1260.77 630.006L1261.23 637.994ZM1274.8 660.479C1274.67 664.734 1274.28 669.613 1273.63 675.127L1281.57 676.073C1282.25 670.387 1282.66 665.266 1282.8 660.721L1274.8 660.479ZM1267.05 778.4L1263.32 776.942L1260.8 783.398L1267.65 782.354L1267.05 778.4ZM1311.85 641.2L1311.19 637.254L1308.62 637.681L1307.97 640.205L1311.85 641.2ZM1369.65 631.6L1373.59 632.271L1374.53 626.734L1368.99 627.654L1369.65 631.6ZM1360.85 767.6L1361.75 771.497L1364.89 770.77L1364.85 767.549L1360.85 767.6ZM1320.25 777L1316.28 776.533L1315.61 782.179L1321.15 780.897L1320.25 777ZM1323.05 753.2L1327.02 753.667L1327.66 748.233L1322.29 749.273L1323.05 753.2ZM1310.65 755.6L1309.89 751.673L1307.39 752.157L1306.77 754.63L1310.65 755.6ZM1306.45 772.4L1307.05 776.354L1309.68 775.954L1310.33 773.37L1306.45 772.4ZM1326.45 727.8L1327.19 731.731L1330.07 731.19L1330.42 728.276L1326.45 727.8ZM1335.05 656L1339.02 656.476L1339.56 652H1335.05V656ZM1334.85 656V652H1331.71L1330.96 655.05L1334.85 656ZM1316.85 729.6L1312.96 728.65L1311.49 734.675L1317.59 733.531L1316.85 729.6ZM1270.77 779.858C1289.36 732.391 1304.34 686.502 1315.72 642.195L1307.97 640.205C1296.69 684.164 1281.8 729.743 1263.32 776.942L1270.77 779.858ZM1312.5 645.146L1370.3 635.546L1368.99 627.654L1311.19 637.254L1312.5 645.146ZM1365.71 630.929C1359.12 669.632 1356.18 715.219 1356.85 767.651L1364.85 767.549C1364.18 715.448 1367.11 670.368 1373.59 632.271L1365.71 630.929ZM1359.95 763.703L1319.35 773.103L1321.15 780.897L1361.75 771.497L1359.95 763.703ZM1324.22 777.467L1327.02 753.667L1319.08 752.733L1316.28 776.533L1324.22 777.467ZM1322.29 749.273L1309.89 751.673L1311.41 759.527L1323.81 757.127L1322.29 749.273ZM1306.77 754.63L1302.57 771.43L1310.33 773.37L1314.53 756.57L1306.77 754.63ZM1305.85 768.446L1266.45 774.446L1267.65 782.354L1307.05 776.354L1305.85 768.446ZM1330.42 728.276L1339.02 656.476L1331.08 655.524L1322.48 727.324L1330.42 728.276ZM1335.05 652H1334.85V660H1335.05V652ZM1330.96 655.05L1312.96 728.65L1320.73 730.55L1338.73 656.95L1330.96 655.05ZM1317.59 733.531L1327.19 731.731L1325.71 723.869L1316.11 725.669L1317.59 733.531ZM1393.74 642.6L1392.94 638.68L1390.27 639.221L1389.8 641.909L1393.74 642.6ZM1426.34 636L1430.33 636.275L1430.69 631.038L1425.54 632.08L1426.34 636ZM1427.54 698L1423.55 698.325L1423.55 698.376L1423.56 698.426L1427.54 698ZM1430.54 716L1426.67 717.024L1434.48 716.682L1430.54 716ZM1443.34 642L1442.62 638.065L1439.87 638.568L1439.4 641.318L1443.34 642ZM1476.14 636L1480.01 637.008L1481.59 630.936L1475.42 632.065L1476.14 636ZM1450.34 767.8L1451.41 771.654L1454.02 770.926L1454.31 768.228L1450.34 767.8ZM1420.14 776.2H1416.14V781.464L1421.21 780.054L1420.14 776.2ZM1417.74 769.6L1413.96 770.913L1413.98 770.979L1414.01 771.044L1417.74 769.6ZM1407.94 741.4L1404.13 742.638L1404.15 742.676L1404.16 742.713L1407.94 741.4ZM1405.14 732.8L1408.94 731.562L1401.21 732.063L1405.14 732.8ZM1398.74 776.2L1399.89 780.031L1402.44 779.266L1402.72 776.617L1398.74 776.2ZM1368.74 785.2L1364.8 784.509L1363.68 790.894L1369.89 789.031L1368.74 785.2ZM1394.53 646.52L1427.13 639.92L1425.54 632.08L1392.94 638.68L1394.53 646.52ZM1422.35 635.725C1422.07 639.73 1421.94 645.372 1421.94 652.6H1429.94C1429.94 645.428 1430.07 640.003 1430.33 636.275L1422.35 635.725ZM1421.94 652.6C1421.94 669.877 1422.47 685.123 1423.55 698.325L1431.52 697.675C1430.47 684.743 1429.94 669.723 1429.94 652.6H1421.94ZM1423.56 698.426C1424.37 705.99 1425.4 712.214 1426.67 717.024L1434.4 714.976C1433.28 710.72 1432.3 704.943 1431.51 697.574L1423.56 698.426ZM1434.48 716.682L1447.28 642.682L1439.4 641.318L1426.6 715.318L1434.48 716.682ZM1444.06 645.935L1476.86 639.935L1475.42 632.065L1442.62 638.065L1444.06 645.935ZM1472.27 634.992C1459.04 685.78 1450.39 729.916 1446.36 767.372L1454.31 768.228C1458.29 731.284 1466.84 687.553 1480.01 637.008L1472.27 634.992ZM1449.27 763.946L1419.07 772.346L1421.21 780.054L1451.41 771.654L1449.27 763.946ZM1424.14 776.2C1424.14 775.559 1423.97 774.996 1423.96 774.979C1423.91 774.787 1423.85 774.587 1423.79 774.403C1423.67 774.029 1423.5 773.548 1423.3 772.983C1422.88 771.844 1422.27 770.23 1421.47 768.156L1414.01 771.044C1414.8 773.103 1415.39 774.656 1415.78 775.717C1415.97 776.252 1416.1 776.63 1416.18 776.872C1416.22 776.996 1416.24 777.045 1416.24 777.04C1416.23 777.039 1416.22 776.986 1416.2 776.899C1416.2 776.867 1416.14 776.583 1416.14 776.2H1424.14ZM1421.52 768.287L1411.72 740.087L1404.16 742.713L1413.96 770.913L1421.52 768.287ZM1411.74 740.162L1408.94 731.562L1401.33 734.038L1404.13 742.638L1411.74 740.162ZM1401.21 732.063C1398.39 747.094 1396.24 761.668 1394.76 775.783L1402.72 776.617C1404.17 762.732 1406.29 748.373 1409.07 733.537L1401.21 732.063ZM1397.59 772.369L1367.59 781.369L1369.89 789.031L1399.89 780.031L1397.59 772.369ZM1372.68 785.891L1397.68 643.291L1389.8 641.909L1364.8 784.509L1372.68 785.891ZM1455.33 778.4L1451.61 776.942L1449.08 783.398L1455.93 782.354L1455.33 778.4ZM1500.13 641.2L1499.47 637.254L1496.9 637.681L1496.26 640.205L1500.13 641.2ZM1557.93 631.6L1561.87 632.271L1562.82 626.734L1557.27 627.654L1557.93 631.6ZM1549.13 767.6L1550.03 771.497L1553.17 770.77L1553.13 767.549L1549.13 767.6ZM1508.53 777L1504.56 776.533L1503.89 782.179L1509.43 780.897L1508.53 777ZM1511.33 753.2L1515.3 753.667L1515.94 748.233L1510.57 749.273L1511.33 753.2ZM1498.93 755.6L1498.17 751.673L1495.67 752.157L1495.05 754.63L1498.93 755.6ZM1494.73 772.4L1495.33 776.354L1497.96 775.954L1498.61 773.37L1494.73 772.4ZM1514.73 727.8L1515.47 731.731L1518.35 731.19L1518.7 728.276L1514.73 727.8ZM1523.33 656L1527.3 656.476L1527.84 652H1523.33V656ZM1523.13 656V652H1519.99L1519.24 655.05L1523.13 656ZM1505.13 729.6L1501.24 728.65L1499.77 734.675L1505.87 733.531L1505.13 729.6ZM1459.05 779.858C1477.64 732.391 1492.63 686.502 1504 642.195L1496.26 640.205C1484.97 684.164 1470.09 729.743 1451.61 776.942L1459.05 779.858ZM1500.79 645.146L1558.59 635.546L1557.27 627.654L1499.47 637.254L1500.79 645.146ZM1553.99 630.929C1547.4 669.632 1544.46 715.219 1545.13 767.651L1553.13 767.549C1552.46 715.448 1555.39 670.368 1561.87 632.271L1553.99 630.929ZM1548.23 763.703L1507.63 773.103L1509.43 780.897L1550.03 771.497L1548.23 763.703ZM1512.5 777.467L1515.3 753.667L1507.36 752.733L1504.56 776.533L1512.5 777.467ZM1510.57 749.273L1498.17 751.673L1499.69 759.527L1512.09 757.127L1510.57 749.273ZM1495.05 754.63L1490.85 771.43L1498.61 773.37L1502.81 756.57L1495.05 754.63ZM1494.13 768.446L1454.73 774.446L1455.93 782.354L1495.33 776.354L1494.13 768.446ZM1518.7 728.276L1527.3 656.476L1519.36 655.524L1510.76 727.324L1518.7 728.276ZM1523.33 652H1523.13V660H1523.33V652ZM1519.24 655.05L1501.24 728.65L1509.02 730.55L1527.02 656.95L1519.24 655.05ZM1505.87 733.531L1515.47 731.731L1513.99 723.869L1504.39 725.669L1505.87 733.531ZM1580.62 642L1579.89 638.066L1577.15 638.571L1576.68 641.319L1580.62 642ZM1613.22 636L1617.09 637.001L1618.66 630.931L1612.49 632.066L1613.22 636ZM1592.22 733L1588.27 732.342L1587.36 737.809L1592.84 736.952L1592.22 733ZM1625.42 727.8L1629.41 728.117L1629.81 723.064L1624.8 723.848L1625.42 727.8ZM1622.62 763L1622.99 766.983L1626.34 766.671L1626.61 763.317L1622.62 763ZM1557.42 776.2L1553.48 775.519L1552.4 781.722L1558.48 780.058L1557.42 776.2ZM1581.34 645.934L1613.94 639.934L1612.49 632.066L1579.89 638.066L1581.34 645.934ZM1609.35 634.999C1600.26 670.157 1593.23 702.606 1588.27 732.342L1596.16 733.658C1601.07 704.194 1608.05 671.977 1617.09 637.001L1609.35 634.999ZM1592.84 736.952L1626.04 731.752L1624.8 723.848L1591.6 729.048L1592.84 736.952ZM1621.43 727.483L1618.63 762.683L1626.61 763.317L1629.41 728.117L1621.43 727.483ZM1622.25 759.017C1604.72 760.647 1582.74 765.112 1556.36 772.342L1558.48 780.058C1584.63 772.888 1606.11 768.553 1622.99 766.983L1622.25 759.017ZM1561.36 776.881L1584.56 642.681L1576.68 641.319L1553.48 775.519L1561.36 776.881Z" fill="#EEEEEE"/>
<path d="M570.65 770.006L568.588 769.851L568.502 771.917L568.002 783.917L567.962 784.876L568.686 785.508L588.186 802.508L591.346 805.263L591.499 801.073L592.499 773.573L592.569 771.65L590.65 771.506L570.65 770.006Z" fill="#3B0B39" stroke="#EEEEEE" stroke-width="4"/>
<path d="M446.478 778.4C465.011 731.067 479.945 685.333 491.278 641.2L549.078 631.6C542.545 670 539.611 715.333 540.278 767.6L499.678 777L502.478 753.2L490.078 755.6L485.878 772.4L446.478 778.4ZM505.878 727.8L514.478 656H514.278L496.278 729.6L505.878 727.8ZM616.122 632.8C629.189 632.8 638.855 639.933 645.122 654.2L623.722 677.8C620.655 674.733 617.255 673.2 613.522 673.2C606.722 673.2 599.722 678.933 592.522 690.4C586.789 699.867 582.989 708.733 581.122 717C580.322 720.867 579.922 724.4 579.922 727.6C579.789 736.133 582.855 741.933 589.122 745C591.255 746.067 593.455 746.6 595.722 746.6C602.255 746.6 609.122 741.733 616.322 732L622.322 754.6C609.655 768.467 596.922 775.4 584.122 775.4C570.922 775.4 561.322 768.467 555.322 754.6C551.722 746.467 549.989 737.4 550.122 727.4C550.122 720.067 550.989 712.267 552.722 704C556.722 687.2 563.922 671.867 574.322 658C587.122 641.2 601.055 632.8 616.122 632.8ZM618.744 778.4C637.277 731.067 652.21 685.333 663.544 641.2L721.344 631.6C714.81 670 711.877 715.333 712.544 767.6L671.944 777L674.744 753.2L662.344 755.6L658.144 772.4L618.744 778.4ZM678.144 727.8L686.744 656H686.544L668.544 729.6L678.144 727.8ZM744.433 642L777.033 636C763.966 686.667 755.366 730.6 751.233 767.8L721.233 776.2L744.433 642Z" fill="url(#paint1_linear_51_115)"/>
<path d="M446.478 778.4L442.753 776.942L440.225 783.398L447.08 782.354L446.478 778.4ZM491.278 641.2L490.623 637.254L488.052 637.681L487.404 640.205L491.278 641.2ZM549.078 631.6L553.021 632.271L553.964 626.734L548.423 627.654L549.078 631.6ZM540.278 767.6L541.18 771.497L544.319 770.77L544.278 767.549L540.278 767.6ZM499.678 777L495.706 776.533L495.041 782.179L500.58 780.897L499.678 777ZM502.478 753.2L506.451 753.667L507.09 748.233L501.718 749.273L502.478 753.2ZM490.078 755.6L489.318 751.673L486.816 752.157L486.198 754.63L490.078 755.6ZM485.878 772.4L486.48 776.354L489.113 775.954L489.759 773.37L485.878 772.4ZM505.878 727.8L506.615 731.731L509.501 731.19L509.85 728.276L505.878 727.8ZM514.478 656L518.45 656.476L518.986 652H514.478V656ZM514.278 656V652H511.139L510.393 655.05L514.278 656ZM496.278 729.6L492.393 728.65L490.919 734.675L497.015 733.531L496.278 729.6ZM450.203 779.858C468.789 732.391 483.774 686.502 495.152 642.195L487.404 640.205C476.115 684.164 461.234 729.743 442.753 776.942L450.203 779.858ZM491.934 645.146L549.734 635.546L548.423 627.654L490.623 637.254L491.934 645.146ZM545.135 630.929C538.55 669.632 535.61 715.219 536.278 767.651L544.278 767.549C543.613 715.448 546.54 670.368 553.021 632.271L545.135 630.929ZM539.376 763.703L498.776 773.103L500.58 780.897L541.18 771.497L539.376 763.703ZM503.651 777.467L506.451 753.667L498.506 752.733L495.706 776.533L503.651 777.467ZM501.718 749.273L489.318 751.673L490.838 759.527L503.238 757.127L501.718 749.273ZM486.198 754.63L481.998 771.43L489.759 773.37L493.959 756.57L486.198 754.63ZM485.276 768.446L445.876 774.446L447.08 782.354L486.48 776.354L485.276 768.446ZM509.85 728.276L518.45 656.476L510.507 655.524L501.907 727.324L509.85 728.276ZM514.478 652H514.278V660H514.478V652ZM510.393 655.05L492.393 728.65L500.164 730.55L518.164 656.95L510.393 655.05ZM497.015 733.531L506.615 731.731L505.141 723.869L495.541 725.669L497.015 733.531ZM645.122 654.2L648.085 656.887L649.827 654.966L648.784 652.591L645.122 654.2ZM623.722 677.8L620.893 680.628L623.864 683.599L626.685 680.487L623.722 677.8ZM592.522 690.4L589.134 688.273L589.117 688.3L589.1 688.328L592.522 690.4ZM581.122 717L577.22 716.119L577.212 716.154L577.205 716.19L581.122 717ZM579.922 727.6L583.921 727.662L583.922 727.631V727.6H579.922ZM589.122 745L590.911 741.422L590.895 741.415L590.88 741.407L589.122 745ZM616.322 732L620.188 730.974L618.053 722.933L613.106 729.621L616.322 732ZM622.322 754.6L625.275 757.298L626.748 755.685L626.188 753.574L622.322 754.6ZM555.322 754.6L558.993 753.012L558.986 752.996L558.98 752.981L555.322 754.6ZM550.122 727.4L554.122 727.453L554.122 727.427V727.4H550.122ZM552.722 704L548.831 703.074L548.818 703.126L548.807 703.179L552.722 704ZM574.322 658L571.14 655.576L571.131 655.588L571.122 655.6L574.322 658ZM616.122 636.8C621.88 636.8 626.712 638.355 630.797 641.369C634.925 644.415 638.526 649.13 641.46 655.809L648.784 652.591C645.451 645.004 641.086 639.019 635.547 634.931C629.965 630.812 623.431 628.8 616.122 628.8V636.8ZM642.159 651.513L620.759 675.113L626.685 680.487L648.085 656.887L642.159 651.513ZM626.55 674.972C622.865 671.286 618.488 669.2 613.522 669.2V677.2C616.022 677.2 618.446 678.181 620.893 680.628L626.55 674.972ZM613.522 669.2C608.931 669.2 604.615 671.148 600.637 674.405C596.68 677.646 592.862 682.336 589.134 688.273L595.909 692.527C599.382 686.997 602.663 683.087 605.706 680.595C608.729 678.119 611.312 677.2 613.522 677.2V669.2ZM589.1 688.328C583.208 698.057 579.206 707.326 577.22 716.119L585.024 717.881C586.771 710.141 590.369 701.677 595.943 692.472L589.1 688.328ZM577.205 716.19C576.362 720.264 575.922 724.073 575.922 727.6H583.922C583.922 724.727 584.282 721.47 585.039 717.81L577.205 716.19ZM575.922 727.538C575.848 732.28 576.657 736.572 578.586 740.22C580.54 743.916 583.522 746.713 587.364 748.593L590.88 741.407C588.456 740.221 586.77 738.584 585.658 736.48C584.52 734.328 583.862 731.453 583.921 727.662L575.922 727.538ZM587.333 748.578C589.992 749.907 592.802 750.6 595.722 750.6V742.6C594.109 742.6 592.518 742.226 590.911 741.422L587.333 748.578ZM595.722 750.6C604.281 750.6 612.192 744.31 619.538 734.379L613.106 729.621C606.052 739.157 600.229 742.6 595.722 742.6V750.6ZM612.456 733.026L618.456 755.626L626.188 753.574L620.188 730.974L612.456 733.026ZM619.369 751.902C607.102 765.331 595.359 771.4 584.122 771.4V779.4C598.485 779.4 612.209 771.602 625.275 757.298L619.369 751.902ZM584.122 771.4C578.262 771.4 573.405 769.876 569.364 766.957C565.288 764.014 561.785 759.463 558.993 753.012L551.651 756.188C554.859 763.603 559.156 769.453 564.68 773.443C570.239 777.458 576.782 779.4 584.122 779.4V771.4ZM558.98 752.981C555.64 745.436 553.995 736.95 554.122 727.453L546.122 727.347C545.982 737.85 547.804 747.497 551.664 756.219L558.98 752.981ZM554.122 727.4C554.122 720.38 554.952 712.857 556.637 704.821L548.807 703.179C547.025 711.676 546.122 719.753 546.122 727.4H554.122ZM556.613 704.926C560.486 688.662 567.45 673.83 577.522 660.4L571.122 655.6C560.394 669.904 552.958 685.738 548.831 703.074L556.613 704.926ZM577.504 660.424C589.87 644.194 602.754 636.8 616.122 636.8V628.8C599.356 628.8 584.374 638.206 571.14 655.576L577.504 660.424ZM618.744 778.4L615.019 776.942L612.491 783.398L619.346 782.354L618.744 778.4ZM663.544 641.2L662.888 637.254L660.318 637.681L659.669 640.205L663.544 641.2ZM721.344 631.6L725.287 632.271L726.229 626.734L720.688 627.654L721.344 631.6ZM712.544 767.6L713.446 771.497L716.585 770.77L716.543 767.549L712.544 767.6ZM671.944 777L667.971 776.533L667.307 782.179L672.846 780.897L671.944 777ZM674.744 753.2L678.716 753.667L679.356 748.233L673.984 749.273L674.744 753.2ZM662.344 755.6L661.584 751.673L659.081 752.157L658.463 754.63L662.344 755.6ZM658.144 772.4L658.746 776.354L661.378 775.954L662.024 773.37L658.144 772.4ZM678.144 727.8L678.881 731.731L681.766 731.19L682.115 728.276L678.144 727.8ZM686.744 656L690.715 656.476L691.251 652H686.744V656ZM686.544 656V652H683.404L682.658 655.05L686.544 656ZM668.544 729.6L664.658 728.65L663.185 734.675L669.281 733.531L668.544 729.6ZM622.468 779.858C641.054 732.391 656.04 686.502 667.418 642.195L659.669 640.205C648.381 684.164 633.5 729.743 615.019 776.942L622.468 779.858ZM664.199 645.146L721.999 635.546L720.688 627.654L662.888 637.254L664.199 645.146ZM717.4 630.929C710.815 669.632 707.875 715.219 708.544 767.651L716.543 767.549C715.879 715.448 718.805 670.368 725.287 632.271L717.4 630.929ZM711.642 763.703L671.042 773.103L672.846 780.897L713.446 771.497L711.642 763.703ZM675.916 777.467L678.716 753.667L670.771 752.733L667.971 776.533L675.916 777.467ZM673.984 749.273L661.584 751.673L663.104 759.527L675.504 757.127L673.984 749.273ZM658.463 754.63L654.263 771.43L662.024 773.37L666.224 756.57L658.463 754.63ZM657.542 768.446L618.142 774.446L619.346 782.354L658.746 776.354L657.542 768.446ZM682.115 728.276L690.715 656.476L682.772 655.524L674.172 727.324L682.115 728.276ZM686.744 652H686.544V660H686.744V652ZM682.658 655.05L664.658 728.65L672.429 730.55L690.429 656.95L682.658 655.05ZM669.281 733.531L678.881 731.731L677.407 723.869L667.807 725.669L669.281 733.531ZM744.433 642L743.709 638.066L740.966 638.571L740.491 641.319L744.433 642ZM777.033 636L780.906 636.999L782.471 630.932L776.309 632.066L777.033 636ZM751.233 767.8L752.311 771.652L754.91 770.924L755.208 768.242L751.233 767.8ZM721.233 776.2L717.291 775.519L716.212 781.76L722.311 780.052L721.233 776.2ZM745.157 645.934L777.757 639.934L776.309 632.066L743.709 638.066L745.157 645.934ZM773.16 635.001C760.063 685.785 751.418 729.913 747.257 767.358L755.208 768.242C759.314 731.287 767.87 687.549 780.906 636.999L773.16 635.001ZM750.154 763.948L720.154 772.348L722.311 780.052L752.311 771.652L750.154 763.948ZM725.174 776.881L748.374 642.681L740.491 641.319L717.291 775.519L725.174 776.881Z" fill="#EEEEEE"/>
<path d="M748.775 619.562L747.364 619.828L747.165 621.25L745.635 632.148L745.248 634.906L747.986 634.391L777.353 628.863L778.764 628.598L778.963 627.176L780.493 616.278L780.88 613.519L778.142 614.034L748.775 619.562Z" fill="#652063" stroke="#EEEEEE" stroke-width="4"/>
<path d="M904.48 512.96L924.04 509C923.88 511.32 923.8 514.64 923.8 518.96C923.8 529.28 924.12 538.36 924.76 546.2C925.24 550.68 925.84 554.28 926.56 557L934.24 512.6L953.92 509C946 539.4 940.84 565.76 938.44 588.08L920.32 593.12C920.32 592.96 919.84 591.64 918.88 589.16L913 572.24L911.32 567.08C909.64 576.04 908.36 584.72 907.48 593.12L889.48 598.52L904.48 512.96ZM992.195 503.96C1000.2 503.96 1005.88 508.44 1009.24 517.4C1011 522.04 1011.88 527.12 1011.88 532.64C1011.88 538 1011.04 543.76 1009.36 549.92C1006.64 560.56 1001.8 570.36 994.835 579.32C986.435 590.28 977.515 595.76 968.075 595.76C959.995 595.76 954.235 591.28 950.795 582.32C949.195 577.92 948.355 573 948.275 567.56C948.355 562.12 949.235 556.24 950.915 549.92C953.715 539.28 958.515 529.48 965.315 520.52C973.715 509.48 982.675 503.96 992.195 503.96ZM987.995 532.16C983.835 532.16 979.595 535.6 975.275 542.48C971.755 547.84 969.315 553.12 967.955 558.32C967.235 561.04 966.915 563.48 966.995 565.64C966.995 568.76 967.755 571.32 969.275 573.32C971.035 575.48 973.475 576.56 976.595 576.56C980.835 576.56 984.635 574.32 987.995 569.84C990.795 566.32 992.795 562.12 993.995 557.24C995.355 551.56 995.635 545.96 994.835 540.44C993.955 534.92 991.675 532.16 987.995 532.16ZM1023.17 512.48C1035.01 508.96 1044.73 507.2 1052.33 507.2C1062.57 507.2 1067.65 510.76 1067.57 517.88C1067.49 528.12 1061.05 538.4 1048.25 548.72C1049.37 551.6 1053.77 560.68 1061.45 575.96C1057.53 579.56 1051.61 584.88 1043.69 591.92L1031.45 560.6C1029.53 570.52 1028.09 579.68 1027.13 588.08L1009.37 593.12C1009.53 591.44 1010.33 586.4 1011.77 578L1023.17 512.48ZM1037.45 530.48C1036.73 533.04 1036.09 535.64 1035.53 538.28L1034.09 545.96C1036.73 544.6 1039.33 542.84 1041.89 540.68C1044.93 538.04 1046.89 535.56 1047.77 533.24C1048.09 532.52 1048.29 531.88 1048.37 531.32C1048.29 529.64 1047.17 528.8 1045.01 528.8C1043.25 528.8 1040.73 529.36 1037.45 530.48ZM1119.84 507.8L1119.24 529.04C1114.04 529.36 1109.04 529.72 1104.24 530.12C1099.2 551.16 1095.84 570.48 1094.16 588.08L1074.84 593.12L1085.28 532.52C1083.12 532.84 1081.08 533.2 1079.16 533.6L1073.16 534.68L1071.84 513.44L1119.84 507.8ZM1143.31 529.64C1142.75 531.8 1142.23 533.96 1141.75 536.12L1140.55 542.36L1158.79 538.52L1157.71 554.24C1148.99 555.68 1142.19 557 1137.31 558.2C1136.99 559.72 1136.71 561.24 1136.47 562.76L1135.63 567.2L1156.87 564.08L1155.43 585.2C1144.47 586.16 1130.63 588.8 1113.91 593.12L1127.47 511.52L1165.15 506L1163.71 527.12C1156.35 527.76 1149.55 528.6 1143.31 529.64Z" fill="url(#paint2_linear_51_115)"/>
<path d="M904.48 512.96L903.686 509.04L901.011 509.581L900.54 512.269L904.48 512.96ZM924.04 509L928.031 509.275L928.392 504.038L923.246 505.08L924.04 509ZM924.76 546.2L920.773 546.525L920.777 546.576L920.783 546.626L924.76 546.2ZM926.56 557L922.693 558.024L930.501 557.682L926.56 557ZM934.24 512.6L933.52 508.665L930.774 509.168L930.299 511.918L934.24 512.6ZM953.92 509L957.791 510.008L959.373 503.936L953.2 505.065L953.92 509ZM938.44 588.08L939.512 591.934L942.127 591.206L942.417 588.508L938.44 588.08ZM920.32 593.12H916.32V598.384L921.392 596.974L920.32 593.12ZM918.88 589.16L915.102 590.473L915.125 590.539L915.15 590.604L918.88 589.16ZM913 572.24L909.197 573.478L909.209 573.516L909.222 573.553L913 572.24ZM911.32 567.08L915.123 565.842L907.389 566.343L911.32 567.08ZM907.48 593.12L908.629 596.951L911.181 596.186L911.458 593.537L907.48 593.12ZM889.48 598.52L885.54 597.829L884.421 604.214L890.629 602.351L889.48 598.52ZM905.274 516.88L924.834 512.92L923.246 505.08L903.686 509.04L905.274 516.88ZM920.049 508.725C919.88 511.183 919.8 514.612 919.8 518.96H927.8C927.8 514.668 927.88 511.457 928.031 509.275L920.049 508.725ZM919.8 518.96C919.8 529.357 920.122 538.55 920.773 546.525L928.747 545.875C928.118 538.17 927.8 529.203 927.8 518.96H919.8ZM920.783 546.626C921.273 551.203 921.9 555.027 922.693 558.024L930.427 555.976C929.78 553.533 929.207 550.157 928.737 545.774L920.783 546.626ZM930.501 557.682L938.181 513.282L930.299 511.918L922.619 556.318L930.501 557.682ZM934.96 516.535L954.64 512.935L953.2 505.065L933.52 508.665L934.96 516.535ZM950.049 507.992C942.098 538.513 936.89 565.076 934.463 587.652L942.417 588.508C944.79 566.444 949.902 540.287 957.791 510.008L950.049 507.992ZM937.368 584.226L919.248 589.266L921.392 596.974L939.512 591.934L937.368 584.226ZM924.32 593.12C924.32 592.71 924.255 592.387 924.239 592.304C924.212 592.167 924.183 592.051 924.162 591.975C924.121 591.82 924.074 591.67 924.035 591.548C923.953 591.297 923.845 590.988 923.719 590.643C923.465 589.944 923.093 588.963 922.61 587.716L915.15 590.604C915.627 591.837 915.975 592.756 916.201 593.377C916.315 593.692 916.387 593.898 916.425 594.017C916.446 594.08 916.444 594.078 916.433 594.036C916.427 594.016 916.409 593.947 916.39 593.848C916.381 593.804 916.32 593.51 916.32 593.12H924.32ZM922.658 587.847L916.778 570.927L909.222 573.553L915.102 590.473L922.658 587.847ZM916.803 571.002L915.123 565.842L907.517 568.318L909.197 573.478L916.803 571.002ZM907.389 566.343C905.69 575.401 904.394 584.188 903.502 592.703L911.458 593.537C912.326 585.252 913.59 576.679 915.251 567.817L907.389 566.343ZM906.331 589.289L888.331 594.689L890.629 602.351L908.629 596.951L906.331 589.289ZM893.42 599.211L908.42 513.651L900.54 512.269L885.54 597.829L893.42 599.211ZM1009.24 517.4L1005.49 518.804L1005.49 518.812L1005.5 518.819L1009.24 517.4ZM1009.36 549.92L1005.5 548.868L1005.49 548.898L1005.48 548.929L1009.36 549.92ZM994.835 579.32L991.676 576.866L991.668 576.876L991.661 576.887L994.835 579.32ZM950.795 582.32L947.036 583.687L947.048 583.72L947.061 583.754L950.795 582.32ZM948.275 567.56L944.276 567.501L944.275 567.56L944.276 567.619L948.275 567.56ZM950.915 549.92L954.781 550.948L954.784 550.938L950.915 549.92ZM965.315 520.52L962.132 518.098L962.129 518.102L965.315 520.52ZM975.275 542.48L978.619 544.676L978.641 544.642L978.663 544.607L975.275 542.48ZM967.955 558.32L971.822 559.344L971.825 559.332L967.955 558.32ZM966.995 565.64H970.995V565.566L970.993 565.492L966.995 565.64ZM969.275 573.32L966.091 575.74L966.132 575.794L966.174 575.847L969.275 573.32ZM987.995 569.84L984.865 567.35L984.829 567.394L984.795 567.44L987.995 569.84ZM993.995 557.24L997.88 558.195L997.883 558.183L997.885 558.171L993.995 557.24ZM994.835 540.44L998.794 539.866L998.79 539.838L998.785 539.81L994.835 540.44ZM992.195 507.96C995.397 507.96 997.919 508.837 999.978 510.461C1002.09 512.125 1003.99 514.793 1005.49 518.804L1012.98 515.995C1011.12 511.047 1008.5 506.995 1004.93 504.179C1001.31 501.323 996.993 499.96 992.195 499.96V507.96ZM1005.5 518.819C1007.07 522.957 1007.88 527.55 1007.88 532.64H1015.88C1015.88 526.69 1014.93 521.123 1012.98 515.981L1005.5 518.819ZM1007.88 532.64C1007.88 537.584 1007.1 542.987 1005.5 548.868L1013.21 550.972C1014.97 544.533 1015.88 538.416 1015.88 532.64H1007.88ZM1005.48 548.929C1002.9 559.02 998.311 568.325 991.676 576.866L997.994 581.774C1005.28 572.395 1010.37 562.1 1013.23 550.911L1005.48 548.929ZM991.661 576.887C983.652 587.336 975.773 591.76 968.075 591.76V599.76C979.257 599.76 989.219 593.224 998.01 581.753L991.661 576.887ZM968.075 591.76C964.824 591.76 962.253 590.878 960.151 589.243C958.001 587.57 956.069 584.895 954.53 580.886L947.061 583.754C948.962 588.705 951.63 592.75 955.24 595.557C958.897 598.402 963.247 599.76 968.075 599.76V591.76ZM954.554 580.953C953.13 577.034 952.349 572.566 952.275 567.501L944.276 567.619C944.361 573.434 945.261 578.806 947.036 583.687L954.554 580.953ZM952.275 567.619C952.349 562.564 953.169 557.013 954.781 550.948L947.05 548.892C945.302 555.467 944.361 561.676 944.276 567.501L952.275 567.619ZM954.784 550.938C957.447 540.816 962.011 531.49 968.502 522.938L962.129 518.102C955.019 527.47 949.983 537.744 947.047 548.902L954.784 550.938ZM968.499 522.942C976.504 512.421 984.421 507.96 992.195 507.96V499.96C980.93 499.96 970.927 506.539 962.132 518.098L968.499 522.942ZM987.995 528.16C981.56 528.16 976.279 533.359 971.888 540.353L978.663 544.607C982.911 537.841 986.111 536.16 987.995 536.16V528.16ZM971.932 540.284C968.218 545.939 965.574 551.615 964.085 557.308L971.825 559.332C973.056 554.625 975.293 549.741 978.619 544.676L971.932 540.284ZM964.088 557.296C963.296 560.29 962.9 563.135 962.998 565.788L970.993 565.492C970.931 563.825 971.175 561.79 971.822 559.344L964.088 557.296ZM962.995 565.64C962.995 569.419 963.925 572.89 966.091 575.74L972.46 570.9C971.586 569.75 970.995 568.101 970.995 565.64H962.995ZM966.174 575.847C968.791 579.058 972.436 580.56 976.595 580.56V572.56C974.515 572.56 973.279 571.902 972.376 570.793L966.174 575.847ZM976.595 580.56C982.477 580.56 987.344 577.376 991.195 572.24L984.795 567.44C981.927 571.264 979.194 572.56 976.595 572.56V580.56ZM991.126 572.33C994.325 568.308 996.558 563.569 997.88 558.195L990.111 556.285C989.032 560.671 987.266 564.332 984.865 567.35L991.126 572.33ZM997.885 558.171C999.358 552.022 999.67 545.911 998.794 539.866L990.877 541.014C991.601 546.009 991.353 551.098 990.105 556.309L997.885 558.171ZM998.785 539.81C998.291 536.706 997.331 533.839 995.549 531.682C993.625 529.353 990.99 528.16 987.995 528.16V536.16C988.681 536.16 989.026 536.347 989.381 536.778C989.88 537.381 990.5 538.654 990.885 541.07L998.785 539.81ZM1023.17 512.48L1022.03 508.646L1019.65 509.352L1019.23 511.794L1023.17 512.48ZM1067.57 517.88L1063.57 517.835L1063.57 517.849L1067.57 517.88ZM1048.25 548.72L1045.74 545.606L1043.46 547.443L1044.52 550.17L1048.25 548.72ZM1061.45 575.96L1064.15 578.906L1066.38 576.863L1065.02 574.164L1061.45 575.96ZM1043.69 591.92L1039.96 593.376L1042.05 598.725L1046.35 594.91L1043.69 591.92ZM1031.45 560.6L1035.17 559.144L1030.15 546.278L1027.52 559.84L1031.45 560.6ZM1027.13 588.08L1028.22 591.928L1030.8 591.196L1031.1 588.534L1027.13 588.08ZM1009.37 593.12L1005.39 592.741L1004.83 598.565L1010.46 596.968L1009.37 593.12ZM1011.77 578L1007.83 577.314L1007.83 577.324L1011.77 578ZM1037.45 530.48L1036.16 526.695L1034.17 527.374L1033.6 529.397L1037.45 530.48ZM1035.53 538.28L1031.62 537.45L1031.61 537.496L1031.6 537.543L1035.53 538.28ZM1034.09 545.96L1030.16 545.223L1028.65 553.261L1035.92 549.516L1034.09 545.96ZM1041.89 540.68L1044.47 543.737L1044.49 543.719L1044.51 543.7L1041.89 540.68ZM1047.77 533.24L1044.11 531.615L1044.07 531.717L1044.03 531.821L1047.77 533.24ZM1048.37 531.32L1052.33 531.886L1052.38 531.509L1052.36 531.13L1048.37 531.32ZM1024.31 516.314C1035.98 512.845 1045.28 511.2 1052.33 511.2V503.2C1044.18 503.2 1034.04 505.075 1022.03 508.646L1024.31 516.314ZM1052.33 511.2C1057.11 511.2 1059.97 512.055 1061.52 513.146C1062.81 514.047 1063.6 515.369 1063.57 517.835L1071.57 517.925C1071.62 513.271 1069.91 509.253 1066.11 506.594C1062.59 504.125 1057.79 503.2 1052.33 503.2V511.2ZM1063.57 517.849C1063.5 526.319 1058.17 535.586 1045.74 545.606L1050.76 551.834C1063.93 541.214 1071.47 529.921 1071.57 517.911L1063.57 517.849ZM1044.52 550.17C1045.73 553.275 1050.24 562.575 1057.87 577.756L1065.02 574.164C1057.29 558.785 1053.01 549.925 1051.98 547.27L1044.52 550.17ZM1058.74 573.014C1054.85 576.591 1048.95 581.894 1041.03 588.93L1046.35 594.91C1054.27 587.866 1060.21 582.529 1064.15 578.906L1058.74 573.014ZM1047.41 590.464L1035.17 559.144L1027.72 562.056L1039.96 593.376L1047.41 590.464ZM1027.52 559.84C1025.59 569.842 1024.13 579.106 1023.15 587.626L1031.1 588.534C1032.05 580.254 1033.47 571.198 1035.38 561.36L1027.52 559.84ZM1026.04 584.232L1008.28 589.272L1010.46 596.968L1028.22 591.928L1026.04 584.232ZM1013.35 593.499C1013.49 592.007 1014.26 587.153 1015.71 578.676L1007.83 577.324C1006.4 585.647 1005.56 590.873 1005.39 592.741L1013.35 593.499ZM1015.71 578.686L1027.11 513.166L1019.23 511.794L1007.83 577.314L1015.71 578.686ZM1033.6 529.397C1032.85 532.042 1032.19 534.726 1031.62 537.45L1039.44 539.11C1039.98 536.554 1040.6 534.038 1041.3 531.563L1033.6 529.397ZM1031.6 537.543L1030.16 545.223L1038.02 546.697L1039.46 539.017L1031.6 537.543ZM1035.92 549.516C1038.86 548.002 1041.71 546.067 1044.47 543.737L1039.31 537.623C1036.95 539.613 1034.6 541.198 1032.26 542.404L1035.92 549.516ZM1044.51 543.7C1047.77 540.867 1050.29 537.867 1051.51 534.659L1044.03 531.821C1043.49 533.253 1042.08 535.213 1039.27 537.66L1044.51 543.7ZM1051.42 534.865C1051.84 533.929 1052.18 532.923 1052.33 531.886L1044.41 530.754C1044.4 530.837 1044.34 531.111 1044.11 531.615L1051.42 534.865ZM1052.36 531.13C1052.28 529.364 1051.58 527.51 1049.87 526.23C1048.33 525.077 1046.51 524.8 1045.01 524.8V532.8C1045.3 532.8 1045.43 532.83 1045.44 532.832C1045.45 532.834 1045.29 532.794 1045.07 532.63C1044.83 532.453 1044.63 532.208 1044.5 531.937C1044.38 531.685 1044.37 531.514 1044.37 531.51L1052.36 531.13ZM1045.01 524.8C1042.56 524.8 1039.53 525.542 1036.16 526.695L1038.74 534.265C1041.93 533.178 1043.93 532.8 1045.01 532.8V524.8ZM1119.84 507.8L1123.84 507.913L1123.97 503.287L1119.37 503.827L1119.84 507.8ZM1119.24 529.04L1119.48 533.032L1123.13 532.808L1123.24 529.153L1119.24 529.04ZM1104.24 530.12L1103.9 526.134L1101.02 526.374L1100.35 529.188L1104.24 530.12ZM1094.16 588.08L1095.17 591.95L1097.87 591.244L1098.14 588.46L1094.16 588.08ZM1074.84 593.12L1070.89 592.441L1069.84 598.557L1075.85 596.99L1074.84 593.12ZM1085.28 532.52L1089.22 533.199L1090.16 527.753L1084.69 528.563L1085.28 532.52ZM1079.16 533.6L1079.87 537.537L1079.92 537.527L1079.97 537.516L1079.16 533.6ZM1073.16 534.68L1069.16 534.928L1069.44 539.413L1073.87 538.617L1073.16 534.68ZM1071.84 513.44L1071.37 509.467L1067.61 509.909L1067.84 513.688L1071.84 513.44ZM1115.84 507.687L1115.24 528.927L1123.24 529.153L1123.84 507.913L1115.84 507.687ZM1118.99 525.048C1113.76 525.369 1108.74 525.731 1103.9 526.134L1104.57 534.106C1109.34 533.709 1114.31 533.351 1119.48 533.032L1118.99 525.048ZM1100.35 529.188C1095.27 550.371 1091.88 569.878 1090.17 587.7L1098.14 588.46C1099.8 571.082 1103.12 551.949 1108.13 531.052L1100.35 529.188ZM1093.15 584.21L1073.83 589.25L1075.85 596.99L1095.17 591.95L1093.15 584.21ZM1078.78 593.799L1089.22 533.199L1081.33 531.841L1070.89 592.441L1078.78 593.799ZM1084.69 528.563C1082.46 528.893 1080.35 529.267 1078.34 529.684L1079.97 537.516C1081.81 537.133 1083.77 536.787 1085.86 536.477L1084.69 528.563ZM1078.45 529.663L1072.45 530.743L1073.87 538.617L1079.87 537.537L1078.45 529.663ZM1077.15 534.432L1075.83 513.192L1067.84 513.688L1069.16 534.928L1077.15 534.432ZM1072.3 517.413L1120.3 511.773L1119.37 503.827L1071.37 509.467L1072.3 517.413ZM1143.31 529.64L1142.65 525.694L1140.09 526.121L1139.44 528.636L1143.31 529.64ZM1141.75 536.12L1137.85 535.252L1137.83 535.308L1137.82 535.365L1141.75 536.12ZM1140.55 542.36L1136.62 541.605L1135.49 547.514L1141.37 546.274L1140.55 542.36ZM1158.79 538.52L1162.78 538.794L1163.14 533.516L1157.97 534.606L1158.79 538.52ZM1157.71 554.24L1158.36 558.187L1161.48 557.671L1161.7 554.514L1157.71 554.24ZM1137.31 558.2L1136.36 554.316L1133.91 554.916L1133.4 557.376L1137.31 558.2ZM1136.47 562.76L1140.4 563.504L1140.41 563.444L1140.42 563.384L1136.47 562.76ZM1135.63 567.2L1131.7 566.456L1130.66 571.974L1136.21 571.158L1135.63 567.2ZM1156.87 564.08L1160.86 564.352L1161.2 559.401L1156.29 560.122L1156.87 564.08ZM1155.43 585.2L1155.78 589.185L1159.19 588.886L1159.42 585.472L1155.43 585.2ZM1113.91 593.12L1109.97 592.464L1108.96 598.531L1114.91 596.993L1113.91 593.12ZM1127.47 511.52L1126.89 507.562L1124 507.985L1123.53 510.864L1127.47 511.52ZM1165.15 506L1169.14 506.272L1169.48 501.323L1164.57 502.042L1165.15 506ZM1163.71 527.12L1164.06 531.105L1167.47 530.808L1167.7 527.392L1163.71 527.12ZM1139.44 528.636C1138.87 530.841 1138.34 533.046 1137.85 535.252L1145.66 536.988C1146.13 534.874 1146.63 532.759 1147.18 530.644L1139.44 528.636ZM1137.82 535.365L1136.62 541.605L1144.48 543.115L1145.68 536.875L1137.82 535.365ZM1141.37 546.274L1159.61 542.434L1157.97 534.606L1139.73 538.446L1141.37 546.274ZM1154.8 538.246L1153.72 553.966L1161.7 554.514L1162.78 538.794L1154.8 538.246ZM1157.06 550.293C1148.3 551.74 1141.38 553.079 1136.36 554.316L1138.27 562.084C1143 560.921 1149.68 559.62 1158.36 558.187L1157.06 550.293ZM1133.4 557.376C1133.06 558.962 1132.77 560.548 1132.52 562.136L1140.42 563.384C1140.65 561.932 1140.92 560.478 1141.23 559.024L1133.4 557.376ZM1132.54 562.016L1131.7 566.456L1139.56 567.944L1140.4 563.504L1132.54 562.016ZM1136.21 571.158L1157.45 568.038L1156.29 560.122L1135.05 563.242L1136.21 571.158ZM1152.88 563.808L1151.44 584.928L1159.42 585.472L1160.86 564.352L1152.88 563.808ZM1155.08 581.215C1143.81 582.202 1129.74 584.899 1112.91 589.247L1114.91 596.993C1131.52 592.701 1145.13 590.118 1155.78 589.185L1155.08 581.215ZM1117.86 593.776L1131.42 512.176L1123.53 510.864L1109.97 592.464L1117.86 593.776ZM1128.05 515.478L1165.73 509.958L1164.57 502.042L1126.89 507.562L1128.05 515.478ZM1161.16 505.728L1159.72 526.848L1167.7 527.392L1169.14 506.272L1161.16 505.728ZM1163.36 523.135C1155.92 523.783 1149.01 524.635 1142.65 525.694L1143.97 533.586C1150.09 532.565 1156.78 531.737 1164.06 531.105L1163.36 523.135Z" fill="#EEEEEE"/>
<path d="M782.96 593.72C793.12 567.72 800.84 541.28 806.12 514.4L833.36 509.96L829.52 551.84L840.08 513.2L866.24 508.64C863.2 533.36 861.64 555.68 861.56 575.6C861.64 579.52 861.68 583.44 861.68 587.36L838.4 591.44L842.48 541.52L827.6 596.72L814.88 598.52L822.68 528.32L806.36 590.48L782.96 593.72Z" fill="url(#paint3_linear_51_115)"/>
<path d="M782.96 593.72L779.234 592.264L776.752 598.618L783.509 597.682L782.96 593.72ZM806.12 514.4L805.477 510.452L802.731 510.9L802.195 513.629L806.12 514.4ZM833.36 509.96L837.343 510.325L837.815 505.181L832.717 506.012L833.36 509.96ZM829.52 551.84L825.537 551.475L833.379 552.894L829.52 551.84ZM840.08 513.2L839.393 509.259L836.891 509.696L836.222 512.146L840.08 513.2ZM866.24 508.64L870.21 509.128L870.869 503.773L865.553 504.699L866.24 508.64ZM861.56 575.6L857.56 575.584L857.56 575.633L857.561 575.682L861.56 575.6ZM861.68 587.36L862.371 591.3L865.68 590.72V587.36H861.68ZM838.4 591.44L834.413 591.114L833.992 596.274L839.091 595.38L838.4 591.44ZM842.48 541.52L846.467 541.846L838.618 540.479L842.48 541.52ZM827.6 596.72L828.16 600.681L830.775 600.311L831.462 597.761L827.6 596.72ZM814.88 598.52L810.904 598.078L810.335 603.203L815.44 602.481L814.88 598.52ZM822.68 528.32L826.656 528.762L818.811 527.304L822.68 528.32ZM806.36 590.48L806.909 594.442L809.551 594.076L810.229 591.496L806.36 590.48ZM786.686 595.176C796.931 568.958 804.718 542.289 810.045 515.171L802.195 513.629C796.962 540.271 789.309 566.482 779.234 592.264L786.686 595.176ZM806.763 518.348L834.003 513.908L832.717 506.012L805.477 510.452L806.763 518.348ZM829.377 509.595L825.537 551.475L833.503 552.205L837.343 510.325L829.377 509.595ZM833.379 552.894L843.939 514.254L836.222 512.146L825.662 550.785L833.379 552.894ZM840.767 517.141L866.927 512.581L865.553 504.699L839.393 509.259L840.767 517.141ZM862.27 508.152C859.215 532.992 857.641 555.473 857.56 575.584L865.56 575.616C865.639 555.887 867.185 533.728 870.21 509.128L862.27 508.152ZM857.561 575.682C857.64 579.574 857.68 583.467 857.68 587.36H865.68C865.68 583.413 865.64 579.466 865.559 575.518L857.561 575.682ZM860.99 583.42L837.709 587.5L839.091 595.38L862.371 591.3L860.99 583.42ZM842.387 591.766L846.467 541.846L838.493 541.194L834.413 591.114L842.387 591.766ZM838.618 540.479L823.738 595.679L831.462 597.761L846.342 542.561L838.618 540.479ZM827.04 592.759L814.32 594.559L815.44 602.481L828.16 600.681L827.04 592.759ZM818.856 598.962L826.656 528.762L818.704 527.878L810.904 598.078L818.856 598.962ZM818.811 527.304L802.491 589.464L810.229 591.496L826.549 529.336L818.811 527.304ZM805.811 586.518L782.411 589.758L783.509 597.682L806.909 594.442L805.811 586.518Z" fill="#EEEEEE"/>
<path d="M1599.25 296.2C1597.38 302.5 1595.75 308.8 1594.35 315.1L1590.85 333.3L1644.05 322.1L1640.9 367.95C1615.47 372.15 1595.63 376 1581.4 379.5C1580.47 383.933 1579.65 388.367 1578.95 392.8L1576.5 405.75L1638.45 396.65L1634.25 458.25C1602.28 461.05 1561.92 468.75 1513.15 481.35L1552.7 243.35L1662.95 227.25L1658.4 288.85C1636.93 290.717 1617.22 293.167 1599.25 296.2Z" fill="url(#paint4_linear_51_115)"/>
<path d="M1599.25 296.2L1598.58 292.256L1596.12 292.671L1595.41 295.064L1599.25 296.2ZM1594.35 315.1L1590.45 314.232L1590.43 314.288L1590.42 314.345L1594.35 315.1ZM1590.85 333.3L1586.92 332.545L1585.79 338.454L1591.67 337.214L1590.85 333.3ZM1644.05 322.1L1648.04 322.374L1648.4 317.096L1643.23 318.186L1644.05 322.1ZM1640.9 367.95L1641.55 371.897L1644.67 371.381L1644.89 368.224L1640.9 367.95ZM1581.4 379.5L1580.44 375.616L1578 376.216L1577.49 378.676L1581.4 379.5ZM1578.95 392.8L1582.88 393.544L1582.89 393.484L1582.9 393.424L1578.95 392.8ZM1576.5 405.75L1572.57 405.006L1571.53 410.524L1577.08 409.708L1576.5 405.75ZM1638.45 396.65L1642.44 396.922L1642.78 391.971L1637.87 392.692L1638.45 396.65ZM1634.25 458.25L1634.6 462.235L1638.01 461.936L1638.24 458.522L1634.25 458.25ZM1513.15 481.35L1509.2 480.694L1508.2 486.761L1514.15 485.223L1513.15 481.35ZM1552.7 243.35L1552.12 239.392L1549.23 239.814L1548.75 242.694L1552.7 243.35ZM1662.95 227.25L1666.94 227.545L1667.31 222.571L1662.37 223.292L1662.95 227.25ZM1658.4 288.85L1658.75 292.835L1662.14 292.54L1662.39 289.145L1658.4 288.85ZM1595.41 295.064C1593.52 301.451 1591.87 307.84 1590.45 314.232L1598.25 315.968C1599.63 309.76 1601.24 303.549 1603.09 297.336L1595.41 295.064ZM1590.42 314.345L1586.92 332.545L1594.78 334.055L1598.28 315.855L1590.42 314.345ZM1591.67 337.214L1644.87 326.014L1643.23 318.186L1590.03 329.386L1591.67 337.214ZM1640.06 321.826L1636.91 367.676L1644.89 368.224L1648.04 322.374L1640.06 321.826ZM1640.25 364.003C1614.78 368.21 1594.83 372.079 1580.44 375.616L1582.36 383.384C1596.44 379.921 1616.16 376.09 1641.55 371.897L1640.25 364.003ZM1577.49 378.676C1576.54 383.175 1575.71 387.675 1575 392.176L1582.9 393.424C1583.59 389.058 1584.39 384.692 1585.31 380.324L1577.49 378.676ZM1575.02 392.056L1572.57 405.006L1580.43 406.494L1582.88 393.544L1575.02 392.056ZM1577.08 409.708L1639.03 400.608L1637.87 392.692L1575.92 401.792L1577.08 409.708ZM1634.46 396.378L1630.26 457.978L1638.24 458.522L1642.44 396.922L1634.46 396.378ZM1633.9 454.265C1601.63 457.092 1561.02 464.849 1512.15 477.477L1514.15 485.223C1562.81 472.651 1602.94 465.008 1634.6 462.235L1633.9 454.265ZM1517.1 482.006L1556.65 244.006L1548.75 242.694L1509.2 480.694L1517.1 482.006ZM1553.28 247.308L1663.53 231.208L1662.37 223.292L1552.12 239.392L1553.28 247.308ZM1658.96 226.955L1654.41 288.555L1662.39 289.145L1666.94 227.545L1658.96 226.955ZM1658.05 284.865C1636.5 286.739 1616.67 289.202 1598.58 292.256L1599.92 300.144C1617.76 297.132 1637.37 294.694 1658.75 292.835L1658.05 284.865Z" fill="#EEEEEE"/>
<path d="M1320.5 599.5C1287.17 599.5 1263.5 581.5 1249.5 545.5C1242.83 527.5 1239.17 507.167 1238.5 484.5C1238.83 463.5 1242.33 440.333 1249 415C1260 371.667 1279.67 332 1308 296C1342.33 252 1379 230 1418 230C1451.67 230 1475.33 248.667 1489 286L1437 342.5C1431.33 333.833 1423 329.5 1412 329.5C1390.33 329.5 1369.83 344.333 1350.5 374C1336.5 396.667 1326 421.5 1319 448.5C1316.67 459.167 1315.33 468.833 1315 477.5C1315 490.5 1318.33 501 1325 509C1332 517.667 1342 522 1355 522C1370 522 1384 515.167 1397 501.5C1407 490.833 1415 477.333 1421 461C1397.67 465.667 1376.17 470.5 1356.5 475.5L1371.5 405.5L1497.5 379C1497.83 399.333 1493.33 422.833 1484 449.5C1475 472.833 1464.33 494.333 1452 514C1415 571 1371.17 599.5 1320.5 599.5Z" fill="url(#paint5_linear_51_115)"/>
<path d="M1249.5 545.5L1245.75 546.889L1245.76 546.92L1245.77 546.95L1249.5 545.5ZM1238.5 484.5L1234.5 484.437L1234.5 484.527L1234.5 484.618L1238.5 484.5ZM1249 415L1252.87 416.018L1252.87 416.001L1252.88 415.984L1249 415ZM1308 296L1311.14 298.474L1311.15 298.467L1311.15 298.461L1308 296ZM1489 286L1491.94 288.709L1493.59 286.915L1492.76 284.625L1489 286ZM1437 342.5L1433.65 344.689L1436.46 348.989L1439.94 345.209L1437 342.5ZM1350.5 374L1347.15 371.816L1347.12 371.857L1347.1 371.898L1350.5 374ZM1319 448.5L1315.13 447.496L1315.11 447.57L1315.09 447.645L1319 448.5ZM1315 477.5L1311 477.346L1311 477.423V477.5H1315ZM1325 509L1328.11 506.487L1328.09 506.463L1328.07 506.439L1325 509ZM1397 501.5L1399.9 504.257L1399.91 504.246L1399.92 504.236L1397 501.5ZM1421 461L1424.75 462.379L1427.22 455.677L1420.22 457.078L1421 461ZM1356.5 475.5L1352.59 474.662L1351.24 480.965L1357.49 479.377L1356.5 475.5ZM1371.5 405.5L1370.68 401.586L1368.13 402.121L1367.59 404.662L1371.5 405.5ZM1497.5 379L1501.5 378.934L1501.42 374.088L1496.68 375.086L1497.5 379ZM1484 449.5L1487.73 450.939L1487.75 450.881L1487.78 450.821L1484 449.5ZM1452 514L1455.36 516.178L1455.37 516.152L1455.39 516.125L1452 514ZM1320.5 595.5C1304.6 595.5 1291.22 591.223 1280.17 582.816C1269.08 574.378 1260.04 561.564 1253.23 544.05L1245.77 546.95C1252.96 565.436 1262.76 579.622 1275.33 589.184C1287.94 598.777 1303.07 603.5 1320.5 603.5V595.5ZM1253.25 544.111C1246.76 526.585 1243.15 506.691 1242.5 484.382L1234.5 484.618C1235.18 507.642 1238.91 528.415 1245.75 546.889L1253.25 544.111ZM1242.5 484.563C1242.83 463.954 1246.26 441.113 1252.87 416.018L1245.13 413.982C1238.4 439.554 1234.84 463.046 1234.5 484.437L1242.5 484.563ZM1252.88 415.984C1263.74 373.207 1283.15 334.045 1311.14 298.474L1304.86 293.526C1276.19 329.955 1256.26 370.126 1245.12 414.016L1252.88 415.984ZM1311.15 298.461C1345.07 254.993 1380.7 234 1418 234V226C1377.3 226 1339.6 249.007 1304.85 293.539L1311.15 298.461ZM1418 234C1434.05 234 1447.48 238.429 1458.52 247.141C1469.62 255.891 1478.59 269.187 1485.24 287.375L1492.76 284.625C1485.75 265.479 1476.05 250.776 1463.48 240.859C1450.86 230.904 1435.62 226 1418 226V234ZM1486.06 283.291L1434.06 339.791L1439.94 345.209L1491.94 288.709L1486.06 283.291ZM1440.35 340.311C1433.89 330.433 1424.25 325.5 1412 325.5V333.5C1421.75 333.5 1428.78 337.234 1433.65 344.689L1440.35 340.311ZM1412 325.5C1388.29 325.5 1366.74 341.753 1347.15 371.816L1353.85 376.184C1372.93 346.914 1392.38 333.5 1412 333.5V325.5ZM1347.1 371.898C1332.88 394.921 1322.22 420.127 1315.13 447.496L1322.87 449.504C1329.78 422.873 1340.12 398.412 1353.9 376.102L1347.1 371.898ZM1315.09 447.645C1312.72 458.486 1311.35 468.392 1311 477.346L1319 477.654C1319.32 469.274 1320.61 459.847 1322.91 449.355L1315.09 447.645ZM1311 477.5C1311 491.197 1314.52 502.677 1321.93 511.561L1328.07 506.439C1322.14 499.323 1319 489.803 1319 477.5H1311ZM1321.89 511.513C1329.78 521.283 1341.02 526 1355 526V518C1342.98 518 1334.22 514.051 1328.11 506.487L1321.89 511.513ZM1355 526C1371.36 526 1386.35 518.5 1399.9 504.257L1394.1 498.743C1381.65 511.833 1368.64 518 1355 518V526ZM1399.92 504.236C1410.35 493.111 1418.6 479.122 1424.75 462.379L1417.25 459.621C1411.4 475.544 1403.65 488.556 1394.08 498.764L1399.92 504.236ZM1420.22 457.078C1396.83 461.756 1375.26 466.604 1355.51 471.623L1357.49 479.377C1377.08 474.396 1398.51 469.578 1421.78 464.922L1420.22 457.078ZM1360.41 476.338L1375.41 406.338L1367.59 404.662L1352.59 474.662L1360.41 476.338ZM1372.32 409.414L1498.32 382.914L1496.68 375.086L1370.68 401.586L1372.32 409.414ZM1493.5 379.066C1493.82 398.782 1489.46 421.797 1480.22 448.179L1487.78 450.821C1497.21 423.87 1501.84 399.884 1501.5 378.934L1493.5 379.066ZM1480.27 448.061C1471.35 471.173 1460.8 492.441 1448.61 511.875L1455.39 516.125C1467.87 496.225 1478.65 474.494 1487.73 450.939L1480.27 448.061ZM1448.64 511.822C1412.1 568.117 1369.37 595.5 1320.5 595.5V603.5C1372.97 603.5 1417.9 573.883 1455.36 516.178L1448.64 511.822Z" fill="#EEEEEE"/>
<path d="M722.095 485.2C754.528 402.367 780.662 322.333 800.495 245.1L901.645 228.3C890.212 295.5 885.078 374.833 886.245 466.3L815.195 482.75L820.095 441.1L798.395 445.3L791.045 474.7L722.095 485.2ZM826.045 396.65L841.095 271H840.745L809.245 399.8L826.045 396.65ZM941.701 246.15C976.234 235.883 1004.58 230.75 1026.75 230.75C1056.62 230.75 1071.43 241.133 1071.2 261.9C1070.97 291.767 1052.18 321.75 1014.85 351.85C1018.12 360.25 1030.95 386.733 1053.35 431.3C1041.92 441.8 1024.65 457.317 1001.55 477.85L965.851 386.5C960.251 415.433 956.051 442.15 953.251 466.65L901.451 481.35C901.918 476.45 904.251 461.75 908.451 437.25L941.701 246.15ZM983.351 298.65C981.251 306.117 979.384 313.7 977.751 321.4L973.201 343.8C981.134 339.833 988.834 334.7 996.301 328.4C1005.17 320.7 1010.88 313.467 1013.45 306.7C1014.38 304.6 1014.97 302.733 1015.2 301.1C1014.97 296.2 1011.7 293.75 1005.4 293.75C1000.27 293.75 992.918 295.383 983.351 298.65ZM1038.6 485.2C1071.03 402.367 1097.17 322.333 1117 245.1L1218.15 228.3C1206.72 295.5 1201.58 374.833 1202.75 466.3L1131.7 482.75L1136.6 441.1L1114.9 445.3L1107.55 474.7L1038.6 485.2ZM1142.55 396.65L1157.6 271H1157.25L1125.75 399.8L1142.55 396.65Z" fill="url(#paint6_linear_51_115)"/>
<path d="M722.095 485.2L718.37 483.742L715.842 490.198L722.697 489.154L722.095 485.2ZM800.495 245.1L799.84 241.154L797.269 241.581L796.621 244.105L800.495 245.1ZM901.645 228.3L905.588 228.971L906.531 223.434L900.99 224.354L901.645 228.3ZM886.245 466.3L887.147 470.197L890.286 469.47L890.245 466.249L886.245 466.3ZM815.195 482.75L811.223 482.283L810.558 487.929L816.097 486.647L815.195 482.75ZM820.095 441.1L824.068 441.567L824.707 436.133L819.335 437.173L820.095 441.1ZM798.395 445.3L797.635 441.373L795.133 441.857L794.515 444.33L798.395 445.3ZM791.045 474.7L791.647 478.654L794.28 478.254L794.926 475.67L791.045 474.7ZM826.045 396.65L826.782 400.581L829.668 400.04L830.017 397.126L826.045 396.65ZM841.095 271L845.067 271.476L845.603 267H841.095V271ZM840.745 271V267H837.606L836.86 270.05L840.745 271ZM809.245 399.8L805.36 398.85L803.886 404.875L809.982 403.731L809.245 399.8ZM725.82 486.658C758.306 403.691 784.491 323.502 804.369 246.095L796.621 244.105C776.832 321.164 750.751 401.043 718.37 483.742L725.82 486.658ZM801.151 249.046L902.301 232.246L900.99 224.354L799.84 241.154L801.151 249.046ZM897.702 227.629C886.217 295.132 881.077 374.719 882.245 466.351L890.245 466.249C889.08 374.948 894.207 295.868 905.588 228.971L897.702 227.629ZM885.343 462.403L814.293 478.853L816.097 486.647L887.147 470.197L885.343 462.403ZM819.168 483.217L824.068 441.567L816.123 440.633L811.223 482.283L819.168 483.217ZM819.335 437.173L797.635 441.373L799.155 449.227L820.855 445.027L819.335 437.173ZM794.515 444.33L787.165 473.73L794.926 475.67L802.276 446.27L794.515 444.33ZM790.443 470.746L721.493 481.246L722.697 489.154L791.647 478.654L790.443 470.746ZM830.017 397.126L845.067 271.476L837.124 270.524L822.074 396.174L830.017 397.126ZM841.095 267H840.745V275H841.095V267ZM836.86 270.05L805.36 398.85L813.131 400.75L844.631 271.95L836.86 270.05ZM809.982 403.731L826.782 400.581L825.308 392.719L808.508 395.869L809.982 403.731ZM941.701 246.15L940.561 242.316L938.185 243.022L937.76 245.464L941.701 246.15ZM1071.2 261.9L1067.2 261.855L1067.2 261.869L1071.2 261.9ZM1014.85 351.85L1012.34 348.736L1010.06 350.573L1011.12 353.3L1014.85 351.85ZM1053.35 431.3L1056.06 434.246L1058.28 432.203L1056.92 429.504L1053.35 431.3ZM1001.55 477.85L997.825 479.306L999.916 484.655L1004.21 480.84L1001.55 477.85ZM965.851 386.5L969.577 385.044L964.549 372.178L961.924 385.74L965.851 386.5ZM953.251 466.65L954.343 470.498L956.921 469.766L957.225 467.104L953.251 466.65ZM901.451 481.35L897.469 480.971L896.914 486.795L902.543 485.198L901.451 481.35ZM908.451 437.25L904.51 436.564L904.508 436.574L908.451 437.25ZM983.351 298.65L982.058 294.865L980.069 295.544L979.5 297.567L983.351 298.65ZM977.751 321.4L973.838 320.57L973.834 320.587L973.831 320.604L977.751 321.4ZM973.201 343.8L969.281 343.004L967.647 351.049L974.99 347.378L973.201 343.8ZM996.301 328.4L998.88 331.457L998.902 331.439L998.924 331.42L996.301 328.4ZM1013.45 306.7L1009.8 305.075L1009.75 305.177L1009.71 305.281L1013.45 306.7ZM1015.2 301.1L1019.16 301.666L1019.21 301.289L1019.2 300.91L1015.2 301.1ZM942.841 249.984C977.204 239.768 1005.13 234.75 1026.75 234.75V226.75C1004.03 226.75 975.264 231.999 940.561 242.316L942.841 249.984ZM1026.75 234.75C1041.35 234.75 1051.54 237.31 1057.97 241.813C1064.12 246.126 1067.31 252.566 1067.2 261.855L1075.2 261.945C1075.33 250.468 1071.22 241.332 1062.56 235.262C1054.17 229.381 1042.02 226.75 1026.75 226.75V234.75ZM1067.2 261.869C1066.98 289.966 1049.3 318.936 1012.34 348.736L1017.36 354.964C1055.07 324.564 1074.95 293.567 1075.2 261.931L1067.2 261.869ZM1011.12 353.3C1014.48 361.925 1027.43 388.628 1049.78 433.096L1056.92 429.504C1034.48 384.839 1021.76 358.575 1018.58 350.4L1011.12 353.3ZM1050.65 428.354C1039.24 438.831 1021.99 454.33 998.894 474.86L1004.21 480.84C1027.31 460.303 1044.6 444.769 1056.06 434.246L1050.65 428.354ZM1005.28 476.394L969.577 385.044L962.125 387.956L997.825 479.306L1005.28 476.394ZM961.924 385.74C956.308 414.756 952.091 441.576 949.277 466.196L957.225 467.104C960.011 442.724 964.194 416.111 969.778 387.26L961.924 385.74ZM952.159 462.802L900.359 477.502L902.543 485.198L954.343 470.498L952.159 462.802ZM905.433 481.729C905.882 477.017 908.18 462.503 912.393 437.926L904.508 436.574C900.322 460.997 897.954 475.883 897.469 480.971L905.433 481.729ZM912.392 437.936L945.642 246.836L937.76 245.464L904.51 436.564L912.392 437.936ZM979.5 297.567C977.377 305.119 975.489 312.786 973.838 320.57L981.664 322.23C983.279 314.614 985.125 307.115 987.202 299.733L979.5 297.567ZM973.831 320.604L969.281 343.004L977.121 344.596L981.671 322.196L973.831 320.604ZM974.99 347.378C983.233 343.256 991.196 337.941 998.88 331.457L993.722 325.343C986.473 331.459 979.035 336.411 971.412 340.222L974.99 347.378ZM998.924 331.42C1008.01 323.527 1014.29 315.774 1017.19 308.119L1009.71 305.281C1007.48 311.16 1002.32 317.873 993.678 325.38L998.924 331.42ZM1017.11 308.325C1018.14 306.009 1018.86 303.776 1019.16 301.666L1011.24 300.534C1011.08 301.691 1010.63 303.191 1009.8 305.075L1017.11 308.325ZM1019.2 300.91C1019.04 297.534 1017.76 294.473 1014.98 292.387C1012.37 290.429 1008.97 289.75 1005.4 289.75V297.75C1008.13 297.75 1009.52 298.296 1010.18 298.787C1010.66 299.152 1011.13 299.766 1011.21 301.29L1019.2 300.91ZM1005.4 289.75C999.583 289.75 991.719 291.566 982.058 294.865L984.644 302.435C994.116 299.201 1000.95 297.75 1005.4 297.75V289.75ZM1038.6 485.2L1034.87 483.742L1032.35 490.198L1039.2 489.154L1038.6 485.2ZM1117 245.1L1116.34 241.154L1113.77 241.581L1113.12 244.105L1117 245.1ZM1218.15 228.3L1222.09 228.971L1223.03 223.434L1217.49 224.354L1218.15 228.3ZM1202.75 466.3L1203.65 470.197L1206.79 469.47L1206.75 466.249L1202.75 466.3ZM1131.7 482.75L1127.73 482.283L1127.06 487.929L1132.6 486.647L1131.7 482.75ZM1136.6 441.1L1140.57 441.567L1141.21 436.133L1135.84 437.173L1136.6 441.1ZM1114.9 445.3L1114.14 441.373L1111.64 441.857L1111.02 444.33L1114.9 445.3ZM1107.55 474.7L1108.15 478.654L1110.78 478.254L1111.43 475.67L1107.55 474.7ZM1142.55 396.65L1143.29 400.581L1146.17 400.04L1146.52 397.126L1142.55 396.65ZM1157.6 271L1161.57 271.476L1162.11 267H1157.6V271ZM1157.25 271V267H1154.11L1153.36 270.05L1157.25 271ZM1125.75 399.8L1121.86 398.85L1120.39 404.875L1126.49 403.731L1125.75 399.8ZM1042.32 486.658C1074.81 403.691 1101 323.502 1120.87 246.095L1113.12 244.105C1093.34 321.164 1067.26 401.043 1034.87 483.742L1042.32 486.658ZM1117.65 249.046L1218.8 232.246L1217.49 224.354L1116.34 241.154L1117.65 249.046ZM1214.21 227.629C1202.72 295.132 1197.58 374.719 1198.75 466.351L1206.75 466.249C1205.58 374.948 1210.71 295.868 1222.09 228.971L1214.21 227.629ZM1201.85 462.403L1130.8 478.853L1132.6 486.647L1203.65 470.197L1201.85 462.403ZM1135.67 483.217L1140.57 441.567L1132.63 440.633L1127.73 482.283L1135.67 483.217ZM1135.84 437.173L1114.14 441.373L1115.66 449.227L1137.36 445.027L1135.84 437.173ZM1111.02 444.33L1103.67 473.73L1111.43 475.67L1118.78 446.27L1111.02 444.33ZM1106.95 470.746L1038 481.246L1039.2 489.154L1108.15 478.654L1106.95 470.746ZM1146.52 397.126L1161.57 271.476L1153.63 270.524L1138.58 396.174L1146.52 397.126ZM1157.6 267H1157.25V275H1157.6V267ZM1153.36 270.05L1121.86 398.85L1129.63 400.75L1161.13 271.95L1153.36 270.05ZM1126.49 403.731L1143.29 400.581L1141.81 392.719L1125.01 395.869L1126.49 403.731Z" fill="#EEEEEE"/>
<path d="M541.5 599.5C508.167 599.5 484.5 581.5 470.5 545.5C463.833 527.5 460.167 507.167 459.5 484.5C459.833 463.5 463.333 440.333 470 415C481 371.667 500.667 332 529 296C563.333 252 600 230 639 230C672.667 230 696.333 248.667 710 286L658 342.5C652.333 333.833 644 329.5 633 329.5C611.333 329.5 590.833 344.333 571.5 374C557.5 396.667 547 421.5 540 448.5C537.667 459.167 536.333 468.833 536 477.5C536 490.5 539.333 501 546 509C553 517.667 563 522 576 522C591 522 605 515.167 618 501.5C628 490.833 636 477.333 642 461C618.667 465.667 597.167 470.5 577.5 475.5L592.5 405.5L718.5 379C718.833 399.333 714.333 422.833 705 449.5C696 472.833 685.333 494.333 673 514C636 571 592.167 599.5 541.5 599.5Z" fill="url(#paint7_linear_51_115)"/>
<path d="M470.5 545.5L466.749 546.889L466.76 546.92L466.772 546.95L470.5 545.5ZM459.5 484.5L455.501 484.437L455.499 484.527L455.502 484.618L459.5 484.5ZM470 415L473.868 416.018L473.873 416.001L473.877 415.984L470 415ZM529 296L532.143 298.474L532.148 298.467L532.154 298.461L529 296ZM710 286L712.943 288.709L714.594 286.915L713.756 284.625L710 286ZM658 342.5L654.652 344.689L657.464 348.989L660.943 345.209L658 342.5ZM571.5 374L568.149 371.816L568.122 371.857L568.097 371.898L571.5 374ZM540 448.5L536.128 447.496L536.109 447.57L536.092 447.645L540 448.5ZM536 477.5L532.003 477.346L532 477.423V477.5H536ZM546 509L549.112 506.487L549.093 506.463L549.073 506.439L546 509ZM618 501.5L620.898 504.257L620.908 504.246L620.918 504.236L618 501.5ZM642 461L645.755 462.379L648.217 455.677L641.216 457.078L642 461ZM577.5 475.5L573.589 474.662L572.238 480.965L578.486 479.377L577.5 475.5ZM592.5 405.5L591.677 401.586L589.133 402.121L588.589 404.662L592.5 405.5ZM718.5 379L722.499 378.934L722.42 374.088L717.677 375.086L718.5 379ZM705 449.5L708.732 450.939L708.755 450.881L708.775 450.821L705 449.5ZM673 514L676.355 516.178L676.372 516.152L676.389 516.125L673 514ZM541.5 595.5C525.597 595.5 512.225 591.223 501.171 582.816C490.076 574.378 481.039 561.564 474.228 544.05L466.772 546.95C473.961 565.436 483.757 579.622 496.329 589.184C508.942 598.777 524.07 603.5 541.5 603.5V595.5ZM474.251 544.111C467.76 526.585 464.154 506.691 463.498 484.382L455.502 484.618C456.179 507.642 459.907 528.415 466.749 546.889L474.251 544.111ZM463.499 484.563C463.827 463.954 467.264 441.113 473.868 416.018L466.132 413.982C459.402 439.554 455.84 463.046 455.501 484.437L463.499 484.563ZM473.877 415.984C484.736 373.207 504.147 334.045 532.143 298.474L525.857 293.526C497.186 329.955 477.264 370.126 466.123 414.016L473.877 415.984ZM532.154 298.461C566.072 254.993 601.699 234 639 234V226C598.301 226 560.595 249.007 525.846 293.539L532.154 298.461ZM639 234C655.046 234 668.478 238.429 679.523 247.141C690.617 255.891 699.586 269.187 706.244 287.375L713.756 284.625C706.748 265.479 697.05 250.776 684.477 240.859C671.856 230.904 656.621 226 639 226V234ZM707.057 283.291L655.057 339.791L660.943 345.209L712.943 288.709L707.057 283.291ZM661.348 340.311C654.889 330.433 645.25 325.5 633 325.5V333.5C642.751 333.5 649.778 337.234 654.652 344.689L661.348 340.311ZM633 325.5C609.29 325.5 587.741 341.753 568.149 371.816L574.851 376.184C593.926 346.914 613.376 333.5 633 333.5V325.5ZM568.097 371.898C553.877 394.921 543.224 420.127 536.128 447.496L543.872 449.504C550.776 422.873 561.123 398.412 574.903 376.102L568.097 371.898ZM536.092 447.645C533.721 458.486 532.347 468.392 532.003 477.346L539.997 477.654C540.319 469.274 541.612 459.847 543.908 449.355L536.092 447.645ZM532 477.5C532 491.197 535.524 502.677 542.927 511.561L549.073 506.439C543.142 499.323 540 489.803 540 477.5H532ZM542.888 511.513C550.779 521.283 562.017 526 576 526V518C563.983 518 555.221 514.051 549.112 506.487L542.888 511.513ZM576 526C592.363 526 607.35 518.5 620.898 504.257L615.102 498.743C602.65 511.833 589.637 518 576 518V526ZM620.918 504.236C631.348 493.111 639.604 479.122 645.755 462.379L638.245 459.621C632.396 475.544 624.652 488.556 615.082 498.764L620.918 504.236ZM641.216 457.078C617.826 461.756 596.258 466.604 576.514 471.623L578.486 479.377C598.075 474.396 619.507 469.578 642.784 464.922L641.216 457.078ZM581.411 476.338L596.411 406.338L588.589 404.662L573.589 474.662L581.411 476.338ZM593.323 409.414L719.323 382.914L717.677 375.086L591.677 401.586L593.323 409.414ZM714.501 379.066C714.824 398.782 710.458 421.797 701.225 448.179L708.775 450.821C718.208 423.87 722.843 399.884 722.499 378.934L714.501 379.066ZM701.268 448.061C692.353 471.173 681.798 492.441 669.611 511.875L676.389 516.125C688.868 496.225 699.647 474.494 708.732 450.939L701.268 448.061ZM669.645 511.822C633.103 568.117 590.368 595.5 541.5 595.5V603.5C593.966 603.5 638.897 573.883 676.355 516.178L669.645 511.822Z" fill="#EEEEEE"/>
<g filter="url(#filter0_d_51_115)">
<path d="M545.734 249.852C576.073 214.71 654.225 166.94 724.125 257C724.125 198.032 602.164 115.834 545.734 249.852Z" fill="url(#paint8_linear_51_115)"/>
<path d="M1315.73 246.279C1347.28 215.305 1425.67 173.372 1486.84 253.426C1485.02 205.18 1383.08 122.981 1315.73 246.279Z" fill="url(#paint9_linear_51_115)"/>
<path d="M780.555 251.639C771.817 197.317 732.013 150.381 713.203 133.703L1131.88 174.802L789.656 183.737C786.622 195.054 780.555 224.478 780.555 251.639Z" fill="url(#paint10_linear_51_115)"/>
<path d="M498.68 255.604C459.4 230.93 458.805 125.182 464.757 86.4076C487.967 116.369 498.68 116.37 518.319 121.657C873.619 -36.965 971.937 2.71402 1014.67 8.85907C1062.7 15.7668 1178.93 78.3087 1211.07 100.507C1228.75 112.72 1328.9 130.469 1400.32 142.807C1547.44 172.416 1592.41 190.884 1627 210.54C1621.54 214.114 1583.31 205.18 1565.11 230.196C1477.73 160.507 1366.7 151.572 1328.47 153.359C1279.32 151.572 1114.65 158.669 1098.58 155.144C1082.51 151.619 1073.59 100.507 1105.73 100.507C1137.86 100.507 1137.86 116.37 1150.36 142.807C1173.57 139.282 1171.79 141.044 1178.93 130.469C1052.16 38.821 1005.74 44.1084 953.964 40.5835C902.186 37.0585 753.996 52.9207 739.712 68.7829C725.429 84.6451 771.85 98.7449 805.773 116.37C514.749 107.557 516.534 192.156 498.68 255.604Z" fill="url(#paint11_linear_51_115)"/>
</g>
<g filter="url(#filter1_d_51_115)">
<path d="M345.643 547.354C321.203 521.514 337.131 491.297 348.15 479.419C356.325 467.976 384.944 448.961 417.778 474.726C450.612 500.49 431.092 530.497 415.913 546.721C400.734 562.945 369.172 570.723 345.643 547.354Z" fill="url(#paint12_radial_51_115)"/>
<path d="M416.455 529.165C422.991 521.8 432.786 502.934 419.676 486.393C428.959 502.459 415.337 530.5 416.455 529.165Z" fill="#D9D9D9"/>
<path d="M416.064 462.264C381.836 446.657 354.87 460.662 345.666 469.615C324.978 473.032 307.904 450.694 311.061 411.281C327.417 346.342 383.735 347.992 419.513 370.322C455.291 392.653 436.692 449.496 416.064 462.264Z" fill="url(#paint13_radial_51_115)"/>
<path d="M326.12 435.648C326.293 435.956 326.466 436.252 326.64 436.536C326.461 436.358 326.286 436.058 326.12 435.648C319.975 424.7 314.883 398.96 340.505 376.459C323.011 394.072 323.456 429.069 326.12 435.648Z" fill="#D9D9D9"/>
<path d="M336.245 479.591C321.884 478.238 307.578 453.238 302.22 440.907C258.11 452.849 250.618 443.451 235.997 443.113C221.579 457.158 211.641 475.164 211.433 498.432C212.272 554.529 290.559 560.882 308.165 543.156C324.354 536.739 337.61 483.392 336.245 479.591Z" fill="url(#paint14_radial_51_115)"/>
<path d="M238.644 526.545C226.409 517.277 210.006 493.528 233.302 464.63C218.474 487.56 232.398 517.775 238.644 526.545Z" fill="#D9D9D9"/>
<path d="M333.16 359.383C303.862 386.623 298.748 419.756 299.854 432.918C265.847 443.157 242.645 440.165 234.881 432.453C230.525 434.485 191.744 406.237 205.936 366.537C220.129 326.836 239.732 317.451 277.891 315.737C316.05 314.023 336.339 356.183 333.16 359.383Z" fill="url(#paint15_radial_51_115)"/>
<path d="M219.189 401.617C219.491 402.138 219.796 402.632 220.099 403.1C219.768 402.771 219.463 402.27 219.189 401.617C211.759 388.825 205.373 360.374 233.831 337.51C217.407 354.047 215.376 392.54 219.189 401.617Z" fill="#D9D9D9"/>
<path d="M203.852 350.283L196.797 380.444C194.679 378.341 156.797 365.659 124.572 358.105C164.423 310.828 215.548 311.526 236.129 317.785L217.3 336.742C208.693 345.408 191.375 346.531 183.792 346.009L203.852 350.283Z" fill="url(#paint16_radial_51_115)"/>
<path d="M262.589 226.202C282.847 257.571 291.71 295.392 292.83 311.99C264.95 311.198 209.477 294.737 210.622 235.231C211.793 174.407 189.054 139.543 180.408 131.748C179.264 131.482 178.184 131.109 177.148 130.582C177.254 129.617 178.481 130.01 180.408 131.748C192.639 134.587 212.273 125.159 265.539 160.174C319.58 182.94 326.47 233.571 323.16 256.04C320.06 267.633 314.121 297.142 315.168 322.44C305.854 320.524 297.854 287.637 286.985 254.345C278.29 227.712 251.622 198.029 239.375 186.517C244.525 197.175 256.378 220.033 262.589 226.202Z" fill="url(#paint17_radial_51_115)"/>
<path d="M366.979 321.569C350.148 338.891 343.76 348.555 342.669 351.221C342.189 352.211 365.88 353.734 386.909 332.561C403.733 315.623 402.003 270.933 399.035 250.705C384.595 261.794 352.719 287.55 340.742 301.868C325.77 319.765 331.846 340.471 338.79 341.01C350.899 339.735 369.943 312.938 377.95 299.699C376.914 303.723 373.268 313.731 366.979 321.569Z" fill="url(#paint18_radial_51_115)"/>
</g>
<defs>
<filter id="filter0_d_51_115" x="458" y="0" width="1173" height="265" filterUnits="userSpaceOnUse" color-interpolation-filters="sRGB">
<feFlood flood-opacity="0" result="BackgroundImageFix"/>
<feColorMatrix in="SourceAlpha" type="matrix" values="0 0 0 0 0 0 0 0 0 0 0 0 0 0 0 0 0 0 127 0" result="hardAlpha"/>
<feOffset dy="4"/>
<feGaussianBlur stdDeviation="2"/>
<feComposite in2="hardAlpha" operator="out"/>
<feColorMatrix type="matrix" values="0 0 0 0 0 0 0 0 0 0 0 0 0 0 0 0 0 0 0.7 0"/>
<feBlend mode="normal" in2="BackgroundImageFix" result="effect1_dropShadow_51_115"/>
<feBlend mode="normal" in="SourceGraphic" in2="effect1_dropShadow_51_115" result="shape"/>
</filter>
<filter id="filter1_d_51_115" x="120.572" y="130.067" width="323.134" height="439.982" filterUnits="userSpaceOnUse" color-interpolation-filters="sRGB">
<feFlood flood-opacity="0" result="BackgroundImageFix"/>
<feColorMatrix in="SourceAlpha" type="matrix" values="0 0 0 0 0 0 0 0 0 0 0 0 0 0 0 0 0 0 127 0" result="hardAlpha"/>
<feOffset dy="4"/>
<feGaussianBlur stdDeviation="2"/>
<feComposite in2="hardAlpha" operator="out"/>
<feColorMatrix type="matrix" values="0 0 0 0 0 0 0 0 0 0 0 0 0 0 0 0 0 0 0.7 0"/>
<feBlend mode="normal" in2="BackgroundImageFix" result="effect1_dropShadow_51_115"/>
<feBlend mode="normal" in="SourceGraphic" in2="effect1_dropShadow_51_115" result="shape"/>
</filter>
<linearGradient id="paint0_linear_51_115" x1="1231" y1="588" x2="1231" y2="828" gradientUnits="userSpaceOnUse">
<stop stop-color="#652063"/>
<stop offset="0.729167" stop-color="#3B0B39"/>
</linearGradient>
<linearGradient id="paint1_linear_51_115" x1="567" y1="588" x2="567" y2="828" gradientUnits="userSpaceOnUse">
<stop stop-color="#652063"/>
<stop offset="0.6875" stop-color="#3B0B39"/>
</linearGradient>
<linearGradient id="paint2_linear_51_115" x1="1025" y1="480" x2="1025" y2="624" gradientUnits="userSpaceOnUse">
<stop stop-color="#652063"/>
<stop offset="0.729167" stop-color="#3B0B39"/>
</linearGradient>
<linearGradient id="paint3_linear_51_115" x1="825.5" y1="480" x2="825.5" y2="624" gradientUnits="userSpaceOnUse">
<stop stop-color="#637423"/>
<stop offset="1" stop-color="#A7C04C"/>
</linearGradient>
<linearGradient id="paint4_linear_51_115" x1="1590" y1="227" x2="1590" y2="486" gradientUnits="userSpaceOnUse">
<stop stop-color="#607124"/>
<stop offset="1" stop-color="#A7C04C"/>
</linearGradient>
<linearGradient id="paint5_linear_51_115" x1="1366" y1="225" x2="1366" y2="740" gradientUnits="userSpaceOnUse">
<stop stop-color="#607124"/>
<stop offset="1" stop-color="#A7C04C"/>
</linearGradient>
<linearGradient id="paint6_linear_51_115" x1="973" y1="227" x2="973" y2="480" gradientUnits="userSpaceOnUse">
<stop stop-color="#607124"/>
<stop offset="1" stop-color="#A7C04C"/>
</linearGradient>
<linearGradient id="paint7_linear_51_115" x1="587" y1="225" x2="587" y2="740" gradientUnits="userSpaceOnUse">
<stop stop-color="#607124"/>
<stop offset="1" stop-color="#A7C04C"/>
</linearGradient>
<linearGradient id="paint8_linear_51_115" x1="634.93" y1="177.487" x2="634.93" y2="257" gradientUnits="userSpaceOnUse">
<stop stop-color="#637423"/>
<stop offset="0.588542" stop-color="#A7C04C"/>
<stop offset="1" stop-color="#A7C04C"/>
</linearGradient>
<linearGradient id="paint9_linear_51_115" x1="1401.28" y1="181.583" x2="1401.28" y2="253.426" gradientUnits="userSpaceOnUse">
<stop stop-color="#637423"/>
<stop offset="0.588542" stop-color="#A7C04C"/>
<stop offset="1" stop-color="#A7C04C"/>
</linearGradient>
<linearGradient id="paint10_linear_51_115" x1="922.539" y1="133.703" x2="922.539" y2="251.639" gradientUnits="userSpaceOnUse">
<stop stop-color="#637423"/>
<stop offset="0.588542" stop-color="#A7C04C"/>
<stop offset="1" stop-color="#A7C04C"/>
</linearGradient>
<linearGradient id="paint11_linear_51_115" x1="1046.32" y1="5.04532" x2="1046.32" y2="283.804" gradientUnits="userSpaceOnUse">
<stop stop-color="#637423"/>
<stop offset="0.5" stop-color="#A7C04C"/>
<stop offset="1" stop-color="#A7C04C"/>
</linearGradient>
<radialGradient id="paint12_radial_51_115" cx="0" cy="0" r="1" gradientUnits="userSpaceOnUse" gradientTransform="translate(382.92 511.919) rotate(44.8048) scale(47.9527 51.4098)">
<stop offset="0.541667" stop-color="#652063"/>
<stop offset="1" stop-color="#3B0B39"/>
</radialGradient>
<radialGradient id="paint13_radial_51_115" cx="0" cy="0" r="1" gradientUnits="userSpaceOnUse" gradientTransform="translate(374.01 417.772) rotate(44.8048) scale(61.9371 66.8216)">
<stop offset="0.541667" stop-color="#652063"/>
<stop offset="1" stop-color="#3B0B39"/>
</radialGradient>
<radialGradient id="paint14_radial_51_115" cx="0" cy="0" r="1" gradientUnits="userSpaceOnUse" gradientTransform="translate(271.554 494.437) rotate(44.8048) scale(61.4098 59.5912)">
<stop offset="0.541667" stop-color="#652063"/>
<stop offset="1" stop-color="#3B0B39"/>
</radialGradient>
<radialGradient id="paint15_radial_51_115" cx="0" cy="0" r="1" gradientUnits="userSpaceOnUse" gradientTransform="translate(268.411 377.106) rotate(44.8048) scale(61.6385 66.6021)">
<stop offset="0.541667" stop-color="#652063"/>
<stop offset="1" stop-color="#3B0B39"/>
</radialGradient>
<radialGradient id="paint16_radial_51_115" cx="0" cy="0" r="1" gradientUnits="userSpaceOnUse" gradientTransform="translate(185.948 343.505) rotate(44.8048) scale(33.7284 53.6106)">
<stop stop-color="#A7C04C"/>
<stop offset="1" stop-color="#607124"/>
</radialGradient>
<radialGradient id="paint17_radial_51_115" cx="0" cy="0" r="1" gradientUnits="userSpaceOnUse" gradientTransform="translate(279.538 233.967) rotate(44.8048) scale(145.66 72.3339)">
<stop stop-color="#A7C04C"/>
<stop offset="1" stop-color="#607124"/>
</radialGradient>
<radialGradient id="paint18_radial_51_115" cx="0" cy="0" r="1" gradientUnits="userSpaceOnUse" gradientTransform="translate(279.538 233.967) rotate(44.8048) scale(145.66 72.3339)">
<stop stop-color="#A7C04C"/>
<stop offset="1" stop-color="#607124"/>
</radialGradient>
</defs>
</svg>
