<svg width="1655" height="800" viewBox="0 0 1655 800" fill="none" xmlns="http://www.w3.org/2000/svg">
<g filter="url(#filter0_d_51_115)">
<path d="M827.4 750.4C845.933 703.067 860.867 657.333 872.2 613.2L930 603.6C923.467 642 920.533 687.333 921.2 739.6L880.6 749L883.4 725.2L871 727.6L866.8 744.4L827.4 750.4ZM886.8 699.8L895.4 628H895.2L877.2 701.6L886.8 699.8ZM952.489 613.8C972.222 607.933 988.422 605 1001.09 605C1018.16 605 1026.62 610.933 1026.49 622.8C1026.36 639.867 1015.62 657 994.289 674.2C996.156 679 1003.49 694.133 1016.29 719.6C1009.76 725.6 999.889 734.467 986.689 746.2L966.289 694C963.089 710.533 960.689 725.8 959.089 739.8L929.489 748.2C929.756 745.4 931.089 737 933.489 723L952.489 613.8ZM976.289 643.8C975.089 648.067 974.022 652.4 973.089 656.8L970.689 669.6C975.089 667.333 979.422 664.4 983.689 660.8C988.756 656.4 992.022 652.267 993.489 648.4C994.022 647.2 994.356 646.133 994.489 645.2C994.356 642.4 992.489 641 988.889 641C985.956 641 981.756 641.933 976.289 643.8ZM1113.6 606L1112.6 641.4C1103.94 641.933 1095.6 642.533 1087.6 643.2C1079.2 678.267 1073.6 710.467 1070.8 739.8L1038.6 748.2L1056 647.2C1052.4 647.733 1049 648.333 1045.8 649L1035.8 650.8L1033.6 615.4L1113.6 606ZM1152.73 642.4C1151.79 646 1150.93 649.6 1150.13 653.2L1148.13 663.6L1178.53 657.2L1176.73 683.4C1162.19 685.8 1150.86 688 1142.73 690C1142.19 692.533 1141.73 695.067 1141.33 697.6L1139.93 705L1175.33 699.8L1172.93 735C1154.66 736.6 1131.59 741 1103.73 748.2L1126.33 612.2L1189.13 603L1186.73 638.2C1174.46 639.267 1163.13 640.667 1152.73 642.4ZM1277.6 647.6C1273.6 649.2 1268.8 651.067 1263.2 653.2L1249 658.6C1249 652.733 1247.33 649.8 1244 649.8C1239.33 649.8 1234.73 652.4 1230.2 657.6C1226.73 661.6 1225.27 665.4 1225.8 669C1226.2 671.4 1228.6 672.6 1233 672.6C1235.4 672.6 1238.6 672.267 1242.6 671.6C1247.93 670.4 1252.73 669.8 1257 669.8C1267.53 669.8 1273.67 673.467 1275.4 680.8C1276.07 683.067 1276.4 685.467 1276.4 688C1276.27 696.133 1273.2 704.867 1267.2 714.2C1259.33 726.467 1248.27 736.8 1234 745.2C1226.53 749.6 1219.2 751.8 1212 751.8C1205.47 751.8 1199 749.933 1192.6 746.2C1195.93 738.733 1201.07 727.6 1208 712.8C1212 715.467 1216.27 716.8 1220.8 716.8C1222.8 716.8 1224.93 716.533 1227.2 716C1231.07 714.933 1234.8 713.467 1238.4 711.6C1243.47 708.8 1245.93 705.933 1245.8 703C1245.93 699.8 1243.4 698.2 1238.2 698.2C1234.73 698.2 1229.6 698.933 1222.8 700.4C1216 701.867 1210.87 702.6 1207.4 702.6C1202.73 702.6 1199.13 701.733 1196.6 700C1191.8 696.667 1189.8 691.533 1190.6 684.6C1192.07 670.6 1201.07 654.333 1217.6 635.8C1234.4 616.867 1248.87 606.933 1261 606C1272.73 605.333 1278.67 614.2 1278.8 632.6C1278.67 637 1278.27 642 1277.6 647.6ZM1267.05 750.4C1285.58 703.067 1300.52 657.333 1311.85 613.2L1369.65 603.6C1363.12 642 1360.18 687.333 1360.85 739.6L1320.25 749L1323.05 725.2L1310.65 727.6L1306.45 744.4L1267.05 750.4ZM1326.45 699.8L1335.05 628H1334.85L1316.85 701.6L1326.45 699.8ZM1393.74 614.6L1426.34 608C1426.07 611.867 1425.94 617.4 1425.94 624.6C1425.94 641.8 1426.47 656.933 1427.54 670C1428.34 677.467 1429.34 683.467 1430.54 688L1443.34 614L1476.14 608C1462.94 658.667 1454.34 702.6 1450.34 739.8L1420.14 748.2C1420.14 747.933 1419.34 745.733 1417.74 741.6L1407.94 713.4L1405.14 704.8C1402.34 719.733 1400.2 734.2 1398.74 748.2L1368.74 757.2L1393.74 614.6ZM1455.33 750.4C1473.86 703.067 1488.8 657.333 1500.13 613.2L1557.93 603.6C1551.4 642 1548.46 687.333 1549.13 739.6L1508.53 749L1511.33 725.2L1498.93 727.6L1494.73 744.4L1455.33 750.4ZM1514.73 699.8L1523.33 628H1523.13L1505.13 701.6L1514.73 699.8ZM1580.62 614L1613.22 608C1604.15 643.067 1597.15 675.4 1592.22 705L1625.42 699.8L1622.62 735C1605.42 736.6 1583.69 741 1557.42 748.2L1580.62 614Z" fill="url(#paint0_linear_51_115)"/>
<path d="M827.4 750.4L823.675 748.942L821.147 755.398L828.002 754.354L827.4 750.4ZM872.2 613.2L871.545 609.254L868.974 609.681L868.326 612.205L872.2 613.2ZM930 603.6L933.943 604.271L934.885 598.734L929.345 599.654L930 603.6ZM921.2 739.6L922.102 743.497L925.241 742.77L925.2 739.549L921.2 739.6ZM880.6 749L876.627 748.533L875.963 754.179L881.502 752.897L880.6 749ZM883.4 725.2L887.373 725.667L888.012 720.233L882.64 721.273L883.4 725.2ZM871 727.6L870.24 723.673L867.738 724.157L867.119 726.63L871 727.6ZM866.8 744.4L867.402 748.354L870.035 747.954L870.681 745.37L866.8 744.4ZM886.8 699.8L887.537 703.731L890.422 703.19L890.772 700.276L886.8 699.8ZM895.4 628L899.372 628.476L899.908 624H895.4V628ZM895.2 628V624H892.06L891.315 627.05L895.2 628ZM877.2 701.6L873.315 700.65L871.841 706.674L877.937 705.531L877.2 701.6ZM831.125 751.858C849.711 704.391 864.696 658.502 876.074 614.195L868.326 612.205C857.037 656.164 842.156 701.743 823.675 748.942L831.125 751.858ZM872.855 617.146L930.655 607.546L929.345 599.654L871.545 609.254L872.855 617.146ZM926.057 602.929C919.472 641.632 916.532 687.219 917.2 739.651L925.2 739.549C924.535 687.448 927.462 642.368 933.943 604.271L926.057 602.929ZM920.298 735.703L879.698 745.103L881.502 752.897L922.102 743.497L920.298 735.703ZM884.573 749.467L887.373 725.667L879.427 724.733L876.627 748.533L884.573 749.467ZM882.64 721.273L870.24 723.673L871.76 731.527L884.16 729.127L882.64 721.273ZM867.119 726.63L862.919 743.43L870.681 745.37L874.881 728.57L867.119 726.63ZM866.198 740.446L826.798 746.446L828.002 754.354L867.402 748.354L866.198 740.446ZM890.772 700.276L899.372 628.476L891.428 627.524L882.828 699.324L890.772 700.276ZM895.4 624H895.2V632H895.4V624ZM891.315 627.05L873.315 700.65L881.085 702.55L899.085 628.95L891.315 627.05ZM877.937 705.531L887.537 703.731L886.063 695.869L876.463 697.669L877.937 705.531ZM952.489 613.8L951.349 609.966L948.973 610.672L948.548 613.114L952.489 613.8ZM1026.49 622.8L1022.49 622.755L1022.49 622.769L1026.49 622.8ZM994.289 674.2L991.778 671.086L989.5 672.923L990.561 675.65L994.289 674.2ZM1016.29 719.6L1018.99 722.546L1021.22 720.503L1019.86 717.804L1016.29 719.6ZM986.689 746.2L982.963 747.656L985.054 753.005L989.347 749.19L986.689 746.2ZM966.289 694L970.015 692.544L964.987 679.678L962.362 693.24L966.289 694ZM959.089 739.8L960.181 743.648L962.759 742.917L963.063 740.254L959.089 739.8ZM929.489 748.2L925.507 747.821L924.952 753.645L930.581 752.048L929.489 748.2ZM933.489 723L929.548 722.314L929.547 722.324L933.489 723ZM976.289 643.8L974.996 640.015L973.008 640.694L972.438 642.717L976.289 643.8ZM973.089 656.8L969.176 655.97L969.166 656.016L969.158 656.063L973.089 656.8ZM970.689 669.6L966.758 668.863L965.25 676.901L972.521 673.156L970.689 669.6ZM983.689 660.8L986.269 663.857L986.29 663.839L986.312 663.82L983.689 660.8ZM993.489 648.4L989.834 646.775L989.789 646.877L989.749 646.981L993.489 648.4ZM994.489 645.2L998.449 645.766L998.503 645.389L998.485 645.01L994.489 645.2ZM953.629 617.634C973.193 611.818 988.973 609 1001.09 609V601C987.872 601 971.252 604.049 951.349 609.966L953.629 617.634ZM1001.09 609C1009.29 609 1014.69 610.448 1017.94 612.726C1020.92 614.813 1022.54 617.916 1022.49 622.755L1030.49 622.845C1030.57 615.818 1028.02 610.02 1022.53 606.174C1017.32 602.519 1009.96 601 1001.09 601V609ZM1022.49 622.769C1022.37 638.066 1012.74 654.186 991.778 671.086L996.8 677.314C1018.51 659.814 1030.34 641.667 1030.49 622.831L1022.49 622.769ZM990.561 675.65C992.515 680.675 999.965 696.028 1012.72 721.396L1019.86 717.804C1007.01 692.239 999.796 677.325 998.017 672.75L990.561 675.65ZM1013.58 716.654C1007.07 722.631 997.228 731.48 984.032 743.21L989.347 749.19C1002.55 737.453 1012.44 728.569 1018.99 722.546L1013.58 716.654ZM990.415 744.744L970.015 692.544L962.563 695.456L982.963 747.656L990.415 744.744ZM962.362 693.24C959.146 709.856 956.729 725.226 955.115 739.346L963.063 740.254C964.649 726.374 967.032 711.211 970.216 694.76L962.362 693.24ZM957.997 735.952L928.397 744.352L930.581 752.048L960.181 743.648L957.997 735.952ZM933.471 748.579C933.72 745.967 935.018 737.753 937.432 723.676L929.547 722.324C927.16 736.247 925.792 744.833 925.507 747.821L933.471 748.579ZM937.43 723.686L956.43 614.486L948.548 613.114L929.548 722.314L937.43 723.686ZM972.438 642.717C971.215 647.069 970.127 651.486 969.176 655.97L977.002 657.63C977.918 653.314 978.964 649.065 980.14 644.883L972.438 642.717ZM969.158 656.063L966.758 668.863L974.621 670.337L977.021 657.537L969.158 656.063ZM972.521 673.156C977.219 670.735 981.801 667.627 986.269 663.857L981.11 657.743C977.044 661.173 972.959 663.931 968.857 666.044L972.521 673.156ZM986.312 663.82C991.6 659.227 995.425 654.574 997.229 649.819L989.749 646.981C988.619 649.96 985.911 653.573 981.066 657.78L986.312 663.82ZM997.144 650.025C997.774 648.609 998.247 647.176 998.449 645.766L990.529 644.634C990.464 645.091 990.271 645.791 989.834 646.775L997.144 650.025ZM998.485 645.01C998.374 642.684 997.47 640.41 995.389 638.85C993.478 637.417 991.113 637 988.889 637V645C989.541 645 989.987 645.065 990.272 645.137C990.55 645.209 990.621 645.274 990.589 645.25C990.54 645.213 990.482 645.143 990.453 645.082C990.433 645.04 990.48 645.114 990.494 645.39L998.485 645.01ZM988.889 637C985.271 637 980.557 638.116 974.996 640.015L977.582 647.585C982.954 645.751 986.64 645 988.889 645V637ZM1113.6 606L1117.6 606.113L1117.73 601.487L1113.14 602.027L1113.6 606ZM1112.6 641.4L1112.85 645.392L1116.5 645.168L1116.6 641.513L1112.6 641.4ZM1087.6 643.2L1087.27 639.214L1084.39 639.454L1083.71 642.268L1087.6 643.2ZM1070.8 739.8L1071.81 743.67L1074.52 742.964L1074.79 740.18L1070.8 739.8ZM1038.6 748.2L1034.66 747.521L1033.61 753.637L1039.61 752.07L1038.6 748.2ZM1056 647.2L1059.95 647.879L1060.88 642.433L1055.42 643.243L1056 647.2ZM1045.8 649L1046.51 652.937L1046.57 652.927L1046.62 652.916L1045.8 649ZM1035.8 650.8L1031.81 651.048L1032.09 655.533L1036.51 654.737L1035.8 650.8ZM1033.6 615.4L1033.14 611.427L1029.38 611.869L1029.61 615.648L1033.6 615.4ZM1109.6 605.887L1108.6 641.287L1116.6 641.513L1117.6 606.113L1109.6 605.887ZM1112.36 637.408C1103.66 637.943 1095.3 638.545 1087.27 639.214L1087.94 647.186C1095.9 646.522 1104.21 645.924 1112.85 645.392L1112.36 637.408ZM1083.71 642.268C1075.28 677.478 1069.64 709.865 1066.82 739.42L1074.79 740.18C1077.56 711.068 1083.13 679.055 1091.49 644.132L1083.71 642.268ZM1069.79 735.93L1037.59 744.33L1039.61 752.07L1071.81 743.67L1069.79 735.93ZM1042.55 748.879L1059.95 647.879L1052.06 646.521L1034.66 747.521L1042.55 748.879ZM1055.42 643.243C1051.75 643.787 1048.27 644.4 1044.99 645.084L1046.62 652.916C1049.73 652.267 1053.06 651.68 1056.59 651.157L1055.42 643.243ZM1045.09 645.063L1035.09 646.863L1036.51 654.737L1046.51 652.937L1045.09 645.063ZM1039.8 650.552L1037.6 615.152L1029.61 615.648L1031.81 651.048L1039.8 650.552ZM1034.07 619.373L1114.07 609.973L1113.14 602.027L1033.14 611.427L1034.07 619.373ZM1152.73 642.4L1152.07 638.454L1149.51 638.882L1148.85 641.396L1152.73 642.4ZM1150.13 653.2L1146.22 652.332L1146.21 652.388L1146.2 652.445L1150.13 653.2ZM1148.13 663.6L1144.2 662.845L1143.06 668.754L1148.95 667.514L1148.13 663.6ZM1178.53 657.2L1182.52 657.474L1182.88 652.196L1177.7 653.286L1178.53 657.2ZM1176.73 683.4L1177.38 687.347L1180.5 686.831L1180.72 683.674L1176.73 683.4ZM1142.73 690L1141.77 686.116L1139.33 686.716L1138.81 689.176L1142.73 690ZM1141.33 697.6L1145.26 698.344L1145.27 698.284L1145.28 698.224L1141.33 697.6ZM1139.93 705L1136 704.256L1134.95 709.774L1140.51 708.958L1139.93 705ZM1175.33 699.8L1179.32 700.072L1179.65 695.121L1174.75 695.842L1175.33 699.8ZM1172.93 735L1173.28 738.985L1176.68 738.686L1176.92 735.272L1172.93 735ZM1103.73 748.2L1099.78 747.544L1098.77 753.611L1104.73 752.073L1103.73 748.2ZM1126.33 612.2L1125.75 608.242L1122.86 608.665L1122.38 611.544L1126.33 612.2ZM1189.13 603L1193.12 603.272L1193.45 598.323L1188.55 599.042L1189.13 603ZM1186.73 638.2L1187.07 642.185L1190.48 641.888L1190.72 638.472L1186.73 638.2ZM1148.85 641.396C1147.91 645.041 1147.03 648.686 1146.22 652.332L1154.03 654.068C1154.82 650.514 1155.68 646.959 1156.6 643.404L1148.85 641.396ZM1146.2 652.445L1144.2 662.845L1152.05 664.355L1154.05 653.955L1146.2 652.445ZM1148.95 667.514L1179.35 661.114L1177.7 653.286L1147.3 659.686L1148.95 667.514ZM1174.54 656.926L1172.74 683.126L1180.72 683.674L1182.52 657.474L1174.54 656.926ZM1176.07 679.453C1161.5 681.86 1150.05 684.079 1141.77 686.116L1143.68 693.884C1151.67 691.921 1162.88 689.74 1177.38 687.347L1176.07 679.453ZM1138.81 689.176C1138.27 691.775 1137.79 694.375 1137.38 696.976L1145.28 698.224C1145.67 695.758 1146.12 693.292 1146.64 690.824L1138.81 689.176ZM1137.4 696.856L1136 704.256L1143.86 705.744L1145.26 698.344L1137.4 696.856ZM1140.51 708.958L1175.91 703.758L1174.75 695.842L1139.35 701.042L1140.51 708.958ZM1171.34 699.528L1168.94 734.728L1176.92 735.272L1179.32 700.072L1171.34 699.528ZM1172.58 731.015C1154 732.642 1130.7 737.099 1102.73 744.327L1104.73 752.073C1132.49 744.901 1155.32 740.558 1173.28 738.985L1172.58 731.015ZM1107.67 748.856L1130.27 612.856L1122.38 611.544L1099.78 747.544L1107.67 748.856ZM1126.91 616.158L1189.71 606.958L1188.55 599.042L1125.75 608.242L1126.91 616.158ZM1185.14 602.728L1182.74 637.928L1190.72 638.472L1193.12 603.272L1185.14 602.728ZM1186.38 634.215C1174.03 635.289 1162.59 636.701 1152.07 638.454L1153.38 646.346C1163.67 644.632 1174.89 643.244 1187.07 642.185L1186.38 634.215ZM1277.6 647.6L1279.09 651.314L1281.29 650.432L1281.57 648.073L1277.6 647.6ZM1263.2 653.2L1264.62 656.939L1264.62 656.938L1263.2 653.2ZM1249 658.6H1245V664.401L1250.42 662.339L1249 658.6ZM1230.2 657.6L1227.18 654.971L1227.18 654.98L1230.2 657.6ZM1225.8 669L1221.84 669.586L1221.85 669.622L1221.85 669.658L1225.8 669ZM1242.6 671.6L1243.26 675.546L1243.37 675.527L1243.48 675.502L1242.6 671.6ZM1275.4 680.8L1271.51 681.72L1271.53 681.825L1271.56 681.929L1275.4 680.8ZM1276.4 688L1280.4 688.066L1280.4 688.033V688H1276.4ZM1267.2 714.2L1263.84 712.037L1263.83 712.041L1267.2 714.2ZM1234 745.2L1231.97 741.753L1231.97 741.754L1234 745.2ZM1192.6 746.2L1188.95 744.569L1187.48 747.847L1190.58 749.655L1192.6 746.2ZM1208 712.8L1210.22 709.472L1206.35 706.893L1204.38 711.103L1208 712.8ZM1227.2 716L1228.12 719.894L1228.19 719.876L1228.26 719.856L1227.2 716ZM1238.4 711.6L1240.24 715.151L1240.29 715.127L1240.33 715.101L1238.4 711.6ZM1245.8 703L1241.8 702.833L1241.8 703.008L1241.8 703.182L1245.8 703ZM1222.8 700.4L1223.64 704.31L1222.8 700.4ZM1196.6 700L1194.32 703.285L1194.33 703.293L1194.34 703.301L1196.6 700ZM1190.6 684.6L1194.57 685.058L1194.58 685.038L1194.58 685.017L1190.6 684.6ZM1217.6 635.8L1220.58 638.463L1220.59 638.455L1217.6 635.8ZM1261 606L1260.77 602.006L1260.73 602.009L1260.69 602.012L1261 606ZM1278.8 632.6L1282.8 632.721L1282.8 632.646L1282.8 632.571L1278.8 632.6ZM1276.11 643.886C1272.14 645.475 1267.36 647.334 1261.78 649.462L1264.62 656.938C1270.24 654.8 1275.06 652.925 1279.09 651.314L1276.11 643.886ZM1261.78 649.461L1247.58 654.861L1250.42 662.339L1264.62 656.939L1261.78 649.461ZM1253 658.6C1253 655.419 1252.57 652.388 1251.23 650.024C1249.69 647.325 1247.13 645.8 1244 645.8V653.8C1244.23 653.8 1244.24 653.845 1244.16 653.8C1244.09 653.757 1244.14 653.752 1244.27 653.976C1244.6 654.545 1245 655.914 1245 658.6H1253ZM1244 645.8C1237.71 645.8 1232.11 649.324 1227.18 654.971L1233.22 660.229C1237.36 655.476 1240.95 653.8 1244 653.8V645.8ZM1227.18 654.98C1223.3 659.451 1221.07 664.386 1221.84 669.586L1229.76 668.414C1229.46 666.414 1230.16 663.749 1233.22 660.22L1227.18 654.98ZM1221.85 669.658C1222.29 672.263 1223.9 674.174 1226.11 675.278C1228.11 676.278 1230.53 676.6 1233 676.6V668.6C1231.07 668.6 1230.09 668.322 1229.69 668.122C1229.53 668.043 1229.56 668.022 1229.63 668.119C1229.67 668.165 1229.7 668.217 1229.72 668.268C1229.74 668.318 1229.75 668.347 1229.75 668.342L1221.85 669.658ZM1233 676.6C1235.72 676.6 1239.17 676.227 1243.26 675.546L1241.94 667.654C1238.03 668.306 1235.08 668.6 1233 668.6V676.6ZM1243.48 675.502C1248.6 674.35 1253.1 673.8 1257 673.8V665.8C1252.37 665.8 1247.27 666.45 1241.72 667.698L1243.48 675.502ZM1257 673.8C1261.86 673.8 1265.23 674.656 1267.45 675.983C1269.53 677.229 1270.87 679.041 1271.51 681.72L1279.29 679.88C1278.19 675.225 1275.6 671.538 1271.55 669.117C1267.64 666.777 1262.67 665.8 1257 665.8V673.8ZM1271.56 681.929C1272.11 683.803 1272.4 685.821 1272.4 688H1280.4C1280.4 685.112 1280.02 682.33 1279.24 679.671L1271.56 681.929ZM1272.4 687.934C1272.28 695.099 1269.57 703.11 1263.84 712.037L1270.56 716.363C1276.83 706.623 1280.25 697.168 1280.4 688.066L1272.4 687.934ZM1263.83 712.041C1256.35 723.711 1245.77 733.628 1231.97 741.753L1236.03 748.647C1250.76 739.972 1262.32 729.222 1270.57 716.359L1263.83 712.041ZM1231.97 741.754C1224.99 745.865 1218.35 747.8 1212 747.8V755.8C1220.05 755.8 1228.07 753.335 1236.03 748.646L1231.97 741.754ZM1212 747.8C1206.27 747.8 1200.49 746.17 1194.62 742.745L1190.58 749.655C1197.51 753.697 1204.67 755.8 1212 755.8V747.8ZM1196.25 747.831C1199.57 740.398 1204.69 729.292 1211.62 714.497L1204.38 711.103C1197.44 725.908 1192.3 737.068 1188.95 744.569L1196.25 747.831ZM1205.78 716.128C1210.4 719.205 1215.43 720.8 1220.8 720.8V712.8C1217.11 712.8 1213.6 711.728 1210.22 709.472L1205.78 716.128ZM1220.8 720.8C1223.15 720.8 1225.6 720.486 1228.12 719.894L1226.28 712.106C1224.27 712.58 1222.45 712.8 1220.8 712.8V720.8ZM1228.26 719.856C1232.4 718.714 1236.4 717.145 1240.24 715.151L1236.56 708.049C1233.2 709.789 1229.73 711.152 1226.14 712.144L1228.26 719.856ZM1240.33 715.101C1243.09 713.58 1245.42 711.891 1247.08 709.959C1248.78 707.983 1249.92 705.572 1249.8 702.818L1241.8 703.182C1241.81 703.361 1241.78 703.85 1241.02 704.741C1240.21 705.676 1238.78 706.82 1236.47 708.099L1240.33 715.101ZM1249.8 703.167C1249.92 700.257 1248.71 697.645 1246.14 696.018C1243.91 694.615 1241.07 694.2 1238.2 694.2V702.2C1240.53 702.2 1241.55 702.585 1241.86 702.782C1241.95 702.839 1241.89 702.815 1241.82 702.689C1241.77 702.576 1241.81 702.579 1241.8 702.833L1249.8 703.167ZM1238.2 694.2C1234.29 694.2 1228.82 695.011 1221.96 696.49L1223.64 704.31C1230.38 702.856 1235.18 702.2 1238.2 702.2V694.2ZM1221.96 696.49C1215.22 697.944 1210.42 698.6 1207.4 698.6V706.6C1211.31 706.6 1216.78 705.789 1223.64 704.31L1221.96 696.49ZM1207.4 698.6C1203.15 698.6 1200.46 697.797 1198.86 696.699L1194.34 703.301C1197.8 705.67 1202.32 706.6 1207.4 706.6V698.6ZM1198.88 696.715C1195.55 694.401 1193.9 690.869 1194.57 685.058L1186.63 684.142C1185.7 692.198 1188.05 698.932 1194.32 703.285L1198.88 696.715ZM1194.58 685.017C1195.91 672.278 1204.23 656.793 1220.58 638.463L1214.62 633.137C1197.9 651.874 1188.22 668.922 1186.62 684.183L1194.58 685.017ZM1220.59 638.455C1228.86 629.134 1236.44 622.169 1243.31 617.447C1250.21 612.714 1256.19 610.382 1261.31 609.988L1260.69 602.012C1253.68 602.551 1246.36 605.653 1238.79 610.852C1231.2 616.064 1223.14 623.533 1214.61 633.145L1220.59 638.455ZM1261.23 609.994C1265.85 609.731 1268.84 611.255 1270.93 614.375C1273.24 617.839 1274.74 623.71 1274.8 632.629L1282.8 632.571C1282.73 623.09 1281.19 615.328 1277.57 609.925C1273.73 604.178 1267.88 601.603 1260.77 602.006L1261.23 609.994ZM1274.8 632.479C1274.67 636.734 1274.28 641.613 1273.63 647.127L1281.57 648.073C1282.25 642.387 1282.66 637.266 1282.8 632.721L1274.8 632.479ZM1267.05 750.4L1263.32 748.942L1260.8 755.398L1267.65 754.354L1267.05 750.4ZM1311.85 613.2L1311.19 609.254L1308.62 609.681L1307.97 612.205L1311.85 613.2ZM1369.65 603.6L1373.59 604.271L1374.53 598.734L1368.99 599.654L1369.65 603.6ZM1360.85 739.6L1361.75 743.497L1364.89 742.77L1364.85 739.549L1360.85 739.6ZM1320.25 749L1316.28 748.533L1315.61 754.179L1321.15 752.897L1320.25 749ZM1323.05 725.2L1327.02 725.667L1327.66 720.233L1322.29 721.273L1323.05 725.2ZM1310.65 727.6L1309.89 723.673L1307.39 724.157L1306.77 726.63L1310.65 727.6ZM1306.45 744.4L1307.05 748.354L1309.68 747.954L1310.33 745.37L1306.45 744.4ZM1326.45 699.8L1327.19 703.731L1330.07 703.19L1330.42 700.276L1326.45 699.8ZM1335.05 628L1339.02 628.476L1339.56 624H1335.05V628ZM1334.85 628V624H1331.71L1330.96 627.05L1334.85 628ZM1316.85 701.6L1312.96 700.65L1311.49 706.674L1317.59 705.531L1316.85 701.6ZM1270.77 751.858C1289.36 704.391 1304.34 658.502 1315.72 614.195L1307.97 612.205C1296.69 656.164 1281.8 701.743 1263.32 748.942L1270.77 751.858ZM1312.5 617.146L1370.3 607.546L1368.99 599.654L1311.19 609.254L1312.5 617.146ZM1365.71 602.929C1359.12 641.632 1356.18 687.219 1356.85 739.651L1364.85 739.549C1364.18 687.448 1367.11 642.368 1373.59 604.271L1365.71 602.929ZM1359.95 735.703L1319.35 745.103L1321.15 752.897L1361.75 743.497L1359.95 735.703ZM1324.22 749.467L1327.02 725.667L1319.08 724.733L1316.28 748.533L1324.22 749.467ZM1322.29 721.273L1309.89 723.673L1311.41 731.527L1323.81 729.127L1322.29 721.273ZM1306.77 726.63L1302.57 743.43L1310.33 745.37L1314.53 728.57L1306.77 726.63ZM1305.85 740.446L1266.45 746.446L1267.65 754.354L1307.05 748.354L1305.85 740.446ZM1330.42 700.276L1339.02 628.476L1331.08 627.524L1322.48 699.324L1330.42 700.276ZM1335.05 624H1334.85V632H1335.05V624ZM1330.96 627.05L1312.96 700.65L1320.73 702.55L1338.73 628.95L1330.96 627.05ZM1317.59 705.531L1327.19 703.731L1325.71 695.869L1316.11 697.669L1317.59 705.531ZM1393.74 614.6L1392.94 610.68L1390.27 611.221L1389.8 613.909L1393.74 614.6ZM1426.34 608L1430.33 608.275L1430.69 603.038L1425.54 604.08L1426.34 608ZM1427.54 670L1423.55 670.325L1423.55 670.376L1423.56 670.426L1427.54 670ZM1430.54 688L1426.67 689.024L1434.48 688.682L1430.54 688ZM1443.34 614L1442.62 610.065L1439.87 610.568L1439.4 613.318L1443.34 614ZM1476.14 608L1480.01 609.008L1481.59 602.936L1475.42 604.065L1476.14 608ZM1450.34 739.8L1451.41 743.654L1454.02 742.926L1454.31 740.228L1450.34 739.8ZM1420.14 748.2H1416.14V753.464L1421.21 752.054L1420.14 748.2ZM1417.74 741.6L1413.96 742.913L1413.98 742.979L1414.01 743.044L1417.74 741.6ZM1407.94 713.4L1404.13 714.638L1404.15 714.676L1404.16 714.713L1407.94 713.4ZM1405.14 704.8L1408.94 703.562L1401.21 704.063L1405.14 704.8ZM1398.74 748.2L1399.89 752.031L1402.44 751.266L1402.72 748.617L1398.74 748.2ZM1368.74 757.2L1364.8 756.509L1363.68 762.894L1369.89 761.031L1368.74 757.2ZM1394.53 618.52L1427.13 611.92L1425.54 604.08L1392.94 610.68L1394.53 618.52ZM1422.35 607.725C1422.07 611.73 1421.94 617.372 1421.94 624.6H1429.94C1429.94 617.428 1430.07 612.003 1430.33 608.275L1422.35 607.725ZM1421.94 624.6C1421.94 641.877 1422.47 657.123 1423.55 670.325L1431.52 669.675C1430.47 656.743 1429.94 641.723 1429.94 624.6H1421.94ZM1423.56 670.426C1424.37 677.99 1425.4 684.214 1426.67 689.024L1434.4 686.976C1433.28 682.72 1432.3 676.943 1431.51 669.574L1423.56 670.426ZM1434.48 688.682L1447.28 614.682L1439.4 613.318L1426.6 687.318L1434.48 688.682ZM1444.06 617.935L1476.86 611.935L1475.42 604.065L1442.62 610.065L1444.06 617.935ZM1472.27 606.992C1459.04 657.78 1450.39 701.916 1446.36 739.372L1454.31 740.228C1458.29 703.284 1466.84 659.553 1480.01 609.008L1472.27 606.992ZM1449.27 735.946L1419.07 744.346L1421.21 752.054L1451.41 743.654L1449.27 735.946ZM1424.14 748.2C1424.14 747.559 1423.97 746.996 1423.96 746.979C1423.91 746.787 1423.85 746.587 1423.79 746.403C1423.67 746.029 1423.5 745.548 1423.3 744.983C1422.88 743.844 1422.27 742.23 1421.47 740.156L1414.01 743.044C1414.8 745.103 1415.39 746.656 1415.78 747.717C1415.97 748.252 1416.1 748.63 1416.18 748.872C1416.22 748.996 1416.24 749.045 1416.24 749.04C1416.23 749.039 1416.22 748.986 1416.2 748.899C1416.2 748.867 1416.14 748.583 1416.14 748.2H1424.14ZM1421.52 740.287L1411.72 712.087L1404.16 714.713L1413.96 742.913L1421.52 740.287ZM1411.74 712.162L1408.94 703.562L1401.33 706.038L1404.13 714.638L1411.74 712.162ZM1401.21 704.063C1398.39 719.094 1396.24 733.668 1394.76 747.783L1402.72 748.617C1404.17 734.732 1406.29 720.373 1409.07 705.537L1401.21 704.063ZM1397.59 744.369L1367.59 753.369L1369.89 761.031L1399.89 752.031L1397.59 744.369ZM1372.68 757.891L1397.68 615.291L1389.8 613.909L1364.8 756.509L1372.68 757.891ZM1455.33 750.4L1451.61 748.942L1449.08 755.398L1455.93 754.354L1455.33 750.4ZM1500.13 613.2L1499.47 609.254L1496.9 609.681L1496.26 612.205L1500.13 613.2ZM1557.93 603.6L1561.87 604.271L1562.82 598.734L1557.27 599.654L1557.93 603.6ZM1549.13 739.6L1550.03 743.497L1553.17 742.77L1553.13 739.549L1549.13 739.6ZM1508.53 749L1504.56 748.533L1503.89 754.179L1509.43 752.897L1508.53 749ZM1511.33 725.2L1515.3 725.667L1515.94 720.233L1510.57 721.273L1511.33 725.2ZM1498.93 727.6L1498.17 723.673L1495.67 724.157L1495.05 726.63L1498.93 727.6ZM1494.73 744.4L1495.33 748.354L1497.96 747.954L1498.61 745.37L1494.73 744.4ZM1514.73 699.8L1515.47 703.731L1518.35 703.19L1518.7 700.276L1514.73 699.8ZM1523.33 628L1527.3 628.476L1527.84 624H1523.33V628ZM1523.13 628V624H1519.99L1519.24 627.05L1523.13 628ZM1505.13 701.6L1501.24 700.65L1499.77 706.674L1505.87 705.531L1505.13 701.6ZM1459.05 751.858C1477.64 704.391 1492.63 658.502 1504 614.195L1496.26 612.205C1484.97 656.164 1470.09 701.743 1451.61 748.942L1459.05 751.858ZM1500.79 617.146L1558.59 607.546L1557.27 599.654L1499.47 609.254L1500.79 617.146ZM1553.99 602.929C1547.4 641.632 1544.46 687.219 1545.13 739.651L1553.13 739.549C1552.46 687.448 1555.39 642.368 1561.87 604.271L1553.99 602.929ZM1548.23 735.703L1507.63 745.103L1509.43 752.897L1550.03 743.497L1548.23 735.703ZM1512.5 749.467L1515.3 725.667L1507.36 724.733L1504.56 748.533L1512.5 749.467ZM1510.57 721.273L1498.17 723.673L1499.69 731.527L1512.09 729.127L1510.57 721.273ZM1495.05 726.63L1490.85 743.43L1498.61 745.37L1502.81 728.57L1495.05 726.63ZM1494.13 740.446L1454.73 746.446L1455.93 754.354L1495.33 748.354L1494.13 740.446ZM1518.7 700.276L1527.3 628.476L1519.36 627.524L1510.76 699.324L1518.7 700.276ZM1523.33 624H1523.13V632H1523.33V624ZM1519.24 627.05L1501.24 700.65L1509.02 702.55L1527.02 628.95L1519.24 627.05ZM1505.87 705.531L1515.47 703.731L1513.99 695.869L1504.39 697.669L1505.87 705.531ZM1580.62 614L1579.89 610.066L1577.15 610.571L1576.68 613.319L1580.62 614ZM1613.22 608L1617.09 609.001L1618.66 602.931L1612.49 604.066L1613.22 608ZM1592.22 705L1588.27 704.342L1587.36 709.809L1592.84 708.952L1592.22 705ZM1625.42 699.8L1629.41 700.117L1629.81 695.064L1624.8 695.848L1625.42 699.8ZM1622.62 735L1622.99 738.983L1626.34 738.671L1626.61 735.317L1622.62 735ZM1557.42 748.2L1553.48 747.519L1552.4 753.722L1558.48 752.058L1557.42 748.2ZM1581.34 617.934L1613.94 611.934L1612.49 604.066L1579.89 610.066L1581.34 617.934ZM1609.35 606.999C1600.26 642.157 1593.23 674.606 1588.27 704.342L1596.16 705.658C1601.07 676.194 1608.05 643.977 1617.09 609.001L1609.35 606.999ZM1592.84 708.952L1626.04 703.752L1624.8 695.848L1591.6 701.048L1592.84 708.952ZM1621.43 699.483L1618.63 734.683L1626.61 735.317L1629.41 700.117L1621.43 699.483ZM1622.25 731.017C1604.72 732.647 1582.74 737.112 1556.36 744.342L1558.48 752.058C1584.63 744.888 1606.11 740.553 1622.99 738.983L1622.25 731.017ZM1561.36 748.881L1584.56 614.681L1576.68 613.319L1553.48 747.519L1561.36 748.881Z" fill="#EEEEEE"/>
<path d="M570.65 742.006L568.588 741.851L568.502 743.917L568.002 755.917L567.962 756.876L568.686 757.508L588.186 774.508L591.346 777.263L591.499 773.073L592.499 745.573L592.569 743.65L590.65 743.506L570.65 742.006Z" fill="#3B0B39" stroke="#EEEEEE" stroke-width="4"/>
<path d="M446.478 750.4C465.011 703.067 479.945 657.333 491.278 613.2L549.078 603.6C542.545 642 539.611 687.333 540.278 739.6L499.678 749L502.478 725.2L490.078 727.6L485.878 744.4L446.478 750.4ZM505.878 699.8L514.478 628H514.278L496.278 701.6L505.878 699.8ZM616.122 604.8C629.189 604.8 638.855 611.933 645.122 626.2L623.722 649.8C620.655 646.733 617.255 645.2 613.522 645.2C606.722 645.2 599.722 650.933 592.522 662.4C586.789 671.867 582.989 680.733 581.122 689C580.322 692.867 579.922 696.4 579.922 699.6C579.789 708.133 582.855 713.933 589.122 717C591.255 718.067 593.455 718.6 595.722 718.6C602.255 718.6 609.122 713.733 616.322 704L622.322 726.6C609.655 740.467 596.922 747.4 584.122 747.4C570.922 747.4 561.322 740.467 555.322 726.6C551.722 718.467 549.989 709.4 550.122 699.4C550.122 692.067 550.989 684.267 552.722 676C556.722 659.2 563.922 643.867 574.322 630C587.122 613.2 601.055 604.8 616.122 604.8ZM618.744 750.4C637.277 703.067 652.21 657.333 663.544 613.2L721.344 603.6C714.81 642 711.877 687.333 712.544 739.6L671.944 749L674.744 725.2L662.344 727.6L658.144 744.4L618.744 750.4ZM678.144 699.8L686.744 628H686.544L668.544 701.6L678.144 699.8ZM744.433 614L777.033 608C763.966 658.667 755.366 702.6 751.233 739.8L721.233 748.2L744.433 614Z" fill="url(#paint1_linear_51_115)"/>
<path d="M446.478 750.4L442.753 748.942L440.225 755.398L447.08 754.354L446.478 750.4ZM491.278 613.2L490.623 609.254L488.052 609.681L487.404 612.205L491.278 613.2ZM549.078 603.6L553.021 604.271L553.964 598.734L548.423 599.654L549.078 603.6ZM540.278 739.6L541.18 743.497L544.319 742.77L544.278 739.549L540.278 739.6ZM499.678 749L495.706 748.533L495.041 754.179L500.58 752.897L499.678 749ZM502.478 725.2L506.451 725.667L507.09 720.233L501.718 721.273L502.478 725.2ZM490.078 727.6L489.318 723.673L486.816 724.157L486.198 726.63L490.078 727.6ZM485.878 744.4L486.48 748.354L489.113 747.954L489.759 745.37L485.878 744.4ZM505.878 699.8L506.615 703.731L509.501 703.19L509.85 700.276L505.878 699.8ZM514.478 628L518.45 628.476L518.986 624H514.478V628ZM514.278 628V624H511.139L510.393 627.05L514.278 628ZM496.278 701.6L492.393 700.65L490.919 706.674L497.015 705.531L496.278 701.6ZM450.203 751.858C468.789 704.391 483.774 658.502 495.152 614.195L487.404 612.205C476.115 656.164 461.234 701.743 442.753 748.942L450.203 751.858ZM491.934 617.146L549.734 607.546L548.423 599.654L490.623 609.254L491.934 617.146ZM545.135 602.929C538.55 641.632 535.61 687.219 536.278 739.651L544.278 739.549C543.613 687.448 546.54 642.368 553.021 604.271L545.135 602.929ZM539.376 735.703L498.776 745.103L500.58 752.897L541.18 743.497L539.376 735.703ZM503.651 749.467L506.451 725.667L498.506 724.733L495.706 748.533L503.651 749.467ZM501.718 721.273L489.318 723.673L490.838 731.527L503.238 729.127L501.718 721.273ZM486.198 726.63L481.998 743.43L489.759 745.37L493.959 728.57L486.198 726.63ZM485.276 740.446L445.876 746.446L447.08 754.354L486.48 748.354L485.276 740.446ZM509.85 700.276L518.45 628.476L510.507 627.524L501.907 699.324L509.85 700.276ZM514.478 624H514.278V632H514.478V624ZM510.393 627.05L492.393 700.65L500.164 702.55L518.164 628.95L510.393 627.05ZM497.015 705.531L506.615 703.731L505.141 695.869L495.541 697.669L497.015 705.531ZM645.122 626.2L648.085 628.887L649.827 626.966L648.784 624.591L645.122 626.2ZM623.722 649.8L620.893 652.628L623.864 655.599L626.685 652.487L623.722 649.8ZM592.522 662.4L589.134 660.273L589.117 660.3L589.1 660.328L592.522 662.4ZM581.122 689L577.22 688.119L577.212 688.154L577.205 688.19L581.122 689ZM579.922 699.6L583.921 699.662L583.922 699.631V699.6H579.922ZM589.122 717L590.911 713.422L590.895 713.415L590.88 713.407L589.122 717ZM616.322 704L620.188 702.974L618.053 694.933L613.106 701.621L616.322 704ZM622.322 726.6L625.275 729.298L626.748 727.685L626.188 725.574L622.322 726.6ZM555.322 726.6L558.993 725.012L558.986 724.996L558.98 724.981L555.322 726.6ZM550.122 699.4L554.122 699.453L554.122 699.427V699.4H550.122ZM552.722 676L548.831 675.074L548.818 675.126L548.807 675.179L552.722 676ZM574.322 630L571.14 627.576L571.131 627.588L571.122 627.6L574.322 630ZM616.122 608.8C621.88 608.8 626.712 610.355 630.797 613.369C634.925 616.415 638.526 621.13 641.46 627.809L648.784 624.591C645.451 617.004 641.086 611.019 635.547 606.931C629.965 602.812 623.431 600.8 616.122 600.8V608.8ZM642.159 623.513L620.759 647.113L626.685 652.487L648.085 628.887L642.159 623.513ZM626.55 646.972C622.865 643.286 618.488 641.2 613.522 641.2V649.2C616.022 649.2 618.446 650.181 620.893 652.628L626.55 646.972ZM613.522 641.2C608.931 641.2 604.615 643.148 600.637 646.405C596.68 649.646 592.862 654.336 589.134 660.273L595.909 664.527C599.382 658.997 602.663 655.087 605.706 652.595C608.729 650.119 611.312 649.2 613.522 649.2V641.2ZM589.1 660.328C583.208 670.057 579.206 679.326 577.22 688.119L585.024 689.881C586.771 682.141 590.369 673.677 595.943 664.472L589.1 660.328ZM577.205 688.19C576.362 692.264 575.922 696.073 575.922 699.6H583.922C583.922 696.727 584.282 693.47 585.039 689.81L577.205 688.19ZM575.922 699.538C575.848 704.28 576.657 708.572 578.586 712.22C580.54 715.916 583.522 718.713 587.364 720.593L590.88 713.407C588.456 712.221 586.77 710.584 585.658 708.48C584.52 706.328 583.862 703.453 583.921 699.662L575.922 699.538ZM587.333 720.578C589.992 721.907 592.802 722.6 595.722 722.6V714.6C594.109 714.6 592.518 714.226 590.911 713.422L587.333 720.578ZM595.722 722.6C604.281 722.6 612.192 716.31 619.538 706.379L613.106 701.621C606.052 711.157 600.229 714.6 595.722 714.6V722.6ZM612.456 705.026L618.456 727.626L626.188 725.574L620.188 702.974L612.456 705.026ZM619.369 723.902C607.102 737.331 595.359 743.4 584.122 743.4V751.4C598.485 751.4 612.209 743.602 625.275 729.298L619.369 723.902ZM584.122 743.4C578.262 743.4 573.405 741.876 569.364 738.957C565.288 736.014 561.785 731.463 558.993 725.012L551.651 728.188C554.859 735.603 559.156 741.453 564.68 745.443C570.239 749.458 576.782 751.4 584.122 751.4V743.4ZM558.98 724.981C555.64 717.436 553.995 708.95 554.122 699.453L546.122 699.347C545.982 709.85 547.804 719.497 551.664 728.219L558.98 724.981ZM554.122 699.4C554.122 692.38 554.952 684.857 556.637 676.821L548.807 675.179C547.025 683.676 546.122 691.753 546.122 699.4H554.122ZM556.613 676.926C560.486 660.662 567.45 645.83 577.522 632.4L571.122 627.6C560.394 641.904 552.958 657.738 548.831 675.074L556.613 676.926ZM577.504 632.424C589.87 616.194 602.754 608.8 616.122 608.8V600.8C599.356 600.8 584.374 610.206 571.14 627.576L577.504 632.424ZM618.744 750.4L615.019 748.942L612.491 755.398L619.346 754.354L618.744 750.4ZM663.544 613.2L662.888 609.254L660.318 609.681L659.669 612.205L663.544 613.2ZM721.344 603.6L725.287 604.271L726.229 598.734L720.688 599.654L721.344 603.6ZM712.544 739.6L713.446 743.497L716.585 742.77L716.543 739.549L712.544 739.6ZM671.944 749L667.971 748.533L667.307 754.179L672.846 752.897L671.944 749ZM674.744 725.2L678.716 725.667L679.356 720.233L673.984 721.273L674.744 725.2ZM662.344 727.6L661.584 723.673L659.081 724.157L658.463 726.63L662.344 727.6ZM658.144 744.4L658.746 748.354L661.378 747.954L662.024 745.37L658.144 744.4ZM678.144 699.8L678.881 703.731L681.766 703.19L682.115 700.276L678.144 699.8ZM686.744 628L690.715 628.476L691.251 624H686.744V628ZM686.544 628V624H683.404L682.658 627.05L686.544 628ZM668.544 701.6L664.658 700.65L663.185 706.674L669.281 705.531L668.544 701.6ZM622.468 751.858C641.054 704.391 656.04 658.502 667.418 614.195L659.669 612.205C648.381 656.164 633.5 701.743 615.019 748.942L622.468 751.858ZM664.199 617.146L721.999 607.546L720.688 599.654L662.888 609.254L664.199 617.146ZM717.4 602.929C710.815 641.632 707.875 687.219 708.544 739.651L716.543 739.549C715.879 687.448 718.805 642.368 725.287 604.271L717.4 602.929ZM711.642 735.703L671.042 745.103L672.846 752.897L713.446 743.497L711.642 735.703ZM675.916 749.467L678.716 725.667L670.771 724.733L667.971 748.533L675.916 749.467ZM673.984 721.273L661.584 723.673L663.104 731.527L675.504 729.127L673.984 721.273ZM658.463 726.63L654.263 743.43L662.024 745.37L666.224 728.57L658.463 726.63ZM657.542 740.446L618.142 746.446L619.346 754.354L658.746 748.354L657.542 740.446ZM682.115 700.276L690.715 628.476L682.772 627.524L674.172 699.324L682.115 700.276ZM686.744 624H686.544V632H686.744V624ZM682.658 627.05L664.658 700.65L672.429 702.55L690.429 628.95L682.658 627.05ZM669.281 705.531L678.881 703.731L677.407 695.869L667.807 697.669L669.281 705.531ZM744.433 614L743.709 610.066L740.966 610.571L740.491 613.319L744.433 614ZM777.033 608L780.906 608.999L782.471 602.932L776.309 604.066L777.033 608ZM751.233 739.8L752.311 743.652L754.91 742.924L755.208 740.242L751.233 739.8ZM721.233 748.2L717.291 747.519L716.212 753.76L722.311 752.052L721.233 748.2ZM745.157 617.934L777.757 611.934L776.309 604.066L743.709 610.066L745.157 617.934ZM773.16 607.001C760.063 657.785 751.418 701.913 747.257 739.358L755.208 740.242C759.314 703.287 767.87 659.549 780.906 608.999L773.16 607.001ZM750.154 735.948L720.154 744.348L722.311 752.052L752.311 743.652L750.154 735.948ZM725.174 748.881L748.374 614.681L740.491 613.319L717.291 747.519L725.174 748.881Z" fill="#EEEEEE"/>
<path d="M748.775 591.562L747.364 591.828L747.165 593.25L745.635 604.148L745.248 606.906L747.986 606.391L777.353 600.863L778.764 600.598L778.963 599.176L780.493 588.278L780.88 585.519L778.142 586.034L748.775 591.562Z" fill="#652063" stroke="#EEEEEE" stroke-width="4"/>
<path d="M904.48 484.96L924.04 481C923.88 483.32 923.8 486.64 923.8 490.96C923.8 501.28 924.12 510.36 924.76 518.2C925.24 522.68 925.84 526.28 926.56 529L934.24 484.6L953.92 481C946 511.4 940.84 537.76 938.44 560.08L920.32 565.12C920.32 564.96 919.84 563.64 918.88 561.16L913 544.24L911.32 539.08C909.64 548.04 908.36 556.72 907.48 565.12L889.48 570.52L904.48 484.96ZM992.195 475.96C1000.2 475.96 1005.88 480.44 1009.24 489.4C1011 494.04 1011.88 499.12 1011.88 504.64C1011.88 510 1011.04 515.76 1009.36 521.92C1006.64 532.56 1001.8 542.36 994.835 551.32C986.435 562.28 977.515 567.76 968.075 567.76C959.995 567.76 954.235 563.28 950.795 554.32C949.195 549.92 948.355 545 948.275 539.56C948.355 534.12 949.235 528.24 950.915 521.92C953.715 511.28 958.515 501.48 965.315 492.52C973.715 481.48 982.675 475.96 992.195 475.96ZM987.995 504.16C983.835 504.16 979.595 507.6 975.275 514.48C971.755 519.84 969.315 525.12 967.955 530.32C967.235 533.04 966.915 535.48 966.995 537.64C966.995 540.76 967.755 543.32 969.275 545.32C971.035 547.48 973.475 548.56 976.595 548.56C980.835 548.56 984.635 546.32 987.995 541.84C990.795 538.32 992.795 534.12 993.995 529.24C995.355 523.56 995.635 517.96 994.835 512.44C993.955 506.92 991.675 504.16 987.995 504.16ZM1023.17 484.48C1035.01 480.96 1044.73 479.2 1052.33 479.2C1062.57 479.2 1067.65 482.76 1067.57 489.88C1067.49 500.12 1061.05 510.4 1048.25 520.72C1049.37 523.6 1053.77 532.68 1061.45 547.96C1057.53 551.56 1051.61 556.88 1043.69 563.92L1031.45 532.6C1029.53 542.52 1028.09 551.68 1027.13 560.08L1009.37 565.12C1009.53 563.44 1010.33 558.4 1011.77 550L1023.17 484.48ZM1037.45 502.48C1036.73 505.04 1036.09 507.64 1035.53 510.28L1034.09 517.96C1036.73 516.6 1039.33 514.84 1041.89 512.68C1044.93 510.04 1046.89 507.56 1047.77 505.24C1048.09 504.52 1048.29 503.88 1048.37 503.32C1048.29 501.64 1047.17 500.8 1045.01 500.8C1043.25 500.8 1040.73 501.36 1037.45 502.48ZM1119.84 479.8L1119.24 501.04C1114.04 501.36 1109.04 501.72 1104.24 502.12C1099.2 523.16 1095.84 542.48 1094.16 560.08L1074.84 565.12L1085.28 504.52C1083.12 504.84 1081.08 505.2 1079.16 505.6L1073.16 506.68L1071.84 485.44L1119.84 479.8ZM1143.31 501.64C1142.75 503.8 1142.23 505.96 1141.75 508.12L1140.55 514.36L1158.79 510.52L1157.71 526.24C1148.99 527.68 1142.19 529 1137.31 530.2C1136.99 531.72 1136.71 533.24 1136.47 534.76L1135.63 539.2L1156.87 536.08L1155.43 557.2C1144.47 558.16 1130.63 560.8 1113.91 565.12L1127.47 483.52L1165.15 478L1163.71 499.12C1156.35 499.76 1149.55 500.6 1143.31 501.64Z" fill="url(#paint2_linear_51_115)"/>
<path d="M904.48 484.96L903.686 481.04L901.011 481.581L900.54 484.269L904.48 484.96ZM924.04 481L928.031 481.275L928.392 476.038L923.246 477.08L924.04 481ZM924.76 518.2L920.773 518.525L920.777 518.576L920.783 518.626L924.76 518.2ZM926.56 529L922.693 530.024L930.501 529.682L926.56 529ZM934.24 484.6L933.52 480.665L930.774 481.168L930.299 483.918L934.24 484.6ZM953.92 481L957.791 482.008L959.373 475.936L953.2 477.065L953.92 481ZM938.44 560.08L939.512 563.934L942.127 563.206L942.417 560.508L938.44 560.08ZM920.32 565.12H916.32V570.384L921.392 568.974L920.32 565.12ZM918.88 561.16L915.102 562.473L915.125 562.539L915.15 562.604L918.88 561.16ZM913 544.24L909.197 545.478L909.209 545.516L909.222 545.553L913 544.24ZM911.32 539.08L915.123 537.842L907.389 538.343L911.32 539.08ZM907.48 565.12L908.629 568.951L911.181 568.186L911.458 565.537L907.48 565.12ZM889.48 570.52L885.54 569.829L884.421 576.214L890.629 574.351L889.48 570.52ZM905.274 488.88L924.834 484.92L923.246 477.08L903.686 481.04L905.274 488.88ZM920.049 480.725C919.88 483.183 919.8 486.612 919.8 490.96H927.8C927.8 486.668 927.88 483.457 928.031 481.275L920.049 480.725ZM919.8 490.96C919.8 501.357 920.122 510.55 920.773 518.525L928.747 517.875C928.118 510.17 927.8 501.203 927.8 490.96H919.8ZM920.783 518.626C921.273 523.203 921.9 527.027 922.693 530.024L930.427 527.976C929.78 525.533 929.207 522.157 928.737 517.774L920.783 518.626ZM930.501 529.682L938.181 485.282L930.299 483.918L922.619 528.318L930.501 529.682ZM934.96 488.535L954.64 484.935L953.2 477.065L933.52 480.665L934.96 488.535ZM950.049 479.992C942.098 510.513 936.89 537.076 934.463 559.652L942.417 560.508C944.79 538.444 949.902 512.287 957.791 482.008L950.049 479.992ZM937.368 556.226L919.248 561.266L921.392 568.974L939.512 563.934L937.368 556.226ZM924.32 565.12C924.32 564.71 924.255 564.387 924.239 564.304C924.212 564.167 924.183 564.051 924.162 563.975C924.121 563.82 924.074 563.67 924.035 563.548C923.953 563.297 923.845 562.988 923.719 562.643C923.465 561.944 923.093 560.963 922.61 559.716L915.15 562.604C915.627 563.837 915.975 564.756 916.201 565.377C916.315 565.692 916.387 565.898 916.425 566.017C916.446 566.08 916.444 566.078 916.433 566.036C916.427 566.016 916.409 565.947 916.39 565.848C916.381 565.804 916.32 565.51 916.32 565.12H924.32ZM922.658 559.847L916.778 542.927L909.222 545.553L915.102 562.473L922.658 559.847ZM916.803 543.002L915.123 537.842L907.517 540.318L909.197 545.478L916.803 543.002ZM907.389 538.343C905.69 547.401 904.394 556.188 903.502 564.703L911.458 565.537C912.326 557.252 913.59 548.679 915.251 539.817L907.389 538.343ZM906.331 561.289L888.331 566.689L890.629 574.351L908.629 568.951L906.331 561.289ZM893.42 571.211L908.42 485.651L900.54 484.269L885.54 569.829L893.42 571.211ZM1009.24 489.4L1005.49 490.804L1005.49 490.812L1005.5 490.819L1009.24 489.4ZM1009.36 521.92L1005.5 520.868L1005.49 520.898L1005.48 520.929L1009.36 521.92ZM994.835 551.32L991.676 548.866L991.668 548.876L991.661 548.887L994.835 551.32ZM950.795 554.32L947.036 555.687L947.048 555.72L947.061 555.754L950.795 554.32ZM948.275 539.56L944.276 539.501L944.275 539.56L944.276 539.619L948.275 539.56ZM950.915 521.92L954.781 522.948L954.784 522.938L950.915 521.92ZM965.315 492.52L962.132 490.098L962.129 490.102L965.315 492.52ZM975.275 514.48L978.619 516.676L978.641 516.642L978.663 516.607L975.275 514.48ZM967.955 530.32L971.822 531.344L971.825 531.332L967.955 530.32ZM966.995 537.64H970.995V537.566L970.993 537.492L966.995 537.64ZM969.275 545.32L966.091 547.74L966.132 547.794L966.174 547.847L969.275 545.32ZM987.995 541.84L984.865 539.35L984.829 539.394L984.795 539.44L987.995 541.84ZM993.995 529.24L997.88 530.195L997.883 530.183L997.885 530.171L993.995 529.24ZM994.835 512.44L998.794 511.866L998.79 511.838L998.785 511.81L994.835 512.44ZM992.195 479.96C995.397 479.96 997.919 480.837 999.978 482.461C1002.09 484.125 1003.99 486.793 1005.49 490.804L1012.98 487.995C1011.12 483.047 1008.5 478.995 1004.93 476.179C1001.31 473.323 996.993 471.96 992.195 471.96V479.96ZM1005.5 490.819C1007.07 494.957 1007.88 499.55 1007.88 504.64H1015.88C1015.88 498.69 1014.93 493.123 1012.98 487.981L1005.5 490.819ZM1007.88 504.64C1007.88 509.584 1007.1 514.987 1005.5 520.868L1013.21 522.972C1014.97 516.533 1015.88 510.416 1015.88 504.64H1007.88ZM1005.48 520.929C1002.9 531.02 998.311 540.325 991.676 548.866L997.994 553.774C1005.28 544.395 1010.37 534.1 1013.23 522.911L1005.48 520.929ZM991.661 548.887C983.652 559.336 975.773 563.76 968.075 563.76V571.76C979.257 571.76 989.219 565.224 998.01 553.753L991.661 548.887ZM968.075 563.76C964.824 563.76 962.253 562.878 960.151 561.243C958.001 559.57 956.069 556.895 954.53 552.886L947.061 555.754C948.962 560.705 951.63 564.75 955.24 567.557C958.897 570.402 963.247 571.76 968.075 571.76V563.76ZM954.554 552.953C953.13 549.034 952.349 544.566 952.275 539.501L944.276 539.619C944.361 545.434 945.261 550.806 947.036 555.687L954.554 552.953ZM952.275 539.619C952.349 534.564 953.169 529.013 954.781 522.948L947.05 520.892C945.302 527.467 944.361 533.676 944.276 539.501L952.275 539.619ZM954.784 522.938C957.447 512.816 962.011 503.49 968.502 494.938L962.129 490.102C955.019 499.47 949.983 509.744 947.047 520.902L954.784 522.938ZM968.499 494.942C976.504 484.421 984.421 479.96 992.195 479.96V471.96C980.93 471.96 970.927 478.539 962.132 490.098L968.499 494.942ZM987.995 500.16C981.56 500.16 976.279 505.359 971.888 512.353L978.663 516.607C982.911 509.841 986.111 508.16 987.995 508.16V500.16ZM971.932 512.284C968.218 517.939 965.574 523.615 964.085 529.308L971.825 531.332C973.056 526.625 975.293 521.741 978.619 516.676L971.932 512.284ZM964.088 529.296C963.296 532.29 962.9 535.135 962.998 537.788L970.993 537.492C970.931 535.825 971.175 533.79 971.822 531.344L964.088 529.296ZM962.995 537.64C962.995 541.419 963.925 544.89 966.091 547.74L972.46 542.9C971.586 541.75 970.995 540.101 970.995 537.64H962.995ZM966.174 547.847C968.791 551.058 972.436 552.56 976.595 552.56V544.56C974.515 544.56 973.279 543.902 972.376 542.793L966.174 547.847ZM976.595 552.56C982.477 552.56 987.344 549.376 991.195 544.24L984.795 539.44C981.927 543.264 979.194 544.56 976.595 544.56V552.56ZM991.126 544.33C994.325 540.308 996.558 535.569 997.88 530.195L990.111 528.285C989.032 532.671 987.266 536.332 984.865 539.35L991.126 544.33ZM997.885 530.171C999.358 524.022 999.67 517.911 998.794 511.866L990.877 513.014C991.601 518.009 991.353 523.098 990.105 528.309L997.885 530.171ZM998.785 511.81C998.291 508.706 997.331 505.839 995.549 503.682C993.625 501.353 990.99 500.16 987.995 500.16V508.16C988.681 508.16 989.026 508.347 989.381 508.778C989.88 509.381 990.5 510.654 990.885 513.07L998.785 511.81ZM1023.17 484.48L1022.03 480.646L1019.65 481.352L1019.23 483.794L1023.17 484.48ZM1067.57 489.88L1063.57 489.835L1063.57 489.849L1067.57 489.88ZM1048.25 520.72L1045.74 517.606L1043.46 519.443L1044.52 522.17L1048.25 520.72ZM1061.45 547.96L1064.15 550.906L1066.38 548.863L1065.02 546.164L1061.45 547.96ZM1043.69 563.92L1039.96 565.376L1042.05 570.725L1046.35 566.91L1043.69 563.92ZM1031.45 532.6L1035.17 531.144L1030.15 518.278L1027.52 531.84L1031.45 532.6ZM1027.13 560.08L1028.22 563.928L1030.8 563.197L1031.1 560.534L1027.13 560.08ZM1009.37 565.12L1005.39 564.741L1004.83 570.565L1010.46 568.968L1009.37 565.12ZM1011.77 550L1007.83 549.314L1007.83 549.324L1011.77 550ZM1037.45 502.48L1036.16 498.695L1034.17 499.374L1033.6 501.397L1037.45 502.48ZM1035.53 510.28L1031.62 509.45L1031.61 509.496L1031.6 509.543L1035.53 510.28ZM1034.09 517.96L1030.16 517.223L1028.65 525.261L1035.92 521.516L1034.09 517.96ZM1041.89 512.68L1044.47 515.737L1044.49 515.719L1044.51 515.7L1041.89 512.68ZM1047.77 505.24L1044.11 503.615L1044.07 503.717L1044.03 503.821L1047.77 505.24ZM1048.37 503.32L1052.33 503.886L1052.38 503.509L1052.36 503.13L1048.37 503.32ZM1024.31 488.314C1035.98 484.845 1045.28 483.2 1052.33 483.2V475.2C1044.18 475.2 1034.04 477.075 1022.03 480.646L1024.31 488.314ZM1052.33 483.2C1057.11 483.2 1059.97 484.055 1061.52 485.146C1062.81 486.047 1063.6 487.369 1063.57 489.835L1071.57 489.925C1071.62 485.271 1069.91 481.253 1066.11 478.594C1062.59 476.125 1057.79 475.2 1052.33 475.2V483.2ZM1063.57 489.849C1063.5 498.319 1058.17 507.586 1045.74 517.606L1050.76 523.834C1063.93 513.214 1071.47 501.921 1071.57 489.911L1063.57 489.849ZM1044.52 522.17C1045.73 525.275 1050.24 534.575 1057.87 549.756L1065.02 546.164C1057.29 530.785 1053.01 521.925 1051.98 519.27L1044.52 522.17ZM1058.74 545.014C1054.85 548.591 1048.95 553.894 1041.03 560.93L1046.35 566.91C1054.27 559.866 1060.21 554.529 1064.15 550.906L1058.74 545.014ZM1047.41 562.464L1035.17 531.144L1027.72 534.056L1039.96 565.376L1047.41 562.464ZM1027.52 531.84C1025.59 541.842 1024.13 551.106 1023.15 559.626L1031.1 560.534C1032.05 552.254 1033.47 543.198 1035.38 533.36L1027.52 531.84ZM1026.04 556.232L1008.28 561.272L1010.46 568.968L1028.22 563.928L1026.04 556.232ZM1013.35 565.499C1013.49 564.007 1014.26 559.153 1015.71 550.676L1007.83 549.324C1006.4 557.647 1005.56 562.873 1005.39 564.741L1013.35 565.499ZM1015.71 550.686L1027.11 485.166L1019.23 483.794L1007.83 549.314L1015.71 550.686ZM1033.6 501.397C1032.85 504.042 1032.19 506.726 1031.62 509.45L1039.44 511.11C1039.98 508.554 1040.6 506.038 1041.3 503.563L1033.6 501.397ZM1031.6 509.543L1030.16 517.223L1038.02 518.697L1039.46 511.017L1031.6 509.543ZM1035.92 521.516C1038.86 520.002 1041.71 518.067 1044.47 515.737L1039.31 509.623C1036.95 511.613 1034.6 513.198 1032.26 514.404L1035.92 521.516ZM1044.51 515.7C1047.77 512.867 1050.29 509.867 1051.51 506.659L1044.03 503.821C1043.49 505.253 1042.08 507.213 1039.27 509.66L1044.51 515.7ZM1051.42 506.865C1051.84 505.929 1052.18 504.923 1052.33 503.886L1044.41 502.754C1044.4 502.837 1044.34 503.111 1044.11 503.615L1051.42 506.865ZM1052.36 503.13C1052.28 501.364 1051.58 499.51 1049.87 498.23C1048.33 497.077 1046.51 496.8 1045.01 496.8V504.8C1045.3 504.8 1045.43 504.83 1045.44 504.832C1045.45 504.834 1045.29 504.794 1045.07 504.63C1044.83 504.453 1044.63 504.208 1044.5 503.937C1044.38 503.685 1044.37 503.514 1044.37 503.51L1052.36 503.13ZM1045.01 496.8C1042.56 496.8 1039.53 497.542 1036.16 498.695L1038.74 506.265C1041.93 505.178 1043.93 504.8 1045.01 504.8V496.8ZM1119.84 479.8L1123.84 479.913L1123.97 475.287L1119.37 475.827L1119.84 479.8ZM1119.24 501.04L1119.48 505.032L1123.13 504.808L1123.24 501.153L1119.24 501.04ZM1104.24 502.12L1103.9 498.134L1101.02 498.374L1100.35 501.188L1104.24 502.12ZM1094.16 560.08L1095.17 563.95L1097.87 563.244L1098.14 560.46L1094.16 560.08ZM1074.84 565.12L1070.89 564.441L1069.84 570.557L1075.85 568.99L1074.84 565.12ZM1085.28 504.52L1089.22 505.199L1090.16 499.753L1084.69 500.563L1085.28 504.52ZM1079.16 505.6L1079.87 509.537L1079.92 509.527L1079.97 509.516L1079.16 505.6ZM1073.16 506.68L1069.16 506.928L1069.44 511.413L1073.87 510.617L1073.16 506.68ZM1071.84 485.44L1071.37 481.467L1067.61 481.909L1067.84 485.688L1071.84 485.44ZM1115.84 479.687L1115.24 500.927L1123.24 501.153L1123.84 479.913L1115.84 479.687ZM1118.99 497.048C1113.76 497.369 1108.74 497.731 1103.9 498.134L1104.57 506.106C1109.34 505.709 1114.31 505.351 1119.48 505.032L1118.99 497.048ZM1100.35 501.188C1095.27 522.371 1091.88 541.878 1090.17 559.7L1098.14 560.46C1099.8 543.082 1103.12 523.949 1108.13 503.052L1100.35 501.188ZM1093.15 556.21L1073.83 561.25L1075.85 568.99L1095.17 563.95L1093.15 556.21ZM1078.78 565.799L1089.22 505.199L1081.33 503.841L1070.89 564.441L1078.78 565.799ZM1084.69 500.563C1082.46 500.893 1080.35 501.267 1078.34 501.684L1079.97 509.516C1081.81 509.133 1083.77 508.787 1085.86 508.477L1084.69 500.563ZM1078.45 501.663L1072.45 502.743L1073.87 510.617L1079.87 509.537L1078.45 501.663ZM1077.15 506.432L1075.83 485.192L1067.84 485.688L1069.16 506.928L1077.15 506.432ZM1072.3 489.413L1120.3 483.773L1119.37 475.827L1071.37 481.467L1072.3 489.413ZM1143.31 501.64L1142.65 497.694L1140.09 498.121L1139.44 500.636L1143.31 501.64ZM1141.75 508.12L1137.85 507.252L1137.83 507.308L1137.82 507.365L1141.75 508.12ZM1140.55 514.36L1136.62 513.605L1135.49 519.514L1141.37 518.274L1140.55 514.36ZM1158.79 510.52L1162.78 510.794L1163.14 505.516L1157.97 506.606L1158.79 510.52ZM1157.71 526.24L1158.36 530.187L1161.48 529.671L1161.7 526.514L1157.71 526.24ZM1137.31 530.2L1136.36 526.316L1133.91 526.916L1133.4 529.376L1137.31 530.2ZM1136.47 534.76L1140.4 535.504L1140.41 535.444L1140.42 535.384L1136.47 534.76ZM1135.63 539.2L1131.7 538.456L1130.66 543.974L1136.21 543.158L1135.63 539.2ZM1156.87 536.08L1160.86 536.352L1161.2 531.401L1156.29 532.122L1156.87 536.08ZM1155.43 557.2L1155.78 561.185L1159.19 560.886L1159.42 557.472L1155.43 557.2ZM1113.91 565.12L1109.97 564.464L1108.96 570.531L1114.91 568.993L1113.91 565.12ZM1127.47 483.52L1126.89 479.562L1124 479.985L1123.53 482.864L1127.47 483.52ZM1165.15 478L1169.14 478.272L1169.48 473.323L1164.57 474.042L1165.15 478ZM1163.71 499.12L1164.06 503.105L1167.47 502.808L1167.7 499.392L1163.71 499.12ZM1139.44 500.636C1138.87 502.841 1138.34 505.046 1137.85 507.252L1145.66 508.988C1146.13 506.874 1146.63 504.759 1147.18 502.644L1139.44 500.636ZM1137.82 507.365L1136.62 513.605L1144.48 515.115L1145.68 508.875L1137.82 507.365ZM1141.37 518.274L1159.61 514.434L1157.97 506.606L1139.73 510.446L1141.37 518.274ZM1154.8 510.246L1153.72 525.966L1161.7 526.514L1162.78 510.794L1154.8 510.246ZM1157.06 522.293C1148.3 523.74 1141.38 525.079 1136.36 526.316L1138.27 534.084C1143 532.921 1149.68 531.62 1158.36 530.187L1157.06 522.293ZM1133.4 529.376C1133.06 530.962 1132.77 532.548 1132.52 534.136L1140.42 535.384C1140.65 533.932 1140.92 532.478 1141.23 531.024L1133.4 529.376ZM1132.54 534.016L1131.7 538.456L1139.56 539.944L1140.4 535.504L1132.54 534.016ZM1136.21 543.158L1157.45 540.038L1156.29 532.122L1135.05 535.242L1136.21 543.158ZM1152.88 535.808L1151.44 556.928L1159.42 557.472L1160.86 536.352L1152.88 535.808ZM1155.08 553.215C1143.81 554.202 1129.74 556.899 1112.91 561.247L1114.91 568.993C1131.52 564.701 1145.13 562.118 1155.78 561.185L1155.08 553.215ZM1117.86 565.776L1131.42 484.176L1123.53 482.864L1109.97 564.464L1117.86 565.776ZM1128.05 487.478L1165.73 481.958L1164.57 474.042L1126.89 479.562L1128.05 487.478ZM1161.16 477.728L1159.72 498.848L1167.7 499.392L1169.14 478.272L1161.16 477.728ZM1163.36 495.135C1155.92 495.783 1149.01 496.635 1142.65 497.694L1143.97 505.586C1150.09 504.565 1156.78 503.737 1164.06 503.105L1163.36 495.135Z" fill="#EEEEEE"/>
<path d="M782.96 565.72C793.12 539.72 800.84 513.28 806.12 486.4L833.36 481.96L829.52 523.84L840.08 485.2L866.24 480.64C863.2 505.36 861.64 527.68 861.56 547.6C861.64 551.52 861.68 555.44 861.68 559.36L838.4 563.44L842.48 513.52L827.6 568.72L814.88 570.52L822.68 500.32L806.36 562.48L782.96 565.72Z" fill="url(#paint3_linear_51_115)"/>
<path d="M782.96 565.72L779.234 564.264L776.752 570.618L783.509 569.682L782.96 565.72ZM806.12 486.4L805.477 482.452L802.731 482.9L802.195 485.629L806.12 486.4ZM833.36 481.96L837.343 482.325L837.815 477.181L832.717 478.012L833.36 481.96ZM829.52 523.84L825.537 523.475L833.379 524.894L829.52 523.84ZM840.08 485.2L839.393 481.259L836.891 481.696L836.222 484.146L840.08 485.2ZM866.24 480.64L870.21 481.128L870.869 475.773L865.553 476.699L866.24 480.64ZM861.56 547.6L857.56 547.584L857.56 547.633L857.561 547.682L861.56 547.6ZM861.68 559.36L862.371 563.3L865.68 562.72V559.36H861.68ZM838.4 563.44L834.413 563.114L833.992 568.274L839.091 567.38L838.4 563.44ZM842.48 513.52L846.467 513.846L838.618 512.479L842.48 513.52ZM827.6 568.72L828.16 572.681L830.775 572.311L831.462 569.761L827.6 568.72ZM814.88 570.52L810.904 570.078L810.335 575.203L815.44 574.481L814.88 570.52ZM822.68 500.32L826.656 500.762L818.811 499.304L822.68 500.32ZM806.36 562.48L806.909 566.442L809.551 566.076L810.229 563.496L806.36 562.48ZM786.686 567.176C796.931 540.958 804.718 514.289 810.045 487.171L802.195 485.629C796.962 512.271 789.309 538.482 779.234 564.264L786.686 567.176ZM806.763 490.348L834.003 485.908L832.717 478.012L805.477 482.452L806.763 490.348ZM829.377 481.595L825.537 523.475L833.503 524.205L837.343 482.325L829.377 481.595ZM833.379 524.894L843.939 486.254L836.222 484.146L825.661 522.785L833.379 524.894ZM840.767 489.141L866.927 484.581L865.553 476.699L839.393 481.259L840.767 489.141ZM862.27 480.152C859.215 504.992 857.641 527.473 857.56 547.584L865.56 547.616C865.639 527.887 867.185 505.728 870.21 481.128L862.27 480.152ZM857.561 547.682C857.64 551.574 857.68 555.467 857.68 559.36H865.68C865.68 555.413 865.64 551.466 865.559 547.518L857.561 547.682ZM860.99 555.42L837.709 559.5L839.091 567.38L862.371 563.3L860.99 555.42ZM842.387 563.766L846.467 513.846L838.493 513.194L834.413 563.114L842.387 563.766ZM838.618 512.479L823.738 567.679L831.462 569.761L846.342 514.561L838.618 512.479ZM827.04 564.759L814.32 566.559L815.44 574.481L828.16 572.681L827.04 564.759ZM818.856 570.962L826.656 500.762L818.704 499.878L810.904 570.078L818.856 570.962ZM818.811 499.304L802.491 561.464L810.229 563.496L826.549 501.336L818.811 499.304ZM805.811 558.518L782.411 561.758L783.509 569.682L806.909 566.442L805.811 558.518Z" fill="#EEEEEE"/>
<path d="M1584.25 268.2C1582.38 274.5 1580.75 280.8 1579.35 287.1L1575.85 305.3L1629.05 294.1L1625.9 339.95C1600.47 344.15 1580.63 348 1566.4 351.5C1565.47 355.933 1564.65 360.367 1563.95 364.8L1561.5 377.75L1623.45 368.65L1619.25 430.25C1587.28 433.05 1546.92 440.75 1498.15 453.35L1537.7 215.35L1647.95 199.25L1643.4 260.85C1621.93 262.717 1602.22 265.167 1584.25 268.2Z" fill="url(#paint4_linear_51_115)"/>
<path d="M1584.25 268.2L1583.58 264.256L1581.12 264.671L1580.41 267.064L1584.25 268.2ZM1579.35 287.1L1575.45 286.232L1575.43 286.288L1575.42 286.345L1579.35 287.1ZM1575.85 305.3L1571.92 304.545L1570.79 310.454L1576.67 309.214L1575.85 305.3ZM1629.05 294.1L1633.04 294.374L1633.4 289.096L1628.23 290.186L1629.05 294.1ZM1625.9 339.95L1626.55 343.897L1629.67 343.381L1629.89 340.224L1625.9 339.95ZM1566.4 351.5L1565.44 347.616L1563 348.216L1562.49 350.676L1566.4 351.5ZM1563.95 364.8L1567.88 365.544L1567.89 365.484L1567.9 365.424L1563.95 364.8ZM1561.5 377.75L1557.57 377.006L1556.53 382.524L1562.08 381.708L1561.5 377.75ZM1623.45 368.65L1627.44 368.922L1627.78 363.971L1622.87 364.692L1623.45 368.65ZM1619.25 430.25L1619.6 434.235L1623.01 433.936L1623.24 430.522L1619.25 430.25ZM1498.15 453.35L1494.2 452.694L1493.2 458.761L1499.15 457.223L1498.15 453.35ZM1537.7 215.35L1537.12 211.392L1534.23 211.814L1533.75 214.694L1537.7 215.35ZM1647.95 199.25L1651.94 199.545L1652.31 194.571L1647.37 195.292L1647.95 199.25ZM1643.4 260.85L1643.75 264.835L1647.14 264.54L1647.39 261.145L1643.4 260.85ZM1580.41 267.064C1578.52 273.451 1576.87 279.84 1575.45 286.232L1583.25 287.968C1584.63 281.76 1586.24 275.549 1588.09 269.336L1580.41 267.064ZM1575.42 286.345L1571.92 304.545L1579.78 306.055L1583.28 287.855L1575.42 286.345ZM1576.67 309.214L1629.87 298.014L1628.23 290.186L1575.03 301.386L1576.67 309.214ZM1625.06 293.826L1621.91 339.676L1629.89 340.224L1633.04 294.374L1625.06 293.826ZM1625.25 336.003C1599.78 340.21 1579.83 344.079 1565.44 347.616L1567.36 355.384C1581.44 351.921 1601.16 348.09 1626.55 343.897L1625.25 336.003ZM1562.49 350.676C1561.54 355.175 1560.71 359.675 1560 364.176L1567.9 365.424C1568.59 361.058 1569.39 356.692 1570.31 352.324L1562.49 350.676ZM1560.02 364.056L1557.57 377.006L1565.43 378.494L1567.88 365.544L1560.02 364.056ZM1562.08 381.708L1624.03 372.608L1622.87 364.692L1560.92 373.792L1562.08 381.708ZM1619.46 368.378L1615.26 429.978L1623.24 430.522L1627.44 368.922L1619.46 368.378ZM1618.9 426.265C1586.63 429.092 1546.02 436.849 1497.15 449.477L1499.15 457.223C1547.81 444.651 1587.94 437.008 1619.6 434.235L1618.9 426.265ZM1502.1 454.006L1541.65 216.006L1533.75 214.694L1494.2 452.694L1502.1 454.006ZM1538.28 219.308L1648.53 203.208L1647.37 195.292L1537.12 211.392L1538.28 219.308ZM1643.96 198.955L1639.41 260.555L1647.39 261.145L1651.94 199.545L1643.96 198.955ZM1643.05 256.865C1621.5 258.739 1601.67 261.202 1583.58 264.256L1584.92 272.144C1602.76 269.132 1622.37 266.694 1643.75 264.835L1643.05 256.865Z" fill="#EEEEEE"/>
<path d="M1310.5 571.5C1277.17 571.5 1253.5 553.5 1239.5 517.5C1232.83 499.5 1229.17 479.167 1228.5 456.5C1228.83 435.5 1232.33 412.333 1239 387C1250 343.667 1269.67 304 1298 268C1332.33 224 1369 202 1408 202C1441.67 202 1465.33 220.667 1479 258L1427 314.5C1421.33 305.833 1413 301.5 1402 301.5C1380.33 301.5 1359.83 316.333 1340.5 346C1326.5 368.667 1316 393.5 1309 420.5C1306.67 431.167 1305.33 440.833 1305 449.5C1305 462.5 1308.33 473 1315 481C1322 489.667 1332 494 1345 494C1360 494 1374 487.167 1387 473.5C1397 462.833 1405 449.333 1411 433C1387.67 437.667 1366.17 442.5 1346.5 447.5L1361.5 377.5L1487.5 351C1487.83 371.333 1483.33 394.833 1474 421.5C1465 444.833 1454.33 466.333 1442 486C1405 543 1361.17 571.5 1310.5 571.5Z" fill="url(#paint5_linear_51_115)"/>
<path d="M1239.5 517.5L1235.75 518.889L1235.76 518.92L1235.77 518.95L1239.5 517.5ZM1228.5 456.5L1224.5 456.436L1224.5 456.527L1224.5 456.618L1228.5 456.5ZM1239 387L1242.87 388.018L1242.87 388.001L1242.88 387.984L1239 387ZM1298 268L1301.14 270.474L1301.15 270.467L1301.15 270.461L1298 268ZM1479 258L1481.94 260.709L1483.59 258.915L1482.76 256.625L1479 258ZM1427 314.5L1423.65 316.689L1426.46 320.989L1429.94 317.209L1427 314.5ZM1340.5 346L1337.15 343.816L1337.12 343.857L1337.1 343.898L1340.5 346ZM1309 420.5L1305.13 419.496L1305.11 419.57L1305.09 419.645L1309 420.5ZM1305 449.5L1301 449.346L1301 449.423V449.5H1305ZM1315 481L1318.11 478.487L1318.09 478.463L1318.07 478.439L1315 481ZM1387 473.5L1389.9 476.257L1389.91 476.246L1389.92 476.236L1387 473.5ZM1411 433L1414.75 434.379L1417.22 427.677L1410.22 429.078L1411 433ZM1346.5 447.5L1342.59 446.662L1341.24 452.965L1347.49 451.377L1346.5 447.5ZM1361.5 377.5L1360.68 373.586L1358.13 374.121L1357.59 376.662L1361.5 377.5ZM1487.5 351L1491.5 350.934L1491.42 346.088L1486.68 347.086L1487.5 351ZM1474 421.5L1477.73 422.939L1477.75 422.881L1477.78 422.821L1474 421.5ZM1442 486L1445.36 488.178L1445.37 488.152L1445.39 488.125L1442 486ZM1310.5 567.5C1294.6 567.5 1281.22 563.223 1270.17 554.816C1259.08 546.378 1250.04 533.564 1243.23 516.05L1235.77 518.95C1242.96 537.436 1252.76 551.622 1265.33 561.184C1277.94 570.777 1293.07 575.5 1310.5 575.5V567.5ZM1243.25 516.111C1236.76 498.585 1233.15 478.691 1232.5 456.382L1224.5 456.618C1225.18 479.642 1228.91 500.415 1235.75 518.889L1243.25 516.111ZM1232.5 456.563C1232.83 435.954 1236.26 413.113 1242.87 388.018L1235.13 385.982C1228.4 411.554 1224.84 435.046 1224.5 456.436L1232.5 456.563ZM1242.88 387.984C1253.74 345.207 1273.15 306.045 1301.14 270.474L1294.86 265.526C1266.19 301.955 1246.26 342.126 1235.12 386.016L1242.88 387.984ZM1301.15 270.461C1335.07 226.993 1370.7 206 1408 206V198C1367.3 198 1329.6 221.007 1294.85 265.539L1301.15 270.461ZM1408 206C1424.05 206 1437.48 210.429 1448.52 219.141C1459.62 227.891 1468.59 241.187 1475.24 259.375L1482.76 256.625C1475.75 237.479 1466.05 222.776 1453.48 212.859C1440.86 202.904 1425.62 198 1408 198V206ZM1476.06 255.291L1424.06 311.791L1429.94 317.209L1481.94 260.709L1476.06 255.291ZM1430.35 312.311C1423.89 302.433 1414.25 297.5 1402 297.5V305.5C1411.75 305.5 1418.78 309.234 1423.65 316.689L1430.35 312.311ZM1402 297.5C1378.29 297.5 1356.74 313.753 1337.15 343.816L1343.85 348.184C1362.93 318.914 1382.38 305.5 1402 305.5V297.5ZM1337.1 343.898C1322.88 366.921 1312.22 392.127 1305.13 419.496L1312.87 421.504C1319.78 394.873 1330.12 370.412 1343.9 348.102L1337.1 343.898ZM1305.09 419.645C1302.72 430.486 1301.35 440.392 1301 449.346L1309 449.654C1309.32 441.274 1310.61 431.847 1312.91 421.355L1305.09 419.645ZM1301 449.5C1301 463.197 1304.52 474.677 1311.93 483.561L1318.07 478.439C1312.14 471.323 1309 461.803 1309 449.5H1301ZM1311.89 483.513C1319.78 493.283 1331.02 498 1345 498V490C1332.98 490 1324.22 486.051 1318.11 478.487L1311.89 483.513ZM1345 498C1361.36 498 1376.35 490.5 1389.9 476.257L1384.1 470.743C1371.65 483.833 1358.64 490 1345 490V498ZM1389.92 476.236C1400.35 465.111 1408.6 451.122 1414.75 434.379L1407.25 431.621C1401.4 447.544 1393.65 460.556 1384.08 470.764L1389.92 476.236ZM1410.22 429.078C1386.83 433.756 1365.26 438.604 1345.51 443.623L1347.49 451.377C1367.08 446.396 1388.51 441.578 1411.78 436.922L1410.22 429.078ZM1350.41 448.338L1365.41 378.338L1357.59 376.662L1342.59 446.662L1350.41 448.338ZM1362.32 381.414L1488.32 354.914L1486.68 347.086L1360.68 373.586L1362.32 381.414ZM1483.5 351.066C1483.82 370.782 1479.46 393.797 1470.22 420.179L1477.78 422.821C1487.21 395.87 1491.84 371.884 1491.5 350.934L1483.5 351.066ZM1470.27 420.061C1461.35 443.173 1450.8 464.441 1438.61 483.875L1445.39 488.125C1457.87 468.225 1468.65 446.494 1477.73 422.939L1470.27 420.061ZM1438.64 483.822C1402.1 540.117 1359.37 567.5 1310.5 567.5V575.5C1362.97 575.5 1407.9 545.883 1445.36 488.178L1438.64 483.822Z" fill="#EEEEEE"/>
<path d="M722.095 457.2C754.528 374.367 780.662 294.333 800.495 217.1L901.645 200.3C890.212 267.5 885.078 346.833 886.245 438.3L815.195 454.75L820.095 413.1L798.395 417.3L791.045 446.7L722.095 457.2ZM826.045 368.65L841.095 243H840.745L809.245 371.8L826.045 368.65ZM941.701 218.15C976.234 207.883 1004.58 202.75 1026.75 202.75C1056.62 202.75 1071.43 213.133 1071.2 233.9C1070.97 263.767 1052.18 293.75 1014.85 323.85C1018.12 332.25 1030.95 358.733 1053.35 403.3C1041.92 413.8 1024.65 429.317 1001.55 449.85L965.851 358.5C960.251 387.433 956.051 414.15 953.251 438.65L901.451 453.35C901.918 448.45 904.251 433.75 908.451 409.25L941.701 218.15ZM983.351 270.65C981.251 278.117 979.384 285.7 977.751 293.4L973.201 315.8C981.134 311.833 988.834 306.7 996.301 300.4C1005.17 292.7 1010.88 285.467 1013.45 278.7C1014.38 276.6 1014.97 274.733 1015.2 273.1C1014.97 268.2 1011.7 265.75 1005.4 265.75C1000.27 265.75 992.918 267.383 983.351 270.65ZM1038.6 457.2C1071.03 374.367 1097.17 294.333 1117 217.1L1218.15 200.3C1206.72 267.5 1201.58 346.833 1202.75 438.3L1131.7 454.75L1136.6 413.1L1114.9 417.3L1107.55 446.7L1038.6 457.2ZM1142.55 368.65L1157.6 243H1157.25L1125.75 371.8L1142.55 368.65Z" fill="url(#paint6_linear_51_115)"/>
<path d="M722.095 457.2L718.37 455.742L715.842 462.198L722.697 461.154L722.095 457.2ZM800.495 217.1L799.84 213.154L797.269 213.581L796.621 216.105L800.495 217.1ZM901.645 200.3L905.588 200.971L906.531 195.434L900.99 196.354L901.645 200.3ZM886.245 438.3L887.147 442.197L890.286 441.47L890.245 438.249L886.245 438.3ZM815.195 454.75L811.223 454.283L810.558 459.929L816.097 458.647L815.195 454.75ZM820.095 413.1L824.068 413.567L824.707 408.133L819.335 409.173L820.095 413.1ZM798.395 417.3L797.635 413.373L795.133 413.857L794.515 416.33L798.395 417.3ZM791.045 446.7L791.647 450.654L794.28 450.254L794.926 447.67L791.045 446.7ZM826.045 368.65L826.782 372.581L829.668 372.04L830.017 369.126L826.045 368.65ZM841.095 243L845.067 243.476L845.603 239H841.095V243ZM840.745 243V239H837.605L836.86 242.05L840.745 243ZM809.245 371.8L805.36 370.85L803.886 376.874L809.982 375.731L809.245 371.8ZM725.82 458.658C758.306 375.691 784.491 295.502 804.369 218.095L796.621 216.105C776.832 293.164 750.751 373.043 718.37 455.742L725.82 458.658ZM801.15 221.046L902.301 204.246L900.99 196.354L799.84 213.154L801.15 221.046ZM897.702 199.629C886.217 267.132 881.077 346.719 882.245 438.351L890.245 438.249C889.08 346.948 894.207 267.868 905.588 200.971L897.702 199.629ZM885.343 434.403L814.293 450.853L816.097 458.647L887.147 442.197L885.343 434.403ZM819.168 455.217L824.068 413.567L816.123 412.633L811.223 454.283L819.168 455.217ZM819.335 409.173L797.635 413.373L799.155 421.227L820.855 417.027L819.335 409.173ZM794.515 416.33L787.165 445.73L794.926 447.67L802.276 418.27L794.515 416.33ZM790.443 442.746L721.493 453.246L722.697 461.154L791.647 450.654L790.443 442.746ZM830.017 369.126L845.067 243.476L837.124 242.524L822.074 368.174L830.017 369.126ZM841.095 239H840.745V247H841.095V239ZM836.86 242.05L805.36 370.85L813.131 372.75L844.631 243.95L836.86 242.05ZM809.982 375.731L826.782 372.581L825.308 364.719L808.508 367.869L809.982 375.731ZM941.701 218.15L940.561 214.316L938.185 215.022L937.76 217.464L941.701 218.15ZM1071.2 233.9L1067.2 233.855L1067.2 233.869L1071.2 233.9ZM1014.85 323.85L1012.34 320.736L1010.06 322.573L1011.12 325.3L1014.85 323.85ZM1053.35 403.3L1056.06 406.246L1058.28 404.203L1056.92 401.504L1053.35 403.3ZM1001.55 449.85L997.825 451.306L999.916 456.655L1004.21 452.84L1001.55 449.85ZM965.851 358.5L969.577 357.044L964.549 344.178L961.924 357.74L965.851 358.5ZM953.251 438.65L954.343 442.498L956.921 441.766L957.225 439.104L953.251 438.65ZM901.451 453.35L897.469 452.971L896.914 458.795L902.543 457.198L901.451 453.35ZM908.451 409.25L904.51 408.564L904.508 408.574L908.451 409.25ZM983.351 270.65L982.058 266.865L980.069 267.544L979.5 269.567L983.351 270.65ZM977.751 293.4L973.838 292.57L973.834 292.587L973.831 292.604L977.751 293.4ZM973.201 315.8L969.281 315.004L967.647 323.049L974.99 319.378L973.201 315.8ZM996.301 300.4L998.88 303.457L998.902 303.439L998.924 303.42L996.301 300.4ZM1013.45 278.7L1009.8 277.075L1009.75 277.177L1009.71 277.281L1013.45 278.7ZM1015.2 273.1L1019.16 273.666L1019.21 273.289L1019.2 272.91L1015.2 273.1ZM942.841 221.984C977.204 211.768 1005.13 206.75 1026.75 206.75V198.75C1004.03 198.75 975.264 203.999 940.561 214.316L942.841 221.984ZM1026.75 206.75C1041.35 206.75 1051.54 209.31 1057.97 213.813C1064.12 218.126 1067.31 224.566 1067.2 233.855L1075.2 233.945C1075.33 222.468 1071.22 213.332 1062.56 207.262C1054.17 201.381 1042.02 198.75 1026.75 198.75V206.75ZM1067.2 233.869C1066.98 261.966 1049.3 290.936 1012.34 320.736L1017.36 326.964C1055.07 296.564 1074.95 265.567 1075.2 233.931L1067.2 233.869ZM1011.12 325.3C1014.48 333.925 1027.43 360.628 1049.78 405.096L1056.92 401.504C1034.48 356.839 1021.76 330.575 1018.58 322.4L1011.12 325.3ZM1050.65 400.354C1039.24 410.831 1021.99 426.33 998.894 446.86L1004.21 452.84C1027.31 432.303 1044.6 416.769 1056.06 406.246L1050.65 400.354ZM1005.28 448.394L969.577 357.044L962.125 359.956L997.825 451.306L1005.28 448.394ZM961.924 357.74C956.308 386.756 952.091 413.576 949.277 438.196L957.225 439.104C960.011 414.724 964.194 388.111 969.778 359.26L961.924 357.74ZM952.159 434.802L900.359 449.502L902.543 457.198L954.343 442.498L952.159 434.802ZM905.433 453.729C905.882 449.017 908.18 434.503 912.393 409.926L904.508 408.574C900.322 432.997 897.954 447.883 897.469 452.971L905.433 453.729ZM912.392 409.936L945.642 218.836L937.76 217.464L904.51 408.564L912.392 409.936ZM979.5 269.567C977.377 277.119 975.489 284.786 973.838 292.57L981.664 294.23C983.279 286.614 985.125 279.115 987.202 271.733L979.5 269.567ZM973.831 292.604L969.281 315.004L977.121 316.596L981.671 294.196L973.831 292.604ZM974.99 319.378C983.233 315.256 991.196 309.941 998.88 303.457L993.721 297.343C986.473 303.459 979.035 308.411 971.412 312.222L974.99 319.378ZM998.924 303.42C1008.01 295.527 1014.29 287.774 1017.19 280.119L1009.71 277.281C1007.48 283.16 1002.32 289.873 993.678 297.38L998.924 303.42ZM1017.11 280.325C1018.14 278.009 1018.86 275.776 1019.16 273.666L1011.24 272.534C1011.08 273.691 1010.63 275.191 1009.8 277.075L1017.11 280.325ZM1019.2 272.91C1019.04 269.534 1017.76 266.473 1014.98 264.387C1012.37 262.429 1008.97 261.75 1005.4 261.75V269.75C1008.13 269.75 1009.52 270.296 1010.18 270.787C1010.66 271.152 1011.13 271.766 1011.21 273.29L1019.2 272.91ZM1005.4 261.75C999.583 261.75 991.719 263.566 982.058 266.865L984.644 274.435C994.116 271.201 1000.95 269.75 1005.4 269.75V261.75ZM1038.6 457.2L1034.87 455.742L1032.35 462.198L1039.2 461.154L1038.6 457.2ZM1117 217.1L1116.34 213.154L1113.77 213.581L1113.12 216.105L1117 217.1ZM1218.15 200.3L1222.09 200.971L1223.03 195.434L1217.49 196.354L1218.15 200.3ZM1202.75 438.3L1203.65 442.197L1206.79 441.47L1206.75 438.249L1202.75 438.3ZM1131.7 454.75L1127.73 454.283L1127.06 459.929L1132.6 458.647L1131.7 454.75ZM1136.6 413.1L1140.57 413.567L1141.21 408.133L1135.84 409.173L1136.6 413.1ZM1114.9 417.3L1114.14 413.373L1111.64 413.857L1111.02 416.33L1114.9 417.3ZM1107.55 446.7L1108.15 450.654L1110.78 450.254L1111.43 447.67L1107.55 446.7ZM1142.55 368.65L1143.29 372.581L1146.17 372.04L1146.52 369.126L1142.55 368.65ZM1157.6 243L1161.57 243.476L1162.11 239H1157.6V243ZM1157.25 243V239H1154.11L1153.36 242.05L1157.25 243ZM1125.75 371.8L1121.86 370.85L1120.39 376.874L1126.49 375.731L1125.75 371.8ZM1042.32 458.658C1074.81 375.691 1101 295.502 1120.87 218.095L1113.12 216.105C1093.34 293.164 1067.26 373.043 1034.87 455.742L1042.32 458.658ZM1117.65 221.046L1218.8 204.246L1217.49 196.354L1116.34 213.154L1117.65 221.046ZM1214.21 199.629C1202.72 267.132 1197.58 346.719 1198.75 438.351L1206.75 438.249C1205.58 346.948 1210.71 267.868 1222.09 200.971L1214.21 199.629ZM1201.85 434.403L1130.8 450.853L1132.6 458.647L1203.65 442.197L1201.85 434.403ZM1135.67 455.217L1140.57 413.567L1132.63 412.633L1127.73 454.283L1135.67 455.217ZM1135.84 409.173L1114.14 413.373L1115.66 421.227L1137.36 417.027L1135.84 409.173ZM1111.02 416.33L1103.67 445.73L1111.43 447.67L1118.78 418.27L1111.02 416.33ZM1106.95 442.746L1038 453.246L1039.2 461.154L1108.15 450.654L1106.95 442.746ZM1146.52 369.126L1161.57 243.476L1153.63 242.524L1138.58 368.174L1146.52 369.126ZM1157.6 239H1157.25V247H1157.6V239ZM1153.36 242.05L1121.86 370.85L1129.63 372.75L1161.13 243.95L1153.36 242.05ZM1126.49 375.731L1143.29 372.581L1141.81 364.719L1125.01 367.869L1126.49 375.731Z" fill="#EEEEEE"/>
<path d="M541.5 571.5C508.167 571.5 484.5 553.5 470.5 517.5C463.833 499.5 460.167 479.167 459.5 456.5C459.833 435.5 463.333 412.333 470 387C481 343.667 500.667 304 529 268C563.333 224 600 202 639 202C672.667 202 696.333 220.667 710 258L658 314.5C652.333 305.833 644 301.5 633 301.5C611.333 301.5 590.833 316.333 571.5 346C557.5 368.667 547 393.5 540 420.5C537.667 431.167 536.333 440.833 536 449.5C536 462.5 539.333 473 546 481C553 489.667 563 494 576 494C591 494 605 487.167 618 473.5C628 462.833 636 449.333 642 433C618.667 437.667 597.167 442.5 577.5 447.5L592.5 377.5L718.5 351C718.833 371.333 714.333 394.833 705 421.5C696 444.833 685.333 466.333 673 486C636 543 592.167 571.5 541.5 571.5Z" fill="url(#paint7_linear_51_115)"/>
<path d="M470.5 517.5L466.749 518.889L466.76 518.92L466.772 518.95L470.5 517.5ZM459.5 456.5L455.501 456.436L455.499 456.527L455.502 456.618L459.5 456.5ZM470 387L473.868 388.018L473.873 388.001L473.877 387.984L470 387ZM529 268L532.143 270.474L532.148 270.467L532.154 270.461L529 268ZM710 258L712.943 260.709L714.594 258.915L713.756 256.625L710 258ZM658 314.5L654.652 316.689L657.464 320.989L660.943 317.209L658 314.5ZM571.5 346L568.149 343.816L568.122 343.857L568.097 343.898L571.5 346ZM540 420.5L536.128 419.496L536.109 419.57L536.092 419.645L540 420.5ZM536 449.5L532.003 449.346L532 449.423V449.5H536ZM546 481L549.112 478.487L549.093 478.463L549.073 478.439L546 481ZM618 473.5L620.898 476.257L620.908 476.246L620.918 476.236L618 473.5ZM642 433L645.755 434.379L648.217 427.677L641.216 429.078L642 433ZM577.5 447.5L573.589 446.662L572.238 452.965L578.486 451.377L577.5 447.5ZM592.5 377.5L591.677 373.586L589.133 374.121L588.589 376.662L592.5 377.5ZM718.5 351L722.499 350.934L722.42 346.088L717.677 347.086L718.5 351ZM705 421.5L708.732 422.939L708.755 422.881L708.775 422.821L705 421.5ZM673 486L676.355 488.178L676.372 488.152L676.389 488.125L673 486ZM541.5 567.5C525.597 567.5 512.225 563.223 501.171 554.816C490.076 546.378 481.039 533.564 474.228 516.05L466.772 518.95C473.961 537.436 483.757 551.622 496.329 561.184C508.942 570.777 524.07 575.5 541.5 575.5V567.5ZM474.251 516.111C467.76 498.585 464.154 478.691 463.498 456.382L455.502 456.618C456.179 479.642 459.907 500.415 466.749 518.889L474.251 516.111ZM463.499 456.563C463.827 435.954 467.264 413.113 473.868 388.018L466.132 385.982C459.402 411.554 455.84 435.046 455.501 456.436L463.499 456.563ZM473.877 387.984C484.736 345.207 504.147 306.045 532.143 270.474L525.857 265.526C497.186 301.955 477.264 342.126 466.123 386.016L473.877 387.984ZM532.154 270.461C566.072 226.993 601.699 206 639 206V198C598.301 198 560.595 221.007 525.846 265.539L532.154 270.461ZM639 206C655.046 206 668.478 210.429 679.523 219.141C690.617 227.891 699.586 241.187 706.244 259.375L713.756 256.625C706.748 237.479 697.05 222.776 684.477 212.859C671.856 202.904 656.621 198 639 198V206ZM707.057 255.291L655.057 311.791L660.943 317.209L712.943 260.709L707.057 255.291ZM661.348 312.311C654.889 302.433 645.249 297.5 633 297.5V305.5C642.751 305.5 649.778 309.234 654.652 316.689L661.348 312.311ZM633 297.5C609.29 297.5 587.741 313.753 568.149 343.816L574.851 348.184C593.926 318.914 613.376 305.5 633 305.5V297.5ZM568.097 343.898C553.877 366.921 543.224 392.127 536.128 419.496L543.872 421.504C550.776 394.873 561.123 370.412 574.903 348.102L568.097 343.898ZM536.092 419.645C533.721 430.486 532.347 440.392 532.003 449.346L539.997 449.654C540.319 441.274 541.612 431.847 543.908 421.355L536.092 419.645ZM532 449.5C532 463.197 535.524 474.677 542.927 483.561L549.073 478.439C543.142 471.323 540 461.803 540 449.5H532ZM542.888 483.513C550.779 493.283 562.017 498 576 498V490C563.983 490 555.221 486.051 549.112 478.487L542.888 483.513ZM576 498C592.363 498 607.35 490.5 620.898 476.257L615.102 470.743C602.65 483.833 589.637 490 576 490V498ZM620.918 476.236C631.348 465.111 639.604 451.122 645.755 434.379L638.245 431.621C632.396 447.544 624.652 460.556 615.082 470.764L620.918 476.236ZM641.216 429.078C617.826 433.756 596.258 438.604 576.514 443.623L578.486 451.377C598.075 446.396 619.507 441.578 642.784 436.922L641.216 429.078ZM581.411 448.338L596.411 378.338L588.589 376.662L573.589 446.662L581.411 448.338ZM593.323 381.414L719.323 354.914L717.677 347.086L591.677 373.586L593.323 381.414ZM714.501 351.066C714.824 370.782 710.458 393.797 701.225 420.179L708.775 422.821C718.208 395.87 722.843 371.884 722.499 350.934L714.501 351.066ZM701.268 420.061C692.353 443.173 681.798 464.441 669.611 483.875L676.389 488.125C688.868 468.225 699.647 446.494 708.732 422.939L701.268 420.061ZM669.645 483.822C633.103 540.117 590.368 567.5 541.5 567.5V575.5C593.965 575.5 638.897 545.883 676.355 488.178L669.645 483.822Z" fill="#EEEEEE"/>
<g filter="url(#filter1_d_51_115)">
<path d="M545.734 222.631C576.073 191.317 654.225 148.752 724.125 229C724.125 176.456 602.164 103.214 545.734 222.631Z" fill="url(#paint8_linear_51_115)"/>
<path d="M1315.73 219.447C1347.28 191.848 1425.67 154.484 1486.84 225.816C1485.02 182.825 1383.08 109.583 1315.73 219.447Z" fill="url(#paint9_linear_51_115)"/>
<path d="M780.555 224.223C771.817 175.819 732.013 133.997 713.203 119.136L1131.88 155.757L789.656 163.719C786.622 173.803 780.555 200.021 780.555 224.223Z" fill="url(#paint10_linear_51_115)"/>
<path d="M498.68 227.756C459.4 205.77 458.805 111.543 464.757 76.9935C487.967 103.691 498.68 103.691 518.319 108.402C873.619 -32.9377 971.937 2.41833 1014.67 7.89388C1062.7 14.049 1178.93 69.777 1211.07 89.5571C1228.75 100.439 1328.9 116.255 1400.32 127.248C1547.44 153.631 1592.41 170.088 1627 187.602C1621.54 190.787 1583.31 182.825 1565.11 205.117C1477.73 143.02 1366.7 135.059 1328.47 136.651C1279.32 135.059 1114.65 141.382 1098.58 138.241C1082.51 135.1 1073.59 89.5571 1105.73 89.5571C1137.86 89.5571 1137.86 103.691 1150.36 127.248C1173.57 124.107 1171.79 125.677 1178.93 116.255C1052.16 34.5915 1005.74 39.3028 953.964 36.1619C902.186 33.021 753.996 47.155 739.712 61.2891C725.429 75.4231 771.85 87.9867 805.773 103.691C514.749 95.8389 516.534 171.22 498.68 227.756Z" fill="url(#paint11_linear_51_115)"/>
</g>
<g filter="url(#filter2_d_51_115)">
<path d="M345.643 519.354C321.203 493.514 337.131 463.297 348.15 451.419C356.325 439.976 384.944 420.961 417.778 446.726C450.612 472.49 431.092 502.497 415.913 518.721C400.734 534.945 369.172 542.723 345.643 519.354Z" fill="url(#paint12_radial_51_115)"/>
<path d="M416.455 501.165C422.991 493.8 432.786 474.934 419.676 458.393C428.959 474.459 415.337 502.5 416.455 501.165Z" fill="#D9D9D9"/>
<path d="M416.064 434.264C381.836 418.657 354.87 432.662 345.666 441.615C324.978 445.032 307.904 422.694 311.061 383.281C327.417 318.342 383.735 319.992 419.513 342.322C455.291 364.653 436.692 421.496 416.064 434.264Z" fill="url(#paint13_radial_51_115)"/>
<path d="M326.12 407.648C326.293 407.956 326.466 408.252 326.64 408.536C326.461 408.358 326.286 408.058 326.12 407.648C319.975 396.7 314.883 370.96 340.505 348.459C323.011 366.072 323.456 401.069 326.12 407.648Z" fill="#D9D9D9"/>
<path d="M336.245 451.591C321.884 450.238 307.578 425.238 302.22 412.907C258.11 424.849 250.618 415.451 235.997 415.113C221.579 429.158 211.641 447.164 211.433 470.432C212.272 526.529 290.559 532.882 308.165 515.156C324.354 508.739 337.61 455.392 336.245 451.591Z" fill="url(#paint14_radial_51_115)"/>
<path d="M238.644 498.545C226.409 489.277 210.006 465.528 233.302 436.63C218.474 459.56 232.398 489.775 238.644 498.545Z" fill="#D9D9D9"/>
<path d="M333.16 331.383C303.862 358.623 298.748 391.756 299.854 404.918C265.847 415.157 242.645 412.165 234.881 404.453C230.525 406.485 191.744 378.237 205.936 338.537C220.129 298.836 239.732 289.451 277.891 287.737C316.05 286.023 336.339 328.183 333.16 331.383Z" fill="url(#paint15_radial_51_115)"/>
<path d="M219.189 373.617C219.491 374.138 219.796 374.632 220.099 375.1C219.768 374.771 219.463 374.27 219.189 373.617C211.759 360.825 205.373 332.374 233.831 309.51C217.407 326.047 215.376 364.54 219.189 373.617Z" fill="#D9D9D9"/>
<path d="M203.852 322.283L196.797 352.444C194.679 350.341 156.797 337.659 124.572 330.105C164.423 282.828 215.548 283.526 236.129 289.785L217.3 308.742C208.693 317.408 191.375 318.531 183.792 318.009L203.852 322.283Z" fill="url(#paint16_radial_51_115)"/>
<path d="M262.589 198.202C282.847 229.571 291.71 267.392 292.83 283.99C264.95 283.198 209.477 266.737 210.622 207.231C211.793 146.407 189.054 111.543 180.408 103.748C179.264 103.482 178.184 103.109 177.148 102.582C177.254 101.617 178.481 102.01 180.408 103.748C192.639 106.587 212.273 97.1585 265.539 132.174C319.58 154.94 326.47 205.571 323.16 228.04C320.06 239.633 314.121 269.142 315.168 294.44C305.854 292.524 297.854 259.637 286.985 226.345C278.29 199.712 251.622 170.029 239.375 158.517C244.525 169.175 256.378 192.033 262.589 198.202Z" fill="url(#paint17_radial_51_115)"/>
<path d="M366.979 293.569C350.148 310.891 343.76 320.555 342.669 323.221C342.189 324.211 365.88 325.734 386.909 304.561C403.733 287.623 402.003 242.933 399.035 222.705C384.595 233.794 352.719 259.55 340.742 273.868C325.77 291.765 331.846 312.471 338.79 313.01C350.899 311.735 369.943 284.938 377.95 271.699C376.914 275.723 373.268 285.731 366.979 293.569Z" fill="url(#paint18_radial_51_115)"/>
</g>
</g>
<defs>
<filter id="filter0_d_51_115" x="122.572" y="0" width="1527.38" height="795.526" filterUnits="userSpaceOnUse" color-interpolation-filters="sRGB">
<feFlood flood-opacity="0" result="BackgroundImageFix"/>
<feColorMatrix in="SourceAlpha" type="matrix" values="0 0 0 0 0 0 0 0 0 0 0 0 0 0 0 0 0 0 127 0" result="hardAlpha"/>
<feOffset dy="12"/>
<feGaussianBlur stdDeviation="1"/>
<feComposite in2="hardAlpha" operator="out"/>
<feColorMatrix type="matrix" values="0 0 0 0 0 0 0 0 0 0 0 0 0 0 0 0 0 0 0.7 0"/>
<feBlend mode="normal" in2="BackgroundImageFix" result="effect1_dropShadow_51_115"/>
<feBlend mode="normal" in="SourceGraphic" in2="effect1_dropShadow_51_115" result="shape"/>
</filter>
<filter id="filter1_d_51_115" x="458" y="0" width="1173" height="237" filterUnits="userSpaceOnUse" color-interpolation-filters="sRGB">
<feFlood flood-opacity="0" result="BackgroundImageFix"/>
<feColorMatrix in="SourceAlpha" type="matrix" values="0 0 0 0 0 0 0 0 0 0 0 0 0 0 0 0 0 0 127 0" result="hardAlpha"/>
<feOffset dy="4"/>
<feGaussianBlur stdDeviation="2"/>
<feComposite in2="hardAlpha" operator="out"/>
<feColorMatrix type="matrix" values="0 0 0 0 0 0 0 0 0 0 0 0 0 0 0 0 0 0 0.7 0"/>
<feBlend mode="normal" in2="BackgroundImageFix" result="effect1_dropShadow_51_115"/>
<feBlend mode="normal" in="SourceGraphic" in2="effect1_dropShadow_51_115" result="shape"/>
</filter>
<filter id="filter2_d_51_115" x="120.572" y="102.067" width="323.134" height="439.982" filterUnits="userSpaceOnUse" color-interpolation-filters="sRGB">
<feFlood flood-opacity="0" result="BackgroundImageFix"/>
<feColorMatrix in="SourceAlpha" type="matrix" values="0 0 0 0 0 0 0 0 0 0 0 0 0 0 0 0 0 0 127 0" result="hardAlpha"/>
<feOffset dy="4"/>
<feGaussianBlur stdDeviation="2"/>
<feComposite in2="hardAlpha" operator="out"/>
<feColorMatrix type="matrix" values="0 0 0 0 0 0 0 0 0 0 0 0 0 0 0 0 0 0 0.7 0"/>
<feBlend mode="normal" in2="BackgroundImageFix" result="effect1_dropShadow_51_115"/>
<feBlend mode="normal" in="SourceGraphic" in2="effect1_dropShadow_51_115" result="shape"/>
</filter>
<linearGradient id="paint0_linear_51_115" x1="1231" y1="560" x2="1231" y2="800" gradientUnits="userSpaceOnUse">
<stop stop-color="#652063"/>
<stop offset="0.729167" stop-color="#3B0B39"/>
</linearGradient>
<linearGradient id="paint1_linear_51_115" x1="567" y1="560" x2="567" y2="800" gradientUnits="userSpaceOnUse">
<stop stop-color="#652063"/>
<stop offset="0.6875" stop-color="#3B0B39"/>
</linearGradient>
<linearGradient id="paint2_linear_51_115" x1="1025" y1="452" x2="1025" y2="596" gradientUnits="userSpaceOnUse">
<stop stop-color="#652063"/>
<stop offset="0.729167" stop-color="#3B0B39"/>
</linearGradient>
<linearGradient id="paint3_linear_51_115" x1="825.5" y1="452" x2="825.5" y2="596" gradientUnits="userSpaceOnUse">
<stop stop-color="#637423"/>
<stop offset="1" stop-color="#A7C04C"/>
</linearGradient>
<linearGradient id="paint4_linear_51_115" x1="1575" y1="199" x2="1575" y2="458" gradientUnits="userSpaceOnUse">
<stop stop-color="#607124"/>
<stop offset="1" stop-color="#A7C04C"/>
</linearGradient>
<linearGradient id="paint5_linear_51_115" x1="1356" y1="197" x2="1356" y2="712" gradientUnits="userSpaceOnUse">
<stop stop-color="#607124"/>
<stop offset="1" stop-color="#A7C04C"/>
</linearGradient>
<linearGradient id="paint6_linear_51_115" x1="973" y1="199" x2="973" y2="452" gradientUnits="userSpaceOnUse">
<stop stop-color="#607124"/>
<stop offset="1" stop-color="#A7C04C"/>
</linearGradient>
<linearGradient id="paint7_linear_51_115" x1="587" y1="197" x2="587" y2="712" gradientUnits="userSpaceOnUse">
<stop stop-color="#607124"/>
<stop offset="1" stop-color="#A7C04C"/>
</linearGradient>
<linearGradient id="paint8_linear_51_115" x1="634.93" y1="158.15" x2="634.93" y2="229" gradientUnits="userSpaceOnUse">
<stop stop-color="#637423"/>
<stop offset="0.588542" stop-color="#A7C04C"/>
<stop offset="1" stop-color="#A7C04C"/>
</linearGradient>
<linearGradient id="paint9_linear_51_115" x1="1401.28" y1="161.799" x2="1401.28" y2="225.816" gradientUnits="userSpaceOnUse">
<stop stop-color="#637423"/>
<stop offset="0.588542" stop-color="#A7C04C"/>
<stop offset="1" stop-color="#A7C04C"/>
</linearGradient>
<linearGradient id="paint10_linear_51_115" x1="922.539" y1="119.136" x2="922.539" y2="224.223" gradientUnits="userSpaceOnUse">
<stop stop-color="#637423"/>
<stop offset="0.588542" stop-color="#A7C04C"/>
<stop offset="1" stop-color="#A7C04C"/>
</linearGradient>
<linearGradient id="paint11_linear_51_115" x1="1046.32" y1="4.49564" x2="1046.32" y2="252.883" gradientUnits="userSpaceOnUse">
<stop stop-color="#637423"/>
<stop offset="0.5" stop-color="#A7C04C"/>
<stop offset="1" stop-color="#A7C04C"/>
</linearGradient>
<radialGradient id="paint12_radial_51_115" cx="0" cy="0" r="1" gradientUnits="userSpaceOnUse" gradientTransform="translate(382.92 483.919) rotate(44.8048) scale(47.9527 51.4098)">
<stop offset="0.541667" stop-color="#652063"/>
<stop offset="1" stop-color="#3B0B39"/>
</radialGradient>
<radialGradient id="paint13_radial_51_115" cx="0" cy="0" r="1" gradientUnits="userSpaceOnUse" gradientTransform="translate(374.01 389.772) rotate(44.8048) scale(61.9371 66.8216)">
<stop offset="0.541667" stop-color="#652063"/>
<stop offset="1" stop-color="#3B0B39"/>
</radialGradient>
<radialGradient id="paint14_radial_51_115" cx="0" cy="0" r="1" gradientUnits="userSpaceOnUse" gradientTransform="translate(271.554 466.437) rotate(44.8048) scale(61.4098 59.5912)">
<stop offset="0.541667" stop-color="#652063"/>
<stop offset="1" stop-color="#3B0B39"/>
</radialGradient>
<radialGradient id="paint15_radial_51_115" cx="0" cy="0" r="1" gradientUnits="userSpaceOnUse" gradientTransform="translate(268.411 349.106) rotate(44.8048) scale(61.6385 66.6021)">
<stop offset="0.541667" stop-color="#652063"/>
<stop offset="1" stop-color="#3B0B39"/>
</radialGradient>
<radialGradient id="paint16_radial_51_115" cx="0" cy="0" r="1" gradientUnits="userSpaceOnUse" gradientTransform="translate(185.948 315.505) rotate(44.8048) scale(33.7284 53.6106)">
<stop stop-color="#A7C04C"/>
<stop offset="1" stop-color="#607124"/>
</radialGradient>
<radialGradient id="paint17_radial_51_115" cx="0" cy="0" r="1" gradientUnits="userSpaceOnUse" gradientTransform="translate(279.538 205.967) rotate(44.8048) scale(145.66 72.3339)">
<stop stop-color="#A7C04C"/>
<stop offset="1" stop-color="#607124"/>
</radialGradient>
<radialGradient id="paint18_radial_51_115" cx="0" cy="0" r="1" gradientUnits="userSpaceOnUse" gradientTransform="translate(279.538 205.967) rotate(44.8048) scale(145.66 72.3339)">
<stop stop-color="#A7C04C"/>
<stop offset="1" stop-color="#607124"/>
</radialGradient>
</defs>
</svg>
